{
customParameters = (
{
name = glyphOrder;
value = (
    ".notdef",
    uni0000,
    uni000D,
    space,
    o,
    uni00A0,
    dieresis,
    copyright,
    registered,
    acute,
    AE,
    Iacute,
    uni2000,
    uni2001,
    uni2002,
    uni2003,
    uni2004,
    uni2005,
    uni2006,
    uni2007,
    uni2008,
    uni2009,
    uni200A,
    uni202F,
    guilsinglright,
    uni205F,
    trademark,
    infinity,
    uniE000,
    uniF000,
    uniF001,
    uniF002,
    uniF003,
    uniF004,
    uniF005,
    uniF006,
    uniF007,
    uniF008,
    uniF009,
    uniF00A,
    uniF00B,
    uniF00C,
    uniF00D,
    uniF00E,
    uniF010,
    uniF011,
    uniF012,
    uniF013,
    uniF014,
    uniF015,
    uniF016,
    uniF017,
    uniF018,
    uniF019,
    uniF01A,
    uniF01B,
    uniF01C,
    uniF01D,
    uniF01E,
    uniF021,
    uniF022,
    uniF023,
    uniF024,
    uniF025,
    uniF026,
    uniF027,
    uniF028,
    uniF029,
    uniF02A,
    uniF02B,
    uniF02C,
    uniF02D,
    uniF02E,
    uniF02F,
    uniF030,
    uniF031,
    uniF032,
    uniF033,
    uniF034,
    uniF035,
    uniF036,
    uniF037,
    uniF038,
    uniF039,
    uniF03A,
    uniF03B,
    uniF03C,
    uniF03D,
    uniF03E,
    uniF040,
    uniF041,
    uniF042,
    uniF043,
    uniF044,
    uniF045,
    uniF046,
    uniF047,
    uniF048,
    uniF049,
    uniF04A,
    uniF04B,
    uniF04C,
    uniF04D,
    uniF04E,
    uniF050,
    uniF051,
    uniF052,
    uniF053,
    uniF054,
    uniF055,
    uniF056,
    uniF057,
    uniF058,
    uniF059,
    uniF05A,
    uniF05B,
    uniF05C,
    uniF05D,
    uniF05E,
    uniF060,
    uniF061,
    uniF062,
    uniF063,
    uniF064,
    uniF065,
    uniF066,
    uniF067,
    uniF068,
    uniF069,
    uniF06A,
    uniF06B,
    uniF06C,
    uniF06D,
    uniF06E,
    uniF070,
    uniF071,
    uniF072,
    uniF073,
    uniF074,
    uniF075,
    uniF076,
    uniF077,
    uniF078,
    uniF079,
    uniF07A,
    uniF07B,
    uniF07C,
    uniF07D,
    uniF07E,

glyphs = (
{
glyphname = .notdef;
lastChange = "2012-07-06 12:25:45 +0200";
layers = (
{
layerId = "1D4A27DC-6245-4CD0-82A2-90C51343519E";
name = Regular;
paths = (
{
closed = 1;
nodes = (
"129 0 LINE",
"129 1536 LINE",
"897 1536 LINE",
"897 0 LINE"
);
},
{
closed = 1;
nodes = (
"256 129 LINE",
"768 129 LINE",
"768 1409 LINE",
"256 1409 LINE"
);
}
);
width = 1024;
}
);
},
{
glyphname = uniF000;
lastChange = "2012-07-06 12:25:45 +0200";
layers = (
{
layerId = "1D4A27DC-6245-4CD0-82A2-90C51343519E";
name = Regular;
paths = (
{
closed = 1;
nodes = (
"19 1520 OFFCURVE",
"43 1536 OFFCURVE",
"76 1536 CURVE SMOOTH",
"1458 1536 LINE SMOOTH",
"1526 1536 OFFCURVE",
"1562 1454 OFFCURVE",
"1513 1405 CURVE SMOOTH",
"903 795 LINE",
"903 154 LINE",
"1151 154 LINE SMOOTH",
"1195 154 OFFCURVE",
"1229 119 OFFCURVE",
"1229 78 CURVE SMOOTH",
"1229 34 OFFCURVE",
"1195 0 OFFCURVE",
"1151 0 CURVE SMOOTH",
"383 0 LINE SMOOTH",
"342 0 OFFCURVE",
"307 34 OFFCURVE",
"307 78 CURVE SMOOTH",
"307 119 OFFCURVE",
"342 154 OFFCURVE",
"383 154 CURVE SMOOTH",
"633 154 LINE",
"633 795 LINE",
"23 1405 LINE SMOOTH",
"-2 1430 OFFCURVE",
"-7 1458 OFFCURVE",
"6 1489 CURVE SMOOTH"
);
}
);
width = 1536;
}
);
unicode = F000;
},
{
glyphname = uniF001;
lastChange = "2012-07-06 12:25:45 +0200";
layers = (
{
layerId = "1D4A27DC-6245-4CD0-82A2-90C51343519E";
name = Regular;
paths = (
{
closed = 1;
nodes = (
"0 289 OFFCURVE",
"40 352 OFFCURVE",
"100 393 CURVE SMOOTH",
"160 434 OFFCURVE",
"234 457 OFFCURVE",
"305 457 CURVE SMOOTH",
"338 457 OFFCURVE",
"373 451 OFFCURVE",
"406 442 CURVE",
"406 1221 LINE SMOOTH",
"406 1257 OFFCURVE",
"429 1287 OFFCURVE",
"465 1298 CURVE",
"480 1302 OFFCURVE",
"514 1312 OFFCURVE",
"565 1327 CURVE SMOOTH",
"616 1342 OFFCURVE",
"675 1360 OFFCURVE",
"743 1380 CURVE SMOOTH",
"810 1399 OFFCURVE",
"882 1420 OFFCURVE",
"958 1442 CURVE SMOOTH",
"1109 1486 OFFCURVE",
"1244 1524 OFFCURVE",
"1333 1549 CURVE SMOOTH",
"1377 1561 OFFCURVE",
"1402 1567 OFFCURVE",
"1407 1567 CURVE SMOOTH",
"1454 1567 OFFCURVE",
"1489 1532 OFFCURVE",
"1489 1485 CURVE SMOOTH",
"1489 457 LINE SMOOTH",
"1489 378 OFFCURVE",
"1449 317 OFFCURVE",
"1389 277 CURVE SMOOTH",
"1328 236 OFFCURVE",
"1252 213 OFFCURVE",
"1184 213 CURVE SMOOTH",
"1116 213 OFFCURVE",
"1039 236 OFFCURVE",
"980 277 CURVE SMOOTH",
"921 317 OFFCURVE",
"881 377 OFFCURVE",
"881 457 CURVE SMOOTH",
"881 533 OFFCURVE",
"921 596 OFFCURVE",
"980 637 CURVE SMOOTH",
"1039 678 OFFCURVE",
"1116 700 OFFCURVE",
"1184 700 CURVE SMOOTH",
"1220 700 OFFCURVE",
"1254 694 OFFCURVE",
"1286 686 CURVE",
"1286 1223 LINE",
"608 1028 LINE",
"608 213 LINE SMOOTH",
"608 134 OFFCURVE",
"568 73 OFFCURVE",
"509 33 CURVE SMOOTH",
"450 -8 OFFCURVE",
"373 -31 OFFCURVE",
"305 -31 CURVE SMOOTH",
"234 -31 OFFCURVE",
"160 -8 OFFCURVE",
"100 33 CURVE SMOOTH",
"40 73 OFFCURVE",
"0 134 OFFCURVE",
"0 213 CURVE SMOOTH"
);
}
);
width = 1488;
}
);
unicode = F001;
},
{
glyphname = uniF002;
lastChange = "2012-07-06 12:25:45 +0200";
layers = (
{
layerId = "1D4A27DC-6245-4CD0-82A2-90C51343519E";
name = Regular;
paths = (
{
closed = 1;
nodes = (
"0 1084 OFFCURVE",
"74 1250 OFFCURVE",
"196 1371 CURVE SMOOTH",
"318 1492 OFFCURVE",
"482 1567 OFFCURVE",
"666 1567 CURVE SMOOTH",
"849 1567 OFFCURVE",
"1014 1492 OFFCURVE",
"1136 1371 CURVE SMOOTH",
"1258 1250 OFFCURVE",
"1331 1084 OFFCURVE",
"1331 901 CURVE SMOOTH",
"1331 770 OFFCURVE",
"1292 643 OFFCURVE",
"1221 535 CURVE",
"1579 176 LINE SMOOTH",
"1591 164 OFFCURVE",
"1597 148 OFFCURVE",
"1597 129 CURVE SMOOTH",
"1597 108 OFFCURVE",
"1570 68 OFFCURVE",
"1534 33 CURVE SMOOTH",
"1498 -3 OFFCURVE",
"1459 -31 OFFCURVE",
"1438 -31 CURVE SMOOTH",
"1419 -31 OFFCURVE",
"1403 -25 OFFCURVE",
"1391 -12 CURVE",
"1032 346 LINE",
"923 275 OFFCURVE",
"797 236 OFFCURVE",
"666 236 CURVE SMOOTH",
"483 236 OFFCURVE",
"318 310 OFFCURVE",
"196 431 CURVE SMOOTH",
"74 552 OFFCURVE",
"0 718 OFFCURVE",
"0 901 CURVE SMOOTH"
);
},
{
closed = 1;
nodes = (
"266 789 OFFCURVE",
"312 690 OFFCURVE",
"384 619 CURVE SMOOTH",
"456 547 OFFCURVE",
"557 502 OFFCURVE",
"666 502 CURVE SMOOTH",
"775 502 OFFCURVE",
"875 547 OFFCURVE",
"947 619 CURVE SMOOTH",
"1019 690 OFFCURVE",
"1065 789 OFFCURVE",
"1065 901 CURVE SMOOTH",
"1065 1010 OFFCURVE",
"1019 1110 OFFCURVE",
"947 1183 CURVE SMOOTH",
"875 1255 OFFCURVE",
"775 1300 OFFCURVE",
"666 1300 CURVE SMOOTH",
"557 1300 OFFCURVE",
"456 1255 OFFCURVE",
"384 1183 CURVE SMOOTH",
"312 1110 OFFCURVE",
"266 1010 OFFCURVE",
"266 901 CURVE SMOOTH"
);
},
{
closed = 1;
nodes = (
"414 969 OFFCURVE",
"442 1032 OFFCURVE",
"488 1079 CURVE SMOOTH",
"534 1126 OFFCURVE",
"595 1153 OFFCURVE",
"666 1153 CURVE SMOOTH",
"693 1153 OFFCURVE",
"715 1131 OFFCURVE",
"715 1102 CURVE SMOOTH",
"715 1075 OFFCURVE",
"693 1053 OFFCURVE",
"666 1053 CURVE SMOOTH",
"582 1053 OFFCURVE",
"514 986 OFFCURVE",
"514 901 CURVE SMOOTH",
"514 874 OFFCURVE",
"492 852 OFFCURVE",
"465 852 CURVE SMOOTH",
"434 852 OFFCURVE",
"414 874 OFFCURVE",
"414 901 CURVE SMOOTH"
);
}
);
width = 1597;
}
);
unicode = F002;
},
{
glyphname = uniF003;
lastChange = "2012-07-06 12:25:45 +0200";
layers = (
{
layerId = "1D4A27DC-6245-4CD0-82A2-90C51343519E";
name = Regular;
paths = (
{
closed = 1;
nodes = (
"0 1421 LINE SMOOTH",
"0 1484 OFFCURVE",
"52 1536 OFFCURVE",
"115 1536 CURVE SMOOTH",
"1729 1536 LINE SMOOTH",
"1792 1536 OFFCURVE",
"1843 1484 OFFCURVE",
"1843 1421 CURVE SMOOTH",
"1843 115 LINE SMOOTH",
"1843 52 OFFCURVE",
"1792 0 OFFCURVE",
"1729 0 CURVE SMOOTH",
"115 0 LINE SMOOTH",
"52 0 OFFCURVE",
"0 52 OFFCURVE",
"0 115 CURVE SMOOTH"
);
},
{
closed = 1;
nodes = (
"154 154 LINE",
"1690 154 LINE",
"1690 1006 LINE",
"1669 985 OFFCURVE",
"1650 969 OFFCURVE",
"1632 956 CURVE SMOOTH",
"1561 903 OFFCURVE",
"1491 850 OFFCURVE",
"1420 797 CURVE SMOOTH",
"1349 744 OFFCURVE",
"1278 689 OFFCURVE",
"1208 633 CURVE SMOOTH",
"1127 568 OFFCURVE",
"1035 494 OFFCURVE",
"920 494 CURVE SMOOTH",
"811 494 OFFCURVE",
"716 568 OFFCURVE",
"635 633 CURVE SMOOTH",
"496 745 OFFCURVE",
"352 851 OFFCURVE",
"211 956 CURVE",
"193 968 OFFCURVE",
"174 985 OFFCURVE",
"154 1006 CURVE"
);
},
{
closed = 1;
nodes = (
"154 1317 LINE SMOOTH",
"154 1276 OFFCURVE",
"175 1228 OFFCURVE",
"204 1185 CURVE SMOOTH",
"232 1142 OFFCURVE",
"268 1104 OFFCURVE",
"301 1079 CURVE SMOOTH",
"368 1028 OFFCURVE",
"434 978 OFFCURVE",
"501 929 CURVE SMOOTH",
"567 879 OFFCURVE",
"633 828 OFFCURVE",
"700 776 CURVE SMOOTH",
"727 755 OFFCURVE",
"766 724 OFFCURVE",
"806 697 CURVE SMOOTH",
"846 669 OFFCURVE",
"887 647 OFFCURVE",
"920 647 CURVE SMOOTH",
"922 647 LINE",
"924 647 LINE SMOOTH",
"957 647 OFFCURVE",
"998 669 OFFCURVE",
"1038 697 CURVE SMOOTH",
"1057 710 OFFCURVE",
"1076 724 OFFCURVE",
"1095 739 CURVE SMOOTH",
"1113 753 OFFCURVE",
"1129 765 OFFCURVE",
"1143 776 CURVE SMOOTH",
"1276 880 OFFCURVE",
"1409 979 OFFCURVE",
"1542 1079 CURVE SMOOTH",
"1575 1103 OFFCURVE",
"1611 1142 OFFCURVE",
"1640 1185 CURVE SMOOTH",
"1668 1228 OFFCURVE",
"1690 1276 OFFCURVE",
"1690 1317 CURVE SMOOTH",
"1690 1382 LINE",
"154 1382 LINE"
);
}
);
width = 1843;
}
);
unicode = F003;
},
{
glyphname = uniF004;
lastChange = "2012-07-06 12:25:45 +0200";
layers = (
{
layerId = "1D4A27DC-6245-4CD0-82A2-90C51343519E";
name = Regular;
paths = (
{
closed = 1;
nodes = (
"0 1224 OFFCURVE",
"47 1349 OFFCURVE",
"132 1434 CURVE SMOOTH",
"216 1518 OFFCURVE",
"338 1567 OFFCURVE",
"487 1567 CURVE SMOOTH",
"566 1567 OFFCURVE",
"645 1540 OFFCURVE",
"714 1500 CURVE SMOOTH",
"783 1460 OFFCURVE",
"846 1406 OFFCURVE",
"901 1354 CURVE",
"953 1406 OFFCURVE",
"1019 1460 OFFCURVE",
"1089 1500 CURVE SMOOTH",
"1159 1540 OFFCURVE",
"1234 1567 OFFCURVE",
"1313 1567 CURVE SMOOTH",
"1464 1567 OFFCURVE",
"1587 1518 OFFCURVE",
"1672 1434 CURVE SMOOTH",
"1756 1349 OFFCURVE",
"1802 1224 OFFCURVE",
"1802 1073 CURVE SMOOTH",
"1802 985 OFFCURVE",
"1776 899 OFFCURVE",
"1733 819 CURVE SMOOTH",
"1689 738 OFFCURVE",
"1631 664 OFFCURVE",
"1571 604 CURVE SMOOTH",
"956 -8 LINE SMOOTH",
"941 -23 OFFCURVE",
"922 -31 OFFCURVE",
"901 -31 CURVE SMOOTH",
"880 -31 OFFCURVE",
"861 -23 OFFCURVE",
"844 -8 CURVE",
"229 606 LINE SMOOTH",
"169 666 OFFCURVE",
"111 740 OFFCURVE",
"69 820 CURVE SMOOTH",
"27 899 OFFCURVE",
"0 986 OFFCURVE",
"0 1073 CURVE SMOOTH"
);
}
);
width = 1802;
}
);
unicode = F004;
},
{
glyphname = uniF005;
lastChange = "2012-07-06 12:25:45 +0200";
layers = (
{
layerId = "1D4A27DC-6245-4CD0-82A2-90C51343519E";
name = Regular;
paths = (
{
closed = 1;
nodes = (
"27 899 LINE SMOOTH",
"-20 943 OFFCURVE",
"-5 985 OFFCURVE",
"55 993 CURVE SMOOTH",
"561 1067 LINE",
"788 1526 LINE SMOOTH",
"801 1553 OFFCURVE",
"818 1567 OFFCURVE",
"837 1567 CURVE SMOOTH",
"856 1567 OFFCURVE",
"873 1553 OFFCURVE",
"887 1526 CURVE SMOOTH",
"1114 1067 LINE",
"1620 993 LINE SMOOTH",
"1680 985 OFFCURVE",
"1694 943 OFFCURVE",
"1651 899 CURVE SMOOTH",
"1284 543 LINE",
"1370 39 LINE SMOOTH",
"1381 -21 OFFCURVE",
"1345 -49 OFFCURVE",
"1290 -18 CURVE SMOOTH",
"838 219 LINE",
"385 -18 LINE SMOOTH",
"330 -49 OFFCURVE",
"294 -21 OFFCURVE",
"305 39 CURVE SMOOTH",
"391 543 LINE"
);
}
);
width = 1675;
}
);
unicode = F005;
},
{
glyphname = uniF006;
lastChange = "2012-07-06 12:25:45 +0200";
layers = (
{
layerId = "1D4A27DC-6245-4CD0-82A2-90C51343519E";
name = Regular;
paths = (
{
closed = 1;
nodes = (
"0 979 OFFCURVE",
"31 988 OFFCURVE",
"55 993 CURVE",
"561 1067 LINE",
"788 1526 LINE",
"796 1545 OFFCURVE",
"817 1567 OFFCURVE",
"838 1567 CURVE SMOOTH",
"862 1567 OFFCURVE",
"879 1545 OFFCURVE",
"887 1526 CURVE",
"1114 1067 LINE",
"1620 993 LINE",
"1644 988 OFFCURVE",
"1675 979 OFFCURVE",
"1675 948 CURVE SMOOTH",
"1675 929 OFFCURVE",
"1664 912 OFFCURVE",
"1651 899 CURVE SMOOTH",
"1284 543 LINE",
"1370 39 LINE",
"1370 36 OFFCURVE",
"1370 33 OFFCURVE",
"1371 30 CURVE SMOOTH",
"1372 27 OFFCURVE",
"1372 23 OFFCURVE",
"1372 18 CURVE SMOOTH",
"1372 -9 OFFCURVE",
"1362 -31 OFFCURVE",
"1331 -31 CURVE SMOOTH",
"1316 -31 OFFCURVE",
"1302 -27 OFFCURVE",
"1290 -18 CURVE",
"838 219 LINE",
"385 -18 LINE",
"361 -34 OFFCURVE",
"326 -36 OFFCURVE",
"313 -16 CURVE",
"306 -7 OFFCURVE",
"303 5 OFFCURVE",
"303 18 CURVE SMOOTH",
"303 22 OFFCURVE",
"303 26 OFFCURVE",
"304 30 CURVE",
"305 33 OFFCURVE",
"305 36 OFFCURVE",
"305 39 CURVE",
"391 543 LINE",
"27 899 LINE SMOOTH",
"14 912 OFFCURVE",
"0 929 OFFCURVE",
"0 948 CURVE SMOOTH"
);
},
{
closed = 1;
nodes = (
"289 866 LINE",
"563 598 LINE",
"498 221 LINE",
"838 399 LINE",
"1178 221 LINE",
"1112 598 LINE",
"1386 866 LINE",
"1008 922 LINE",
"838 1266 LINE",
"668 922 LINE"
);
}
);
width = 1675;
}
);
unicode = F006;
},
{
glyphname = uniF007;
lastChange = "2012-07-06 12:25:45 +0200";
layers = (
{
layerId = "1D4A27DC-6245-4CD0-82A2-90C51343519E";
name = Regular;
paths = (
{
closed = 1;
nodes = (
"0 444 LINE SMOOTH",
"0 493 OFFCURVE",
"27 557 OFFCURVE",
"67 612 CURVE SMOOTH",
"106 667 OFFCURVE",
"156 716 OFFCURVE",
"203 729 CURVE",
"227 737 OFFCURVE",
"299 748 OFFCURVE",
"372 757 CURVE SMOOTH",
"408 762 OFFCURVE",
"443 766 OFFCURVE",
"476 770 CURVE SMOOTH",
"509 774 OFFCURVE",
"535 777 OFFCURVE",
"553 780 CURVE",
"430 859 OFFCURVE",
"356 991 OFFCURVE",
"356 1139 CURVE SMOOTH",
"356 1256 OFFCURVE",
"405 1363 OFFCURVE",
"482 1441 CURVE SMOOTH",
"558 1519 OFFCURVE",
"665 1567 OFFCURVE",
"782 1567 CURVE SMOOTH",
"899 1567 OFFCURVE",
"1007 1519 OFFCURVE",
"1085 1441 CURVE SMOOTH",
"1163 1363 OFFCURVE",
"1210 1256 OFFCURVE",
"1210 1139 CURVE SMOOTH",
"1210 994 OFFCURVE",
"1137 859 OFFCURVE",
"1014 780 CURVE",
"1032 777 OFFCURVE",
"1058 774 OFFCURVE",
"1091 770 CURVE SMOOTH",
"1158 762 OFFCURVE",
"1233 753 OFFCURVE",
"1296 743 CURVE SMOOTH",
"1359 733 OFFCURVE",
"1387 730 OFFCURVE",
"1435 687 CURVE SMOOTH",
"1482 644 OFFCURVE",
"1524 586 OFFCURVE",
"1549 526 CURVE SMOOTH",
"1561 496 OFFCURVE",
"1567 469 OFFCURVE",
"1567 444 CURVE SMOOTH",
"1567 57 LINE",
"1560 54 OFFCURVE",
"1553 50 OFFCURVE",
"1545 43 CURVE",
"1528 30 OFFCURVE",
"1507 16 OFFCURVE",
"1490 7 CURVE SMOOTH",
"1481 2 OFFCURVE",
"1474 0 OFFCURVE",
"1468 0 CURVE SMOOTH",
"98 0 LINE SMOOTH",
"75 0 OFFCURVE",
"57 7 OFFCURVE",
"45 22 CURVE SMOOTH",
"33 36 OFFCURVE",
"18 48 OFFCURVE",
"0 57 CURVE"
);
}
);
width = 1566;
}
);
unicode = F007;
},
{
glyphname = uniF008;
lastChange = "2012-07-06 12:25:45 +0200";
layers = (
{
layerId = "1D4A27DC-6245-4CD0-82A2-90C51343519E";
name = Regular;
paths = (
{
closed = 1;
nodes = (
"0 1421 LINE SMOOTH",
"0 1484 OFFCURVE",
"52 1536 OFFCURVE",
"115 1536 CURVE SMOOTH",
"1729 1536 LINE SMOOTH",
"1792 1536 OFFCURVE",
"1843 1484 OFFCURVE",
"1843 1421 CURVE SMOOTH",
"1843 115 LINE SMOOTH",
"1843 52 OFFCURVE",
"1792 0 OFFCURVE",
"1729 0 CURVE SMOOTH",
"115 0 LINE SMOOTH",
"52 0 OFFCURVE",
"0 52 OFFCURVE",
"0 115 CURVE SMOOTH"
);
},
{
closed = 1;
nodes = (
"115 154 LINE SMOOTH",
"115 133 OFFCURVE",
"131 115 OFFCURVE",
"154 115 CURVE SMOOTH",
"307 115 LINE SMOOTH",
"328 115 OFFCURVE",
"346 131 OFFCURVE",
"346 154 CURVE SMOOTH",
"346 307 LINE SMOOTH",
"346 328 OFFCURVE",
"330 346 OFFCURVE",
"307 346 CURVE SMOOTH",
"154 346 LINE SMOOTH",
"133 346 OFFCURVE",
"115 330 OFFCURVE",
"115 307 CURVE SMOOTH"
);
},
{
closed = 1;
nodes = (
"115 512 LINE SMOOTH",
"115 491 OFFCURVE",
"131 473 OFFCURVE",
"154 473 CURVE SMOOTH",
"307 473 LINE SMOOTH",
"328 473 OFFCURVE",
"346 491 OFFCURVE",
"346 512 CURVE SMOOTH",
"346 666 LINE SMOOTH",
"346 687 OFFCURVE",
"330 705 OFFCURVE",
"307 705 CURVE SMOOTH",
"154 705 LINE SMOOTH",
"133 705 OFFCURVE",
"115 687 OFFCURVE",
"115 666 CURVE SMOOTH"
);
},
{
closed = 1;
nodes = (
"115 870 LINE SMOOTH",
"115 849 OFFCURVE",
"131 831 OFFCURVE",
"154 831 CURVE SMOOTH",
"307 831 LINE SMOOTH",
"328 831 OFFCURVE",
"346 849 OFFCURVE",
"346 870 CURVE SMOOTH",
"346 1024 LINE SMOOTH",
"346 1045 OFFCURVE",
"330 1063 OFFCURVE",
"307 1063 CURVE SMOOTH",
"154 1063 LINE SMOOTH",
"133 1063 OFFCURVE",
"115 1045 OFFCURVE",
"115 1024 CURVE SMOOTH"
);
},
{
closed = 1;
nodes = (
"115 1229 LINE SMOOTH",
"115 1208 OFFCURVE",
"131 1190 OFFCURVE",
"154 1190 CURVE SMOOTH",
"307 1190 LINE SMOOTH",
"328 1190 OFFCURVE",
"346 1206 OFFCURVE",
"346 1229 CURVE SMOOTH",
"346 1382 LINE SMOOTH",
"346 1403 OFFCURVE",
"330 1421 OFFCURVE",
"307 1421 CURVE SMOOTH",
"154 1421 LINE SMOOTH",
"133 1421 OFFCURVE",
"115 1405 OFFCURVE",
"115 1382 CURVE SMOOTH"
);
},
{
closed = 1;
nodes = (
"461 154 LINE SMOOTH",
"461 133 OFFCURVE",
"477 115 OFFCURVE",
"500 115 CURVE SMOOTH",
"1343 115 LINE SMOOTH",
"1364 115 OFFCURVE",
"1382 131 OFFCURVE",
"1382 154 CURVE SMOOTH",
"1382 666 LINE SMOOTH",
"1382 687 OFFCURVE",
"1366 705 OFFCURVE",
"1343 705 CURVE SMOOTH",
"500 705 LINE SMOOTH",
"479 705 OFFCURVE",
"461 687 OFFCURVE",
"461 666 CURVE SMOOTH"
);
},
{
closed = 1;
nodes = (
"461 870 LINE SMOOTH",
"461 849 OFFCURVE",
"477 831 OFFCURVE",
"500 831 CURVE SMOOTH",
"1343 831 LINE SMOOTH",
"1364 831 OFFCURVE",
"1382 849 OFFCURVE",
"1382 870 CURVE SMOOTH",
"1382 1382 LINE SMOOTH",
"1382 1403 OFFCURVE",
"1366 1421 OFFCURVE",
"1343 1421 CURVE SMOOTH",
"500 1421 LINE SMOOTH",
"479 1421 OFFCURVE",
"461 1405 OFFCURVE",
"461 1382 CURVE SMOOTH"
);
},
{
closed = 1;
nodes = (
"1497 154 LINE SMOOTH",
"1497 133 OFFCURVE",
"1515 115 OFFCURVE",
"1536 115 CURVE SMOOTH",
"1690 115 LINE SMOOTH",
"1711 115 OFFCURVE",
"1729 131 OFFCURVE",
"1729 154 CURVE SMOOTH",
"1729 307 LINE SMOOTH",
"1729 328 OFFCURVE",
"1711 346 OFFCURVE",
"1690 346 CURVE SMOOTH",
"1536 346 LINE SMOOTH",
"1515 346 OFFCURVE",
"1497 330 OFFCURVE",
"1497 307 CURVE SMOOTH"
);
},
{
closed = 1;
nodes = (
"1497 512 LINE SMOOTH",
"1497 491 OFFCURVE",
"1515 473 OFFCURVE",
"1536 473 CURVE SMOOTH",
"1690 473 LINE SMOOTH",
"1711 473 OFFCURVE",
"1729 491 OFFCURVE",
"1729 512 CURVE SMOOTH",
"1729 666 LINE SMOOTH",
"1729 687 OFFCURVE",
"1711 705 OFFCURVE",
"1690 705 CURVE SMOOTH",
"1536 705 LINE SMOOTH",
"1515 705 OFFCURVE",
"1497 687 OFFCURVE",
"1497 666 CURVE SMOOTH"
);
},
{
closed = 1;
nodes = (
"1497 870 LINE SMOOTH",
"1497 849 OFFCURVE",
"1515 831 OFFCURVE",
"1536 831 CURVE SMOOTH",
"1690 831 LINE SMOOTH",
"1711 831 OFFCURVE",
"1729 849 OFFCURVE",
"1729 870 CURVE SMOOTH",
"1729 1024 LINE SMOOTH",
"1729 1045 OFFCURVE",
"1711 1063 OFFCURVE",
"1690 1063 CURVE SMOOTH",
"1536 1063 LINE SMOOTH",
"1515 1063 OFFCURVE",
"1497 1045 OFFCURVE",
"1497 1024 CURVE SMOOTH"
);
},
{
closed = 1;
nodes = (
"1497 1229 LINE SMOOTH",
"1497 1208 OFFCURVE",
"1515 1190 OFFCURVE",
"1536 1190 CURVE SMOOTH",
"1690 1190 LINE SMOOTH",
"1711 1190 OFFCURVE",
"1729 1206 OFFCURVE",
"1729 1229 CURVE SMOOTH",
"1729 1382 LINE SMOOTH",
"1729 1403 OFFCURVE",
"1711 1421 OFFCURVE",
"1690 1421 CURVE SMOOTH",
"1536 1421 LINE SMOOTH",
"1515 1421 OFFCURVE",
"1497 1405 OFFCURVE",
"1497 1382 CURVE SMOOTH"
);
}
);
width = 1843;
}
);
unicode = F008;
},
{
glyphname = uniF009;
lastChange = "2012-07-06 12:25:45 +0200";
layers = (
{
layerId = "1D4A27DC-6245-4CD0-82A2-90C51343519E";
name = Regular;
paths = (
{
closed = 1;
nodes = (
"0 614 LINE SMOOTH",
"0 658 OFFCURVE",
"34 692 OFFCURVE",
"78 692 CURVE SMOOTH",
"768 692 LINE SMOOTH",
"812 692 OFFCURVE",
"846 658 OFFCURVE",
"846 614 CURVE SMOOTH",
"846 78 LINE SMOOTH",
"846 34 OFFCURVE",
"812 0 OFFCURVE",
"768 0 CURVE SMOOTH",
"78 0 LINE SMOOTH",
"34 0 OFFCURVE",
"0 34 OFFCURVE",
"0 78 CURVE SMOOTH"
);
},
{
closed = 1;
nodes = (
"0 1460 LINE SMOOTH",
"0 1501 OFFCURVE",
"34 1536 OFFCURVE",
"78 1536 CURVE SMOOTH",
"768 1536 LINE SMOOTH",
"812 1536 OFFCURVE",
"846 1501 OFFCURVE",
"846 1460 CURVE SMOOTH",
"846 922 LINE SMOOTH",
"846 878 OFFCURVE",
"812 846 OFFCURVE",
"768 846 CURVE SMOOTH",
"78 846 LINE SMOOTH",
"34 846 OFFCURVE",
"0 878 OFFCURVE",
"0 922 CURVE SMOOTH"
);
},
{
closed = 1;
nodes = (
"999 614 LINE SMOOTH",
"999 658 OFFCURVE",
"1031 692 OFFCURVE",
"1075 692 CURVE SMOOTH",
"1767 692 LINE SMOOTH",
"1808 692 OFFCURVE",
"1843 658 OFFCURVE",
"1843 614 CURVE SMOOTH",
"1843 78 LINE SMOOTH",
"1843 34 OFFCURVE",
"1808 0 OFFCURVE",
"1767 0 CURVE SMOOTH",
"1075 0 LINE SMOOTH",
"1031 0 OFFCURVE",
"999 34 OFFCURVE",
"999 78 CURVE SMOOTH"
);
},
{
closed = 1;
nodes = (
"999 1460 LINE SMOOTH",
"999 1501 OFFCURVE",
"1031 1536 OFFCURVE",
"1075 1536 CURVE SMOOTH",
"1767 1536 LINE SMOOTH",
"1808 1536 OFFCURVE",
"1843 1501 OFFCURVE",
"1843 1460 CURVE SMOOTH",
"1843 922 LINE SMOOTH",
"1843 878 OFFCURVE",
"1808 846 OFFCURVE",
"1767 846 CURVE SMOOTH",
"1075 846 LINE SMOOTH",
"1031 846 OFFCURVE",
"999 878 OFFCURVE",
"999 922 CURVE SMOOTH"
);
}
);
width = 1843;
}
);
unicode = F009;
},
{
glyphname = uniF00A;
lastChange = "2012-07-06 12:25:45 +0200";
layers = (
{
layerId = "1D4A27DC-6245-4CD0-82A2-90C51343519E";
name = Regular;
paths = (
{
closed = 1;
nodes = (
"0 348 LINE SMOOTH",
"0 392 OFFCURVE",
"34 424 OFFCURVE",
"78 424 CURVE SMOOTH",
"436 424 LINE SMOOTH",
"477 424 OFFCURVE",
"512 392 OFFCURVE",
"512 348 CURVE SMOOTH",
"512 78 LINE SMOOTH",
"512 34 OFFCURVE",
"477 0 OFFCURVE",
"436 0 CURVE SMOOTH",
"78 0 LINE SMOOTH",
"34 0 OFFCURVE",
"0 34 OFFCURVE",
"0 78 CURVE SMOOTH"
);
},
{
closed = 1;
nodes = (
"0 881 LINE SMOOTH",
"0 925 OFFCURVE",
"34 956 OFFCURVE",
"78 956 CURVE SMOOTH",
"436 956 LINE SMOOTH",
"477 956 OFFCURVE",
"512 924 OFFCURVE",
"512 881 CURVE SMOOTH",
"512 655 LINE SMOOTH",
"512 611 OFFCURVE",
"477 578 OFFCURVE",
"436 578 CURVE SMOOTH",
"78 578 LINE SMOOTH",
"34 578 OFFCURVE",
"0 612 OFFCURVE",
"0 655 CURVE SMOOTH"
);
},
{
closed = 1;
nodes = (
"0 1460 LINE SMOOTH",
"0 1501 OFFCURVE",
"34 1536 OFFCURVE",
"78 1536 CURVE SMOOTH",
"436 1536 LINE SMOOTH",
"477 1536 OFFCURVE",
"512 1501 OFFCURVE",
"512 1460 CURVE SMOOTH",
"512 1188 LINE SMOOTH",
"512 1144 OFFCURVE",
"477 1110 OFFCURVE",
"436 1110 CURVE SMOOTH",
"78 1110 LINE SMOOTH",
"34 1110 OFFCURVE",
"0 1144 OFFCURVE",
"0 1188 CURVE SMOOTH"
);
},
{
closed = 1;
nodes = (
"666 348 LINE SMOOTH",
"666 392 OFFCURVE",
"700 424 OFFCURVE",
"743 424 CURVE SMOOTH",
"1102 424 LINE SMOOTH",
"1143 424 OFFCURVE",
"1178 392 OFFCURVE",
"1178 348 CURVE SMOOTH",
"1178 78 LINE SMOOTH",
"1178 34 OFFCURVE",
"1143 0 OFFCURVE",
"1102 0 CURVE SMOOTH",
"743 0 LINE SMOOTH",
"699 0 OFFCURVE",
"666 34 OFFCURVE",
"666 78 CURVE SMOOTH"
);
},
{
closed = 1;
nodes = (
"666 881 LINE SMOOTH",
"666 925 OFFCURVE",
"700 956 OFFCURVE",
"743 956 CURVE SMOOTH",
"1102 956 LINE SMOOTH",
"1143 956 OFFCURVE",
"1178 924 OFFCURVE",
"1178 881 CURVE SMOOTH",
"1178 655 LINE SMOOTH",
"1178 611 OFFCURVE",
"1143 578 OFFCURVE",
"1102 578 CURVE SMOOTH",
"743 578 LINE SMOOTH",
"699 578 OFFCURVE",
"666 612 OFFCURVE",
"666 655 CURVE SMOOTH"
);
},
{
closed = 1;
nodes = (
"666 1460 LINE SMOOTH",
"666 1501 OFFCURVE",
"700 1536 OFFCURVE",
"743 1536 CURVE SMOOTH",
"1102 1536 LINE SMOOTH",
"1143 1536 OFFCURVE",
"1178 1501 OFFCURVE",
"1178 1460 CURVE SMOOTH",
"1178 1188 LINE SMOOTH",
"1178 1144 OFFCURVE",
"1143 1110 OFFCURVE",
"1102 1110 CURVE SMOOTH",
"743 1110 LINE SMOOTH",
"699 1110 OFFCURVE",
"666 1144 OFFCURVE",
"666 1188 CURVE SMOOTH"
);
},
{
closed = 1;
nodes = (
"1331 348 LINE SMOOTH",
"1331 392 OFFCURVE",
"1365 424 OFFCURVE",
"1409 424 CURVE SMOOTH",
"1767 424 LINE SMOOTH",
"1808 424 OFFCURVE",
"1843 392 OFFCURVE",
"1843 348 CURVE SMOOTH",
"1843 78 LINE SMOOTH",
"1843 34 OFFCURVE",
"1808 0 OFFCURVE",
"1767 0 CURVE SMOOTH",
"1409 0 LINE SMOOTH",
"1365 0 OFFCURVE",
"1331 34 OFFCURVE",
"1331 78 CURVE SMOOTH"
);
},
{
closed = 1;
nodes = (
"1331 881 LINE SMOOTH",
"1331 925 OFFCURVE",
"1365 956 OFFCURVE",
"1409 956 CURVE SMOOTH",
"1767 956 LINE SMOOTH",
"1808 956 OFFCURVE",
"1843 924 OFFCURVE",
"1843 881 CURVE SMOOTH",
"1843 655 LINE SMOOTH",
"1843 611 OFFCURVE",
"1808 578 OFFCURVE",
"1767 578 CURVE SMOOTH",
"1409 578 LINE SMOOTH",
"1365 578 OFFCURVE",
"1331 612 OFFCURVE",
"1331 655 CURVE SMOOTH"
);
},
{
closed = 1;
nodes = (
"1331 1460 LINE SMOOTH",
"1331 1501 OFFCURVE",
"1365 1536 OFFCURVE",
"1409 1536 CURVE SMOOTH",
"1767 1536 LINE SMOOTH",
"1808 1536 OFFCURVE",
"1843 1501 OFFCURVE",
"1843 1460 CURVE SMOOTH",
"1843 1188 LINE SMOOTH",
"1843 1144 OFFCURVE",
"1808 1110 OFFCURVE",
"1767 1110 CURVE SMOOTH",
"1409 1110 LINE SMOOTH",
"1365 1110 OFFCURVE",
"1331 1144 OFFCURVE",
"1331 1188 CURVE SMOOTH"
);
}
);
width = 1843;
}
);
unicode = F00A;
},
{
glyphname = uniF00B;
lastChange = "2012-07-06 12:25:45 +0200";
layers = (
{
layerId = "1D4A27DC-6245-4CD0-82A2-90C51343519E";
name = Regular;
paths = (
{
closed = 1;
nodes = (
"0 348 LINE SMOOTH",
"0 392 OFFCURVE",
"34 424 OFFCURVE",
"78 424 CURVE SMOOTH",
"375 424 LINE SMOOTH",
"416 424 OFFCURVE",
"451 392 OFFCURVE",
"451 348 CURVE SMOOTH",
"451 78 LINE SMOOTH",
"451 34 OFFCURVE",
"416 0 OFFCURVE",
"375 0 CURVE SMOOTH",
"78 0 LINE SMOOTH",
"34 0 OFFCURVE",
"0 34 OFFCURVE",
"0 78 CURVE SMOOTH"
);
},
{
closed = 1;
nodes = (
"0 881 LINE SMOOTH",
"0 925 OFFCURVE",
"34 956 OFFCURVE",
"78 956 CURVE SMOOTH",
"375 956 LINE SMOOTH",
"416 956 OFFCURVE",
"451 924 OFFCURVE",
"451 881 CURVE SMOOTH",
"451 655 LINE SMOOTH",
"451 611 OFFCURVE",
"416 578 OFFCURVE",
"375 578 CURVE SMOOTH",
"78 578 LINE SMOOTH",
"34 578 OFFCURVE",
"0 612 OFFCURVE",
"0 655 CURVE SMOOTH"
);
},
{
closed = 1;
nodes = (
"0 1460 LINE SMOOTH",
"0 1501 OFFCURVE",
"34 1536 OFFCURVE",
"78 1536 CURVE SMOOTH",
"375 1536 LINE SMOOTH",
"416 1536 OFFCURVE",
"451 1501 OFFCURVE",
"451 1460 CURVE SMOOTH",
"451 1188 LINE SMOOTH",
"451 1144 OFFCURVE",
"416 1110 OFFCURVE",
"375 1110 CURVE SMOOTH",
"78 1110 LINE SMOOTH",
"34 1110 OFFCURVE",
"0 1144 OFFCURVE",
"0 1188 CURVE SMOOTH"
);
},
{
closed = 1;
nodes = (
"604 348 LINE SMOOTH",
"604 392 OFFCURVE",
"638 424 OFFCURVE",
"682 424 CURVE SMOOTH",
"1767 424 LINE SMOOTH",
"1808 424 OFFCURVE",
"1843 392 OFFCURVE",
"1843 348 CURVE SMOOTH",
"1843 78 LINE SMOOTH",
"1843 34 OFFCURVE",
"1808 0 OFFCURVE",
"1767 0 CURVE SMOOTH",
"682 0 LINE SMOOTH",
"638 0 OFFCURVE",
"604 34 OFFCURVE",
"604 78 CURVE SMOOTH"
);
},
{
closed = 1;
nodes = (
"604 881 LINE SMOOTH",
"604 925 OFFCURVE",
"638 956 OFFCURVE",
"682 956 CURVE SMOOTH",
"1767 956 LINE SMOOTH",
"1808 956 OFFCURVE",
"1843 924 OFFCURVE",
"1843 881 CURVE SMOOTH",
"1843 655 LINE SMOOTH",
"1843 611 OFFCURVE",
"1808 578 OFFCURVE",
"1767 578 CURVE SMOOTH",
"682 578 LINE SMOOTH",
"638 578 OFFCURVE",
"604 612 OFFCURVE",
"604 655 CURVE SMOOTH"
);
},
{
closed = 1;
nodes = (
"604 1460 LINE SMOOTH",
"604 1501 OFFCURVE",
"638 1536 OFFCURVE",
"682 1536 CURVE SMOOTH",
"1767 1536 LINE SMOOTH",
"1808 1536 OFFCURVE",
"1843 1501 OFFCURVE",
"1843 1460 CURVE SMOOTH",
"1843 1188 LINE SMOOTH",
"1843 1144 OFFCURVE",
"1808 1110 OFFCURVE",
"1767 1110 CURVE SMOOTH",
"682 1110 LINE SMOOTH",
"638 1110 OFFCURVE",
"604 1144 OFFCURVE",
"604 1188 CURVE SMOOTH"
);
}
);
width = 1843;
}
);
unicode = F00B;
},
{
glyphname = uniF00C;
lastChange = "2012-07-06 12:25:45 +0200";
layers = (
{
layerId = "1D4A27DC-6245-4CD0-82A2-90C51343519E";
name = Regular;
paths = (
{
closed = 1;
nodes = (
"23 676 LINE SMOOTH",
"8 691 OFFCURVE",
"0 710 OFFCURVE",
"0 733 CURVE SMOOTH",
"0 755 OFFCURVE",
"8 773 OFFCURVE",
"23 788 CURVE SMOOTH",
"197 963 LINE SMOOTH",
"228 994 OFFCURVE",
"280 992 OFFCURVE",
"309 963 CURVE SMOOTH",
"674 598 LINE SMOOTH",
"689 583 OFFCURVE",
"708 575 OFFCURVE",
"731 575 CURVE SMOOTH",
"753 575 OFFCURVE",
"771 583 OFFCURVE",
"786 598 CURVE SMOOTH",
"1532 1343 LINE SMOOTH",
"1547 1358 OFFCURVE",
"1566 1366 OFFCURVE",
"1589 1366 CURVE SMOOTH",
"1611 1366 OFFCURVE",
"1630 1358 OFFCURVE",
"1645 1343 CURVE SMOOTH",
"1819 1169 LINE SMOOTH",
"1850 1138 OFFCURVE",
"1848 1086 OFFCURVE",
"1819 1057 CURVE SMOOTH",
"909 147 LINE SMOOTH",
"878 116 OFFCURVE",
"818 92 OFFCURVE",
"774 92 CURVE SMOOTH",
"686 92 LINE SMOOTH",
"639 92 OFFCURVE",
"578 118 OFFCURVE",
"549 147 CURVE SMOOTH"
);
}
);
width = 1843;
}
);
unicode = F00C;
},
{
glyphname = uniF00D;
lastChange = "2012-07-06 12:25:45 +0200";
layers = (
{
layerId = "1D4A27DC-6245-4CD0-82A2-90C51343519E";
name = Regular;
paths = (
{
closed = 1;
nodes = (
"29 125 LINE SMOOTH",
"10 144 OFFCURVE",
"0 167 OFFCURVE",
"0 193 CURVE SMOOTH",
"0 218 OFFCURVE",
"10 241 OFFCURVE",
"29 260 CURVE SMOOTH",
"537 770 LINE",
"29 1270 LINE SMOOTH",
"10 1289 OFFCURVE",
"0 1312 OFFCURVE",
"0 1338 CURVE SMOOTH",
"0 1363 OFFCURVE",
"10 1386 OFFCURVE",
"29 1405 CURVE SMOOTH",
"129 1505 LINE SMOOTH",
"148 1524 OFFCURVE",
"171 1534 OFFCURVE",
"197 1534 CURVE SMOOTH",
"223 1534 OFFCURVE",
"245 1524 OFFCURVE",
"264 1505 CURVE SMOOTH",
"768 1001 LINE",
"1272 1505 LINE SMOOTH",
"1291 1524 OFFCURVE",
"1314 1534 OFFCURVE",
"1340 1534 CURVE SMOOTH",
"1365 1534 OFFCURVE",
"1388 1524 OFFCURVE",
"1407 1505 CURVE SMOOTH",
"1507 1405 LINE SMOOTH",
"1526 1386 OFFCURVE",
"1536 1363 OFFCURVE",
"1536 1337 CURVE SMOOTH",
"1536 1311 OFFCURVE",
"1526 1289 OFFCURVE",
"1507 1270 CURVE SMOOTH",
"999 760 LINE",
"1507 260 LINE SMOOTH",
"1526 241 OFFCURVE",
"1536 219 OFFCURVE",
"1536 194 CURVE SMOOTH",
"1536 169 OFFCURVE",
"1526 146 OFFCURVE",
"1507 127 CURVE SMOOTH",
"1407 25 LINE SMOOTH",
"1388 6 OFFCURVE",
"1365 -4 OFFCURVE",
"1339 -4 CURVE SMOOTH",
"1313 -4 OFFCURVE",
"1291 6 OFFCURVE",
"1272 25 CURVE SMOOTH",
"768 530 LINE",
"262 25 LINE SMOOTH",
"243 6 OFFCURVE",
"221 -4 OFFCURVE",
"196 -4 CURVE SMOOTH",
"171 -4 OFFCURVE",
"148 6 OFFCURVE",
"129 25 CURVE SMOOTH"
);
}
);
width = 1536;
}
);
unicode = F00D;
},
{
glyphname = uniF00E;
lastChange = "2012-07-06 12:25:45 +0200";
layers = (
{
layerId = "1D4A27DC-6245-4CD0-82A2-90C51343519E";
name = Regular;
paths = (
{
closed = 1;
nodes = (
"0 1084 OFFCURVE",
"74 1250 OFFCURVE",
"196 1371 CURVE SMOOTH",
"318 1492 OFFCURVE",
"482 1567 OFFCURVE",
"666 1567 CURVE SMOOTH",
"849 1567 OFFCURVE",
"1017 1492 OFFCURVE",
"1137 1371 CURVE SMOOTH",
"1257 1250 OFFCURVE",
"1331 1084 OFFCURVE",
"1331 901 CURVE SMOOTH",
"1331 765 OFFCURVE",
"1292 638 OFFCURVE",
"1221 535 CURVE",
"1579 176 LINE SMOOTH",
"1591 164 OFFCURVE",
"1597 149 OFFCURVE",
"1597 130 CURVE SMOOTH",
"1597 111 OFFCURVE",
"1591 95 OFFCURVE",
"1579 82 CURVE",
"1485 -12 LINE",
"1458 -36 OFFCURVE",
"1415 -37 OFFCURVE",
"1391 -12 CURVE SMOOTH",
"1032 346 LINE",
"928 275 OFFCURVE",
"802 236 OFFCURVE",
"666 236 CURVE SMOOTH",
"483 236 OFFCURVE",
"318 310 OFFCURVE",
"196 430 CURVE SMOOTH",
"74 550 OFFCURVE",
"0 716 OFFCURVE",
"0 901 CURVE SMOOTH"
);
},
{
closed = 1;
nodes = (
"266 789 OFFCURVE",
"312 690 OFFCURVE",
"384 619 CURVE SMOOTH",
"456 547 OFFCURVE",
"557 502 OFFCURVE",
"666 502 CURVE SMOOTH",
"775 502 OFFCURVE",
"877 547 OFFCURVE",
"948 619 CURVE SMOOTH",
"1019 690 OFFCURVE",
"1065 789 OFFCURVE",
"1065 901 CURVE SMOOTH",
"1065 1010 OFFCURVE",
"1019 1110 OFFCURVE",
"948 1183 CURVE SMOOTH",
"877 1255 OFFCURVE",
"775 1300 OFFCURVE",
"666 1300 CURVE SMOOTH",
"557 1300 OFFCURVE",
"456 1255 OFFCURVE",
"384 1183 CURVE SMOOTH",
"312 1110 OFFCURVE",
"266 1010 OFFCURVE",
"266 901 CURVE SMOOTH"
);
},
{
closed = 1;
nodes = (
"399 934 LINE SMOOTH",
"399 956 OFFCURVE",
"410 967 OFFCURVE",
"432 967 CURVE SMOOTH",
"600 967 LINE",
"600 1135 LINE SMOOTH",
"600 1157 OFFCURVE",
"611 1168 OFFCURVE",
"633 1167 CURVE",
"698 1167 LINE SMOOTH",
"717 1167 OFFCURVE",
"733 1154 OFFCURVE",
"733 1135 CURVE SMOOTH",
"733 967 LINE",
"899 967 LINE SMOOTH",
"921 967 OFFCURVE",
"932 956 OFFCURVE",
"932 934 CURVE SMOOTH",
"932 868 LINE SMOOTH",
"932 849 OFFCURVE",
"918 834 OFFCURVE",
"899 834 CURVE SMOOTH",
"733 834 LINE",
"733 668 LINE SMOOTH",
"733 649 OFFCURVE",
"718 635 OFFCURVE",
"698 635 CURVE SMOOTH",
"633 635 LINE SMOOTH",
"611 635 OFFCURVE",
"600 646 OFFCURVE",
"600 668 CURVE SMOOTH",
"600 834 LINE",
"432 834 LINE SMOOTH",
"413 834 OFFCURVE",
"399 849 OFFCURVE",
"399 868 CURVE SMOOTH"
);
}
);
width = 1597;
}
);
unicode = F00E;
},
{
glyphname = uniF010;
lastChange = "2012-07-06 12:25:45 +0200";
layers = (
{
layerId = "1D4A27DC-6245-4CD0-82A2-90C51343519E";
name = Regular;
paths = (
{
closed = 1;
nodes = (
"0 1084 OFFCURVE",
"74 1250 OFFCURVE",
"196 1371 CURVE SMOOTH",
"318 1492 OFFCURVE",
"482 1567 OFFCURVE",
"666 1567 CURVE SMOOTH",
"849 1567 OFFCURVE",
"1017 1492 OFFCURVE",
"1137 1371 CURVE SMOOTH",
"1257 1250 OFFCURVE",
"1331 1084 OFFCURVE",
"1331 901 CURVE SMOOTH",
"1331 765 OFFCURVE",
"1292 638 OFFCURVE",
"1221 535 CURVE",
"1579 176 LINE SMOOTH",
"1591 164 OFFCURVE",
"1597 149 OFFCURVE",
"1597 130 CURVE SMOOTH",
"1597 111 OFFCURVE",
"1591 95 OFFCURVE",
"1579 82 CURVE",
"1485 -12 LINE",
"1458 -36 OFFCURVE",
"1415 -37 OFFCURVE",
"1391 -12 CURVE SMOOTH",
"1032 346 LINE",
"928 275 OFFCURVE",
"802 236 OFFCURVE",
"666 236 CURVE SMOOTH",
"483 236 OFFCURVE",
"318 310 OFFCURVE",
"196 430 CURVE SMOOTH",
"74 550 OFFCURVE",
"0 716 OFFCURVE",
"0 901 CURVE SMOOTH"
);
},
{
closed = 1;
nodes = (
"266 789 OFFCURVE",
"312 690 OFFCURVE",
"384 619 CURVE SMOOTH",
"456 547 OFFCURVE",
"557 502 OFFCURVE",
"666 502 CURVE SMOOTH",
"775 502 OFFCURVE",
"877 547 OFFCURVE",
"948 619 CURVE SMOOTH",
"1019 690 OFFCURVE",
"1065 789 OFFCURVE",
"1065 901 CURVE SMOOTH",
"1065 1010 OFFCURVE",
"1019 1110 OFFCURVE",
"948 1183 CURVE SMOOTH",
"877 1255 OFFCURVE",
"775 1300 OFFCURVE",
"666 1300 CURVE SMOOTH",
"557 1300 OFFCURVE",
"456 1255 OFFCURVE",
"384 1183 CURVE SMOOTH",
"312 1110 OFFCURVE",
"266 1010 OFFCURVE",
"266 901 CURVE SMOOTH"
);
},
{
closed = 1;
nodes = (
"399 934 LINE SMOOTH",
"399 956 OFFCURVE",
"410 967 OFFCURVE",
"432 967 CURVE SMOOTH",
"899 967 LINE SMOOTH",
"921 967 OFFCURVE",
"932 956 OFFCURVE",
"932 934 CURVE SMOOTH",
"932 868 LINE SMOOTH",
"932 849 OFFCURVE",
"918 834 OFFCURVE",
"899 834 CURVE SMOOTH",
"432 834 LINE SMOOTH",
"413 834 OFFCURVE",
"399 849 OFFCURVE",
"399 868 CURVE SMOOTH"
);
}
);
width = 1597;
}
);
unicode = F010;
},
{
glyphname = uniF011;
lastChange = "2012-07-06 12:25:45 +0200";
layers = (
{
layerId = "1D4A27DC-6245-4CD0-82A2-90C51343519E";
name = Regular;
paths = (
{
closed = 1;
nodes = (
"0 961 OFFCURVE",
"121 1190 OFFCURVE",
"326 1329 CURVE",
"342 1342 OFFCURVE",
"370 1335 OFFCURVE",
"379 1319 CURVE",
"469 1188 LINE",
"482 1172 OFFCURVE",
"475 1148 OFFCURVE",
"459 1135 CURVE",
"318 1039 OFFCURVE",
"236 885 OFFCURVE",
"236 713 CURVE SMOOTH",
"236 574 OFFCURVE",
"292 445 OFFCURVE",
"384 354 CURVE SMOOTH",
"476 262 OFFCURVE",
"604 205 OFFCURVE",
"743 205 CURVE SMOOTH",
"882 205 OFFCURVE",
"1011 262 OFFCURVE",
"1104 354 CURVE SMOOTH",
"1197 445 OFFCURVE",
"1253 573 OFFCURVE",
"1253 713 CURVE SMOOTH",
"1253 885 OFFCURVE",
"1170 1039 OFFCURVE",
"1030 1135 CURVE SMOOTH",
"1011 1148 OFFCURVE",
"1007 1171 OFFCURVE",
"1020 1188 CURVE",
"1108 1319 LINE",
"1121 1335 OFFCURVE",
"1144 1340 OFFCURVE",
"1163 1329 CURVE",
"1368 1190 OFFCURVE",
"1489 961 OFFCURVE",
"1489 713 CURVE SMOOTH",
"1489 508 OFFCURVE",
"1406 323 OFFCURVE",
"1271 188 CURVE SMOOTH",
"1135 52 OFFCURVE",
"948 -31 OFFCURVE",
"743 -31 CURVE SMOOTH",
"538 -31 OFFCURVE",
"353 52 OFFCURVE",
"218 188 CURVE SMOOTH",
"83 323 OFFCURVE",
"0 508 OFFCURVE",
"0 713 CURVE SMOOTH"
);
},
{
closed = 1;
nodes = (
"627 1497 LINE SMOOTH",
"627 1518 OFFCURVE",
"643 1536 OFFCURVE",
"666 1536 CURVE SMOOTH",
"823 1536 LINE SMOOTH",
"844 1536 OFFCURVE",
"862 1518 OFFCURVE",
"862 1497 CURVE SMOOTH",
"862 793 LINE SMOOTH",
"862 772 OFFCURVE",
"846 754 OFFCURVE",
"823 754 CURVE SMOOTH",
"666 754 LINE SMOOTH",
"645 754 OFFCURVE",
"627 770 OFFCURVE",
"627 793 CURVE SMOOTH"
);
}
);
width = 1488;
}
);
unicode = F011;
},
{
glyphname = uniF012;
lastChange = "2012-07-06 12:25:45 +0200";
layers = (
{
layerId = "1D4A27DC-6245-4CD0-82A2-90C51343519E";
name = Regular;
paths = (
{
closed = 1;
nodes = (
"0 299 LINE SMOOTH",
"0 320 OFFCURVE",
"18 338 OFFCURVE",
"39 338 CURVE SMOOTH",
"231 338 LINE SMOOTH",
"252 338 OFFCURVE",
"268 320 OFFCURVE",
"268 299 CURVE SMOOTH",
"268 39 LINE SMOOTH",
"268 18 OFFCURVE",
"254 0 OFFCURVE",
"231 0 CURVE SMOOTH",
"39 0 LINE SMOOTH",
"13 0 OFFCURVE",
"0 13 OFFCURVE",
"0 39 CURVE SMOOTH"
);
},
{
closed = 1;
nodes = (
"393 473 LINE SMOOTH",
"393 494 OFFCURVE",
"411 512 OFFCURVE",
"432 512 CURVE SMOOTH",
"625 512 LINE SMOOTH",
"646 512 OFFCURVE",
"662 494 OFFCURVE",
"662 473 CURVE SMOOTH",
"662 39 LINE SMOOTH",
"662 18 OFFCURVE",
"646 0 OFFCURVE",
"625 0 CURVE SMOOTH",
"432 0 LINE SMOOTH",
"411 0 OFFCURVE",
"393 18 OFFCURVE",
"393 39 CURVE SMOOTH"
);
},
{
closed = 1;
nodes = (
"786 715 LINE SMOOTH",
"786 736 OFFCURVE",
"804 754 OFFCURVE",
"825 754 CURVE SMOOTH",
"1018 754 LINE SMOOTH",
"1039 754 OFFCURVE",
"1057 736 OFFCURVE",
"1057 715 CURVE SMOOTH",
"1057 39 LINE SMOOTH",
"1057 18 OFFCURVE",
"1039 0 OFFCURVE",
"1018 0 CURVE SMOOTH",
"825 0 LINE SMOOTH",
"804 0 OFFCURVE",
"786 18 OFFCURVE",
"786 39 CURVE SMOOTH"
);
},
{
closed = 1;
nodes = (
"1182 1034 LINE SMOOTH",
"1182 1055 OFFCURVE",
"1196 1073 OFFCURVE",
"1219 1073 CURVE SMOOTH",
"1411 1073 LINE SMOOTH",
"1432 1073 OFFCURVE",
"1450 1057 OFFCURVE",
"1450 1034 CURVE SMOOTH",
"1450 39 LINE SMOOTH",
"1450 18 OFFCURVE",
"1432 0 OFFCURVE",
"1411 0 CURVE SMOOTH",
"1219 0 LINE SMOOTH",
"1198 0 OFFCURVE",
"1182 18 OFFCURVE",
"1182 39 CURVE SMOOTH"
);
},
{
closed = 1;
nodes = (
"1575 1497 LINE SMOOTH",
"1575 1523 OFFCURVE",
"1588 1536 OFFCURVE",
"1614 1536 CURVE SMOOTH",
"1804 1536 LINE SMOOTH",
"1830 1536 OFFCURVE",
"1843 1523 OFFCURVE",
"1843 1497 CURVE SMOOTH",
"1843 39 LINE SMOOTH",
"1843 13 OFFCURVE",
"1830 0 OFFCURVE",
"1804 0 CURVE SMOOTH",
"1614 0 LINE SMOOTH",
"1588 0 OFFCURVE",
"1575 13 OFFCURVE",
"1575 39 CURVE SMOOTH"
);
}
);
width = 1843;
}
);
unicode = F012;
},
{
glyphname = uniF013;
lastChange = "2012-07-06 12:25:45 +0200";
layers = (
{
layerId = "1D4A27DC-6245-4CD0-82A2-90C51343519E";
name = Regular;
paths = (
{
closed = 1;
nodes = (
"0 887 LINE SMOOTH",
"0 895 OFFCURVE",
"10 902 OFFCURVE",
"31 909 CURVE SMOOTH",
"71 921 OFFCURVE",
"125 929 OFFCURVE",
"173 933 CURVE SMOOTH",
"197 935 OFFCURVE",
"213 937 OFFCURVE",
"221 938 CURVE",
"233 979 OFFCURVE",
"249 1018 OFFCURVE",
"270 1055 CURVE",
"233 1110 OFFCURVE",
"193 1162 OFFCURVE",
"150 1212 CURVE",
"143 1227 LINE",
"143 1232 OFFCURVE",
"152 1245 OFFCURVE",
"171 1266 CURVE SMOOTH",
"208 1306 OFFCURVE",
"257 1357 OFFCURVE",
"300 1394 CURVE SMOOTH",
"321 1412 OFFCURVE",
"335 1421 OFFCURVE",
"340 1421 CURVE SMOOTH",
"341 1421 OFFCURVE",
"350 1415 OFFCURVE",
"367 1403 CURVE",
"383 1390 OFFCURVE",
"401 1377 OFFCURVE",
"421 1362 CURVE SMOOTH",
"441 1347 OFFCURVE",
"460 1332 OFFCURVE",
"478 1319 CURVE",
"495 1305 OFFCURVE",
"506 1297 OFFCURVE",
"510 1294 CURVE",
"549 1315 OFFCURVE",
"588 1328 OFFCURVE",
"629 1341 CURVE",
"629 1357 OFFCURVE",
"633 1414 OFFCURVE",
"641 1465 CURVE SMOOTH",
"645 1490 OFFCURVE",
"650 1513 OFFCURVE",
"657 1534 CURVE",
"663 1555 OFFCURVE",
"670 1565 OFFCURVE",
"678 1565 CURVE SMOOTH",
"915 1565 LINE SMOOTH",
"924 1565 OFFCURVE",
"931 1560 OFFCURVE",
"934 1550 CURVE",
"942 1517 OFFCURVE",
"948 1483 OFFCURVE",
"951 1447 CURVE SMOOTH",
"954 1411 OFFCURVE",
"959 1376 OFFCURVE",
"965 1341 CURVE",
"1006 1330 OFFCURVE",
"1044 1317 OFFCURVE",
"1081 1294 CURVE",
"1086 1298 OFFCURVE",
"1098 1307 OFFCURVE",
"1115 1321 CURVE SMOOTH",
"1150 1348 OFFCURVE",
"1192 1380 OFFCURVE",
"1224 1404 CURVE SMOOTH",
"1239 1415 OFFCURVE",
"1249 1421 OFFCURVE",
"1253 1421 CURVE SMOOTH",
"1257 1421 OFFCURVE",
"1269 1412 OFFCURVE",
"1290 1394 CURVE SMOOTH",
"1331 1357 OFFCURVE",
"1380 1306 OFFCURVE",
"1417 1266 CURVE",
"1435 1245 OFFCURVE",
"1444 1232 OFFCURVE",
"1444 1227 CURVE SMOOTH",
"1444 1224 OFFCURVE",
"1438 1215 OFFCURVE",
"1427 1199 CURVE SMOOTH",
"1403 1166 OFFCURVE",
"1373 1125 OFFCURVE",
"1346 1090 CURVE SMOOTH",
"1332 1072 OFFCURVE",
"1324 1061 OFFCURVE",
"1321 1057 CURVE",
"1343 1020 OFFCURVE",
"1360 979 OFFCURVE",
"1372 934 CURVE",
"1405 927 OFFCURVE",
"1439 923 OFFCURVE",
"1476 921 CURVE SMOOTH",
"1512 919 OFFCURVE",
"1546 912 OFFCURVE",
"1577 901 CURVE",
"1588 898 OFFCURVE",
"1593 892 OFFCURVE",
"1593 883 CURVE SMOOTH",
"1593 647 LINE SMOOTH",
"1593 639 OFFCURVE",
"1583 632 OFFCURVE",
"1564 626 CURVE SMOOTH",
"1524 613 OFFCURVE",
"1468 605 OFFCURVE",
"1419 601 CURVE SMOOTH",
"1394 599 OFFCURVE",
"1378 597 OFFCURVE",
"1370 596 CURVE",
"1361 558 OFFCURVE",
"1345 519 OFFCURVE",
"1323 479 CURVE",
"1360 424 OFFCURVE",
"1400 372 OFFCURVE",
"1444 322 CURVE",
"1450 307 LINE",
"1450 302 OFFCURVE",
"1441 289 OFFCURVE",
"1423 269 CURVE SMOOTH",
"1386 228 OFFCURVE",
"1336 177 OFFCURVE",
"1294 141 CURVE SMOOTH",
"1273 122 OFFCURVE",
"1259 113 OFFCURVE",
"1253 113 CURVE SMOOTH",
"1252 113 OFFCURVE",
"1243 119 OFFCURVE",
"1227 132 CURVE",
"1194 156 OFFCURVE",
"1152 188 OFFCURVE",
"1117 216 CURVE",
"1099 229 OFFCURVE",
"1088 237 OFFCURVE",
"1083 240 CURVE",
"1044 219 OFFCURVE",
"1005 204 OFFCURVE",
"965 193 CURVE",
"964 185 OFFCURVE",
"962 169 OFFCURVE",
"960 144 CURVE SMOOTH",
"955 94 OFFCURVE",
"947 39 OFFCURVE",
"936 -2 CURVE SMOOTH",
"931 -23 OFFCURVE",
"924 -33 OFFCURVE",
"915 -33 CURVE SMOOTH",
"678 -33 LINE SMOOTH",
"669 -33 OFFCURVE",
"662 -27 OFFCURVE",
"659 -16 CURVE SMOOTH",
"650 17 OFFCURVE",
"643 51 OFFCURVE",
"640 87 CURVE SMOOTH",
"637 123 OFFCURVE",
"633 157 OFFCURVE",
"629 190 CURVE",
"588 202 OFFCURVE",
"549 219 OFFCURVE",
"512 240 CURVE",
"485 219 OFFCURVE",
"458 199 OFFCURVE",
"431 180 CURVE SMOOTH",
"404 160 OFFCURVE",
"378 139 OFFCURVE",
"352 117 CURVE",
"340 113 LINE",
"336 113 OFFCURVE",
"324 122 OFFCURVE",
"303 141 CURVE SMOOTH",
"262 177 OFFCURVE",
"214 228 OFFCURVE",
"178 269 CURVE",
"159 289 OFFCURVE",
"150 302 OFFCURVE",
"150 307 CURVE SMOOTH",
"150 308 OFFCURVE",
"155 317 OFFCURVE",
"166 334 CURVE SMOOTH",
"187 366 OFFCURVE",
"218 407 OFFCURVE",
"246 443 CURVE SMOOTH",
"259 460 OFFCURVE",
"268 472 OFFCURVE",
"272 477 CURVE",
"250 514 OFFCURVE",
"233 555 OFFCURVE",
"221 600 CURVE",
"187 607 OFFCURVE",
"152 611 OFFCURVE",
"117 613 CURVE SMOOTH",
"81 615 OFFCURVE",
"47 622 OFFCURVE",
"16 633 CURVE",
"5 636 OFFCURVE",
"0 642 OFFCURVE",
"0 651 CURVE SMOOTH"
);
},
{
closed = 1;
nodes = (
"557 703 OFFCURVE",
"583 642 OFFCURVE",
"627 598 CURVE SMOOTH",
"670 554 OFFCURVE",
"732 526 OFFCURVE",
"797 526 CURVE SMOOTH",
"862 526 OFFCURVE",
"924 554 OFFCURVE",
"966 598 CURVE SMOOTH",
"1008 642 OFFCURVE",
"1036 703 OFFCURVE",
"1036 768 CURVE SMOOTH",
"1036 833 OFFCURVE",
"1008 892 OFFCURVE",
"966 936 CURVE SMOOTH",
"924 980 OFFCURVE",
"862 1006 OFFCURVE",
"797 1006 CURVE SMOOTH",
"732 1006 OFFCURVE",
"670 980 OFFCURVE",
"627 936 CURVE SMOOTH",
"583 892 OFFCURVE",
"557 833 OFFCURVE",
"557 768 CURVE SMOOTH"
);
}
);
width = 1593;
}
);
unicode = F013;
},
{
glyphname = uniF014;
lastChange = "2012-07-06 12:25:45 +0200";
layers = (
{
layerId = "1D4A27DC-6245-4CD0-82A2-90C51343519E";
name = Regular;
paths = (
{
closed = 1;
nodes = (
"1 1152 OFFCURVE",
"0 1163 OFFCURVE",
"0 1176 CURVE SMOOTH",
"0 1188 OFFCURVE",
"0 1199 OFFCURVE",
"0 1210 CURVE SMOOTH",
"0 1222 OFFCURVE",
"0 1234 OFFCURVE",
"0 1246 CURVE SMOOTH",
"0 1258 OFFCURVE",
"1 1270 OFFCURVE",
"2 1282 CURVE",
"35 1301 OFFCURVE",
"102 1313 OFFCURVE",
"171 1321 CURVE SMOOTH",
"206 1325 OFFCURVE",
"240 1328 OFFCURVE",
"274 1330 CURVE SMOOTH",
"307 1332 OFFCURVE",
"333 1334 OFFCURVE",
"352 1335 CURVE",
"341 1444 OFFCURVE",
"370 1502 OFFCURVE",
"423 1532 CURVE SMOOTH",
"476 1562 OFFCURVE",
"556 1567 OFFCURVE",
"653 1567 CURVE SMOOTH",
"726 1567 OFFCURVE",
"803 1567 OFFCURVE",
"860 1544 CURVE SMOOTH",
"917 1520 OFFCURVE",
"954 1475 OFFCURVE",
"954 1384 CURVE SMOOTH",
"954 1376 OFFCURVE",
"954 1368 OFFCURVE",
"954 1360 CURVE SMOOTH",
"954 1352 OFFCURVE",
"953 1344 OFFCURVE",
"952 1335 CURVE",
"971 1334 OFFCURVE",
"998 1332 OFFCURVE",
"1031 1330 CURVE SMOOTH",
"1098 1326 OFFCURVE",
"1170 1318 OFFCURVE",
"1233 1306 CURVE SMOOTH",
"1264 1299 OFFCURVE",
"1288 1291 OFFCURVE",
"1305 1282 CURVE",
"1305 1210 LINE",
"1305 1141 LINE",
"1256 1114 OFFCURVE",
"1129 1098 OFFCURVE",
"997 1090 CURVE SMOOTH",
"864 1081 OFFCURVE",
"728 1081 OFFCURVE",
"653 1081 CURVE SMOOTH",
"580 1081 OFFCURVE",
"441 1081 OFFCURVE",
"309 1090 CURVE SMOOTH",
"176 1098 OFFCURVE",
"51 1113 OFFCURVE",
"2 1141 CURVE"
);
},
{
closed = 1;
nodes = (
"133 991 LINE",
"297 970 OFFCURVE",
"457 965 OFFCURVE",
"621 965 CURVE SMOOTH",
"653 965 LINE SMOOTH",
"825 968 OFFCURVE",
"997 970 OFFCURVE",
"1169 991 CURVE",
"1169 154 LINE SMOOTH",
"1169 70 OFFCURVE",
"1102 0 OFFCURVE",
"1018 0 CURVE SMOOTH",
"287 0 LINE SMOOTH",
"203 0 OFFCURVE",
"133 69 OFFCURVE",
"133 154 CURVE SMOOTH"
);
},
{
closed = 1;
nodes = (
"303 199 LINE SMOOTH",
"303 178 OFFCURVE",
"319 162 OFFCURVE",
"340 162 CURVE SMOOTH",
"379 162 LINE SMOOTH",
"400 162 OFFCURVE",
"418 176 OFFCURVE",
"418 199 CURVE SMOOTH",
"418 813 LINE SMOOTH",
"418 834 OFFCURVE",
"400 852 OFFCURVE",
"379 852 CURVE SMOOTH",
"340 852 LINE SMOOTH",
"319 852 OFFCURVE",
"303 834 OFFCURVE",
"303 813 CURVE SMOOTH"
);
},
{
closed = 1;
nodes = (
"504 1384 LINE SMOOTH",
"504 1371 OFFCURVE",
"505 1354 OFFCURVE",
"508 1339 CURVE",
"604 1340 OFFCURVE",
"701 1340 OFFCURVE",
"799 1339 CURVE",
"799 1347 OFFCURVE",
"800 1355 OFFCURVE",
"801 1363 CURVE SMOOTH",
"802 1370 OFFCURVE",
"802 1377 OFFCURVE",
"801 1384 CURVE",
"801 1399 LINE",
"754 1412 OFFCURVE",
"700 1411 OFFCURVE",
"653 1411 CURVE SMOOTH",
"604 1411 OFFCURVE",
"551 1412 OFFCURVE",
"504 1399 CURVE"
);
},
{
closed = 1;
nodes = (
"596 199 LINE SMOOTH",
"596 178 OFFCURVE",
"610 162 OFFCURVE",
"633 162 CURVE SMOOTH",
"672 162 LINE SMOOTH",
"693 162 OFFCURVE",
"711 176 OFFCURVE",
"711 199 CURVE SMOOTH",
"711 813 LINE SMOOTH",
"711 834 OFFCURVE",
"693 852 OFFCURVE",
"672 852 CURVE SMOOTH",
"633 852 LINE SMOOTH",
"612 852 OFFCURVE",
"596 834 OFFCURVE",
"596 813 CURVE SMOOTH"
);
},
{
closed = 1;
nodes = (
"887 199 LINE SMOOTH",
"887 178 OFFCURVE",
"903 162 OFFCURVE",
"926 162 CURVE SMOOTH",
"965 162 LINE SMOOTH",
"986 162 OFFCURVE",
"1004 176 OFFCURVE",
"1004 199 CURVE SMOOTH",
"1004 813 LINE SMOOTH",
"1004 834 OFFCURVE",
"986 852 OFFCURVE",
"965 852 CURVE SMOOTH",
"926 852 LINE SMOOTH",
"905 852 OFFCURVE",
"887 834 OFFCURVE",
"887 813 CURVE SMOOTH"
);
}
);
width = 1304;
}
);
unicode = F014;
},
{
glyphname = uniF015;
lastChange = "2012-07-06 12:25:45 +0200";
layers = (
{
layerId = "1D4A27DC-6245-4CD0-82A2-90C51343519E";
name = Regular;
paths = (
{
closed = 1;
nodes = (
"8 782 LINE SMOOTH",
"-5 798 OFFCURVE",
"-2 821 OFFCURVE",
"14 836 CURVE",
"881 1546 LINE",
"917 1573 OFFCURVE",
"964 1574 OFFCURVE",
"999 1546 CURVE SMOOTH",
"1239 1350 LINE",
"1239 1452 LINE SMOOTH",
"1239 1473 OFFCURVE",
"1257 1491 OFFCURVE",
"1278 1491 CURVE SMOOTH",
"1501 1491 LINE SMOOTH",
"1522 1491 OFFCURVE",
"1538 1473 OFFCURVE",
"1538 1452 CURVE SMOOTH",
"1538 1104 LINE",
"1866 836 LINE SMOOTH",
"1882 823 OFFCURVE",
"1885 799 OFFCURVE",
"1872 782 CURVE",
"1827 729 LINE",
"1820 720 OFFCURVE",
"1811 715 OFFCURVE",
"1798 715 CURVE SMOOTH",
"1733 715 LINE SMOOTH",
"1722 715 OFFCURVE",
"1714 718 OFFCURVE",
"1708 723 CURVE SMOOTH",
"965 1331 LINE SMOOTH",
"948 1344 OFFCURVE",
"932 1344 OFFCURVE",
"915 1331 CURVE SMOOTH",
"172 723 LINE",
"167 718 OFFCURVE",
"158 715 OFFCURVE",
"147 715 CURVE SMOOTH",
"82 715 LINE SMOOTH",
"70 715 OFFCURVE",
"60 720 OFFCURVE",
"53 729 CURVE"
);
},
{
closed = 1;
nodes = (
"266 698 LINE",
"940 1251 LINE",
"1614 698 LINE",
"1614 76 LINE SMOOTH",
"1614 32 OFFCURVE",
"1582 0 OFFCURVE",
"1538 0 CURVE SMOOTH",
"1116 0 LINE",
"1116 498 LINE",
"764 498 LINE",
"764 0 LINE",
"342 0 LINE SMOOTH",
"298 0 OFFCURVE",
"266 32 OFFCURVE",
"266 76 CURVE SMOOTH"
);
}
);
width = 1880;
}
);
unicode = F015;
},
{
glyphname = uniF016;
lastChange = "2012-07-06 12:25:45 +0200";
layers = (
{
layerId = "1D4A27DC-6245-4CD0-82A2-90C51343519E";
name = Regular;
paths = (
{
closed = 1;
nodes = (
"0 1460 LINE SMOOTH",
"0 1501 OFFCURVE",
"34 1536 OFFCURVE",
"78 1536 CURVE SMOOTH",
"692 1536 LINE SMOOTH",
"736 1536 OFFCURVE",
"794 1510 OFFCURVE",
"823 1481 CURVE SMOOTH",
"1174 1130 LINE SMOOTH",
"1205 1099 OFFCURVE",
"1229 1043 OFFCURVE",
"1229 999 CURVE SMOOTH",
"1229 78 LINE SMOOTH",
"1229 34 OFFCURVE",
"1194 0 OFFCURVE",
"1153 0 CURVE SMOOTH",
"78 0 LINE SMOOTH",
"34 0 OFFCURVE",
"0 34 OFFCURVE",
"0 78 CURVE SMOOTH"
);
},
{
closed = 1;
nodes = (
"154 154 LINE",
"1075 154 LINE",
"1075 846 LINE",
"616 846 LINE SMOOTH",
"575 846 OFFCURVE",
"541 880 OFFCURVE",
"541 924 CURVE SMOOTH",
"541 1382 LINE",
"154 1382 LINE"
);
},
{
closed = 1;
nodes = (
"268 326 LINE",
"268 442 LINE",
"961 442 LINE",
"961 326 LINE"
);
},
{
closed = 1;
nodes = (
"268 596 LINE",
"268 711 LINE",
"961 711 LINE",
"961 596 LINE"
);
},
{
closed = 1;
nodes = (
"694 999 LINE",
"1075 999 LINE",
"1075 1004 OFFCURVE",
"1068 1021 OFFCURVE",
"1065 1024 CURVE SMOOTH",
"715 1372 LINE",
"714 1375 OFFCURVE",
"711 1377 OFFCURVE",
"706 1378 CURVE SMOOTH",
"701 1379 OFFCURVE",
"697 1381 OFFCURVE",
"694 1382 CURVE"
);
}
);
width = 1228;
}
);
unicode = F016;
},
{
glyphname = uniF017;
lastChange = "2012-07-06 12:25:45 +0200";
layers = (
{
layerId = "1D4A27DC-6245-4CD0-82A2-90C51343519E";
name = Regular;
paths = (
{
closed = 1;
nodes = (
"0 989 OFFCURVE",
"89 1189 OFFCURVE",
"234 1334 CURVE SMOOTH",
"378 1478 OFFCURVE",
"578 1567 OFFCURVE",
"799 1567 CURVE SMOOTH",
"1020 1567 OFFCURVE",
"1219 1478 OFFCURVE",
"1364 1334 CURVE SMOOTH",
"1509 1189 OFFCURVE",
"1597 989 OFFCURVE",
"1597 768 CURVE SMOOTH",
"1597 547 OFFCURVE",
"1509 347 OFFCURVE",
"1364 203 CURVE SMOOTH",
"1219 58 OFFCURVE",
"1020 -31 OFFCURVE",
"799 -31 CURVE SMOOTH",
"578 -31 OFFCURVE",
"378 58 OFFCURVE",
"234 203 CURVE SMOOTH",
"89 347 OFFCURVE",
"0 547 OFFCURVE",
"0 768 CURVE SMOOTH"
);
},
{
closed = 1;
nodes = (
"240 612 OFFCURVE",
"303 474 OFFCURVE",
"404 373 CURVE SMOOTH",
"504 272 OFFCURVE",
"643 209 OFFCURVE",
"799 209 CURVE SMOOTH",
"955 209 OFFCURVE",
"1093 272 OFFCURVE",
"1194 373 CURVE SMOOTH",
"1295 474 OFFCURVE",
"1358 612 OFFCURVE",
"1358 768 CURVE SMOOTH",
"1358 924 OFFCURVE",
"1295 1062 OFFCURVE",
"1194 1163 CURVE SMOOTH",
"1093 1264 OFFCURVE",
"954 1327 OFFCURVE",
"799 1327 CURVE SMOOTH",
"643 1327 OFFCURVE",
"504 1264 OFFCURVE",
"404 1163 CURVE SMOOTH",
"303 1062 OFFCURVE",
"240 924 OFFCURVE",
"240 768 CURVE SMOOTH"
);
},
{
closed = 1;
nodes = (
"635 1073 LINE SMOOTH",
"635 1117 OFFCURVE",
"671 1153 OFFCURVE",
"715 1153 CURVE SMOOTH",
"795 1153 LINE SMOOTH",
"842 1153 OFFCURVE",
"874 1117 OFFCURVE",
"874 1073 CURVE SMOOTH",
"874 768 LINE",
"1075 768 LINE SMOOTH",
"1119 768 OFFCURVE",
"1155 732 OFFCURVE",
"1155 688 CURVE SMOOTH",
"1155 608 LINE SMOOTH",
"1155 564 OFFCURVE",
"1119 528 OFFCURVE",
"1075 528 CURVE SMOOTH",
"715 528 LINE SMOOTH",
"671 528 OFFCURVE",
"635 564 OFFCURVE",
"635 608 CURVE SMOOTH"
);
}
);
width = 1597;
}
);
unicode = F017;
},
{
glyphname = uniF018;
lastChange = "2012-07-06 12:25:45 +0200";
layers = (
{
layerId = "1D4A27DC-6245-4CD0-82A2-90C51343519E";
name = Regular;
paths = (
{
closed = 1;
nodes = (
"596 1501 LINE SMOOTH",
"604 1520 OFFCURVE",
"628 1536 OFFCURVE",
"649 1536 CURVE SMOOTH",
"844 1536 LINE",
"836 1366 LINE",
"1008 1366 LINE",
"999 1536 LINE",
"1194 1536 LINE SMOOTH",
"1215 1536 OFFCURVE",
"1239 1521 OFFCURVE",
"1247 1501 CURVE SMOOTH",
"1841 35 LINE SMOOTH",
"1849 16 OFFCURVE",
"1838 0 OFFCURVE",
"1817 0 CURVE SMOOTH",
"1077 0 LINE",
"1051 512 LINE",
"793 512 LINE",
"766 0 LINE",
"27 0 LINE SMOOTH",
"6 0 OFFCURVE",
"-6 15 OFFCURVE",
"2 35 CURVE SMOOTH"
);
},
{
closed = 1;
nodes = (
"807 797 LINE",
"1036 797 LINE",
"1016 1210 LINE",
"827 1210 LINE"
);
}
);
width = 1843;
}
);
unicode = F018;
},
{
glyphname = uniF019;
lastChange = "2012-07-06 12:25:45 +0200";
layers = (
{
layerId = "1D4A27DC-6245-4CD0-82A2-90C51343519E";
name = Regular;
paths = (
{
closed = 1;
nodes = (
"0 653 LINE SMOOTH",
"0 674 OFFCURVE",
"18 692 OFFCURVE",
"39 692 CURVE SMOOTH",
"268 692 LINE SMOOTH",
"289 692 OFFCURVE",
"307 676 OFFCURVE",
"307 653 CURVE SMOOTH",
"307 307 LINE",
"1536 307 LINE",
"1536 653 LINE SMOOTH",
"1536 674 OFFCURVE",
"1554 692 OFFCURVE",
"1575 692 CURVE SMOOTH",
"1804 692 LINE SMOOTH",
"1825 692 OFFCURVE",
"1843 676 OFFCURVE",
"1843 653 CURVE SMOOTH",
"1843 39 LINE SMOOTH",
"1843 13 OFFCURVE",
"1830 0 OFFCURVE",
"1804 0 CURVE SMOOTH",
"39 0 LINE SMOOTH",
"13 0 OFFCURVE",
"0 13 OFFCURVE",
"0 39 CURVE SMOOTH"
);
},
{
closed = 1;
nodes = (
"362 905 LINE SMOOTH",
"331 936 OFFCURVE",
"341 961 OFFCURVE",
"385 961 CURVE SMOOTH",
"692 961 LINE",
"692 1460 LINE SMOOTH",
"692 1501 OFFCURVE",
"724 1536 OFFCURVE",
"768 1536 CURVE SMOOTH",
"1075 1536 LINE SMOOTH",
"1119 1536 OFFCURVE",
"1153 1501 OFFCURVE",
"1153 1460 CURVE SMOOTH",
"1153 961 LINE",
"1460 961 LINE SMOOTH",
"1501 961 OFFCURVE",
"1510 936 OFFCURVE",
"1481 905 CURVE SMOOTH",
"977 399 LINE SMOOTH",
"946 368 OFFCURVE",
"897 370 OFFCURVE",
"866 399 CURVE"
);
}
);
width = 1843;
}
);
unicode = F019;
},
{
glyphname = uniF01A;
lastChange = "2012-07-06 12:25:45 +0200";
layers = (
{
layerId = "1D4A27DC-6245-4CD0-82A2-90C51343519E";
name = Regular;
paths = (
{
closed = 1;
nodes = (
"0 989 OFFCURVE",
"89 1189 OFFCURVE",
"234 1334 CURVE SMOOTH",
"378 1478 OFFCURVE",
"578 1567 OFFCURVE",
"799 1567 CURVE SMOOTH",
"1020 1567 OFFCURVE",
"1219 1478 OFFCURVE",
"1364 1334 CURVE SMOOTH",
"1509 1189 OFFCURVE",
"1597 989 OFFCURVE",
"1597 768 CURVE SMOOTH",
"1597 547 OFFCURVE",
"1509 347 OFFCURVE",
"1364 203 CURVE SMOOTH",
"1219 58 OFFCURVE",
"1020 -31 OFFCURVE",
"799 -31 CURVE SMOOTH",
"578 -31 OFFCURVE",
"378 58 OFFCURVE",
"234 203 CURVE SMOOTH",
"89 347 OFFCURVE",
"0 547 OFFCURVE",
"0 768 CURVE SMOOTH"
);
},
{
closed = 1;
nodes = (
"240 612 OFFCURVE",
"303 474 OFFCURVE",
"404 373 CURVE SMOOTH",
"504 272 OFFCURVE",
"643 209 OFFCURVE",
"799 209 CURVE SMOOTH",
"955 209 OFFCURVE",
"1093 272 OFFCURVE",
"1194 373 CURVE SMOOTH",
"1295 474 OFFCURVE",
"1358 612 OFFCURVE",
"1358 768 CURVE SMOOTH",
"1358 924 OFFCURVE",
"1295 1062 OFFCURVE",
"1194 1163 CURVE SMOOTH",
"1093 1264 OFFCURVE",
"954 1327 OFFCURVE",
"799 1327 CURVE SMOOTH",
"643 1327 OFFCURVE",
"504 1264 OFFCURVE",
"404 1163 CURVE SMOOTH",
"303 1062 OFFCURVE",
"240 924 OFFCURVE",
"240 768 CURVE SMOOTH"
);
},
{
closed = 1;
nodes = (
"421 760 OFFCURVE",
"433 768 OFFCURVE",
"451 768 CURVE SMOOTH",
"659 768 LINE",
"659 1126 LINE SMOOTH",
"659 1147 OFFCURVE",
"677 1167 OFFCURVE",
"698 1167 CURVE SMOOTH",
"899 1167 LINE SMOOTH",
"920 1167 OFFCURVE",
"938 1149 OFFCURVE",
"938 1126 CURVE SMOOTH",
"938 768 LINE",
"1147 768 LINE SMOOTH",
"1183 768 OFFCURVE",
"1201 724 OFFCURVE",
"1174 700 CURVE",
"827 354 LINE",
"818 347 OFFCURVE",
"808 344 OFFCURVE",
"799 344 CURVE SMOOTH",
"790 344 OFFCURVE",
"780 347 OFFCURVE",
"770 354 CURVE",
"424 700 LINE",
"411 712 OFFCURVE",
"407 726 OFFCURVE",
"414 743 CURVE SMOOTH"
);
}
);
width = 1597;
}
);
unicode = F01A;
},
{
glyphname = uniF01B;
lastChange = "2012-07-06 12:25:45 +0200";
layers = (
{
layerId = "1D4A27DC-6245-4CD0-82A2-90C51343519E";
name = Regular;
paths = (
{
closed = 1;
nodes = (
"0 989 OFFCURVE",
"89 1189 OFFCURVE",
"234 1334 CURVE SMOOTH",
"378 1478 OFFCURVE",
"578 1567 OFFCURVE",
"799 1567 CURVE SMOOTH",
"1020 1567 OFFCURVE",
"1219 1478 OFFCURVE",
"1364 1334 CURVE SMOOTH",
"1509 1189 OFFCURVE",
"1597 989 OFFCURVE",
"1597 768 CURVE SMOOTH",
"1597 547 OFFCURVE",
"1509 347 OFFCURVE",
"1364 203 CURVE SMOOTH",
"1219 58 OFFCURVE",
"1020 -31 OFFCURVE",
"799 -31 CURVE SMOOTH",
"578 -31 OFFCURVE",
"378 58 OFFCURVE",
"234 203 CURVE SMOOTH",
"89 347 OFFCURVE",
"0 547 OFFCURVE",
"0 768 CURVE SMOOTH"
);
},
{
closed = 1;
nodes = (
"240 612 OFFCURVE",
"303 474 OFFCURVE",
"404 373 CURVE SMOOTH",
"504 272 OFFCURVE",
"643 209 OFFCURVE",
"799 209 CURVE SMOOTH",
"955 209 OFFCURVE",
"1093 272 OFFCURVE",
"1194 373 CURVE SMOOTH",
"1295 474 OFFCURVE",
"1358 612 OFFCURVE",
"1358 768 CURVE SMOOTH",
"1358 924 OFFCURVE",
"1295 1062 OFFCURVE",
"1194 1163 CURVE SMOOTH",
"1093 1264 OFFCURVE",
"955 1327 OFFCURVE",
"799 1327 CURVE SMOOTH",
"643 1327 OFFCURVE",
"504 1264 OFFCURVE",
"404 1163 CURVE SMOOTH",
"303 1062 OFFCURVE",
"240 924 OFFCURVE",
"240 768 CURVE SMOOTH"
);
},
{
closed = 1;
nodes = (
"407 810 OFFCURVE",
"411 824 OFFCURVE",
"424 836 CURVE",
"770 1182 LINE",
"779 1189 OFFCURVE",
"789 1192 OFFCURVE",
"799 1192 CURVE SMOOTH",
"808 1192 OFFCURVE",
"818 1189 OFFCURVE",
"827 1182 CURVE",
"1174 836 LINE",
"1201 812 OFFCURVE",
"1183 768 OFFCURVE",
"1147 768 CURVE SMOOTH",
"938 768 LINE",
"938 408 LINE SMOOTH",
"938 387 OFFCURVE",
"920 369 OFFCURVE",
"899 369 CURVE SMOOTH",
"698 369 LINE SMOOTH",
"677 369 OFFCURVE",
"659 385 OFFCURVE",
"659 408 CURVE SMOOTH",
"659 768 LINE",
"451 768 LINE SMOOTH",
"433 768 OFFCURVE",
"421 776 OFFCURVE",
"414 793 CURVE SMOOTH"
);
}
);
width = 1597;
}
);
unicode = F01B;
},
{
glyphname = uniF01C;
lastChange = "2012-07-06 12:25:45 +0200";
layers = (
{
layerId = "1D4A27DC-6245-4CD0-82A2-90C51343519E";
name = Regular;
paths = (
{
closed = 1;
nodes = (
"0 655 LINE SMOOTH",
"0 699 OFFCURVE",
"14 764 OFFCURVE",
"31 803 CURVE SMOOTH",
"315 1466 LINE SMOOTH",
"331 1505 OFFCURVE",
"381 1536 OFFCURVE",
"422 1536 CURVE SMOOTH",
"1421 1536 LINE SMOOTH",
"1462 1536 OFFCURVE",
"1512 1505 OFFCURVE",
"1528 1466 CURVE SMOOTH",
"1812 803 LINE SMOOTH",
"1828 764 OFFCURVE",
"1843 699 OFFCURVE",
"1843 655 CURVE SMOOTH",
"1843 78 LINE SMOOTH",
"1843 34 OFFCURVE",
"1808 0 OFFCURVE",
"1767 0 CURVE SMOOTH",
"78 0 LINE SMOOTH",
"34 0 OFFCURVE",
"0 34 OFFCURVE",
"0 78 CURVE SMOOTH"
);
},
{
closed = 1;
nodes = (
"625 694 LINE",
"739 463 LINE",
"1122 463 LINE",
"1239 694 LINE",
"1606 694 LINE",
"1605 697 OFFCURVE",
"1604 700 OFFCURVE",
"1604 704 CURVE SMOOTH",
"1604 707 OFFCURVE",
"1603 710 OFFCURVE",
"1602 713 CURVE",
"1346 1307 LINE",
"498 1307 LINE",
"242 711 LINE",
"241 710 OFFCURVE",
"240 707 OFFCURVE",
"240 704 CURVE SMOOTH",
"240 700 OFFCURVE",
"239 697 OFFCURVE",
"238 694 CURVE"
);
}
);
width = 1843;
}
);
unicode = F01C;
},
{
glyphname = uniF01D;
lastChange = "2012-07-06 12:25:45 +0200";
layers = (
{
layerId = "1D4A27DC-6245-4CD0-82A2-90C51343519E";
name = Regular;
paths = (
{
closed = 1;
nodes = (
"0 989 OFFCURVE",
"89 1189 OFFCURVE",
"234 1334 CURVE SMOOTH",
"378 1478 OFFCURVE",
"578 1567 OFFCURVE",
"799 1567 CURVE SMOOTH",
"1020 1567 OFFCURVE",
"1219 1478 OFFCURVE",
"1364 1334 CURVE SMOOTH",
"1509 1189 OFFCURVE",
"1597 989 OFFCURVE",
"1597 768 CURVE SMOOTH",
"1597 547 OFFCURVE",
"1509 347 OFFCURVE",
"1364 203 CURVE SMOOTH",
"1219 58 OFFCURVE",
"1020 -31 OFFCURVE",
"799 -31 CURVE SMOOTH",
"578 -31 OFFCURVE",
"378 58 OFFCURVE",
"234 203 CURVE SMOOTH",
"89 347 OFFCURVE",
"0 547 OFFCURVE",
"0 768 CURVE SMOOTH"
);
},
{
closed = 1;
nodes = (
"240 612 OFFCURVE",
"303 474 OFFCURVE",
"404 373 CURVE SMOOTH",
"504 272 OFFCURVE",
"643 209 OFFCURVE",
"799 209 CURVE SMOOTH",
"955 209 OFFCURVE",
"1093 272 OFFCURVE",
"1194 373 CURVE SMOOTH",
"1295 474 OFFCURVE",
"1358 612 OFFCURVE",
"1358 768 CURVE SMOOTH",
"1358 924 OFFCURVE",
"1295 1062 OFFCURVE",
"1194 1163 CURVE SMOOTH",
"1093 1264 OFFCURVE",
"954 1327 OFFCURVE",
"799 1327 CURVE SMOOTH",
"643 1327 OFFCURVE",
"504 1264 OFFCURVE",
"404 1163 CURVE SMOOTH",
"303 1062 OFFCURVE",
"240 924 OFFCURVE",
"240 768 CURVE SMOOTH"
);
},
{
closed = 1;
nodes = (
"582 1081 LINE SMOOTH",
"582 1093 OFFCURVE",
"587 1103 OFFCURVE",
"598 1110 CURVE",
"611 1115 OFFCURVE",
"622 1115 OFFCURVE",
"629 1110 CURVE",
"1174 795 LINE",
"1185 791 OFFCURVE",
"1190 782 OFFCURVE",
"1190 768 CURVE SMOOTH",
"1190 755 OFFCURVE",
"1185 746 OFFCURVE",
"1174 741 CURVE",
"629 426 LINE SMOOTH",
"624 423 OFFCURVE",
"619 422 OFFCURVE",
"614 422 CURVE SMOOTH",
"609 422 OFFCURVE",
"603 423 OFFCURVE",
"598 426 CURVE SMOOTH",
"587 433 OFFCURVE",
"582 442 OFFCURVE",
"582 453 CURVE SMOOTH"
);
}
);
width = 1597;
}
);
unicode = F01D;
},
{
glyphname = uniF01E;
lastChange = "2012-07-06 12:25:45 +0200";
layers = (
{
layerId = "1D4A27DC-6245-4CD0-82A2-90C51343519E";
name = Regular;
paths = (
{
closed = 1;
nodes = (
"0 989 OFFCURVE",
"89 1189 OFFCURVE",
"234 1334 CURVE SMOOTH",
"378 1478 OFFCURVE",
"578 1567 OFFCURVE",
"799 1567 CURVE SMOOTH",
"987 1567 OFFCURVE",
"1164 1501 OFFCURVE",
"1309 1378 CURVE",
"1470 1540 LINE SMOOTH",
"1517 1587 OFFCURVE",
"1552 1570 OFFCURVE",
"1552 1507 CURVE SMOOTH",
"1552 1044 LINE SMOOTH",
"1552 1022 OFFCURVE",
"1545 1004 OFFCURVE",
"1530 989 CURVE SMOOTH",
"1517 976 OFFCURVE",
"1498 967 OFFCURVE",
"1477 967 CURVE SMOOTH",
"1014 967 LINE SMOOTH",
"951 967 OFFCURVE",
"932 1002 OFFCURVE",
"979 1049 CURVE SMOOTH",
"1139 1208 LINE",
"1043 1284 OFFCURVE",
"924 1327 OFFCURVE",
"799 1327 CURVE SMOOTH",
"643 1327 OFFCURVE",
"504 1264 OFFCURVE",
"404 1163 CURVE SMOOTH",
"303 1062 OFFCURVE",
"240 924 OFFCURVE",
"240 768 CURVE SMOOTH",
"240 612 OFFCURVE",
"303 474 OFFCURVE",
"404 373 CURVE SMOOTH",
"504 272 OFFCURVE",
"643 209 OFFCURVE",
"799 209 CURVE SMOOTH",
"938 209 OFFCURVE",
"1067 262 OFFCURVE",
"1167 348 CURVE SMOOTH",
"1266 434 OFFCURVE",
"1334 556 OFFCURVE",
"1354 692 CURVE",
"1354 713 OFFCURVE",
"1376 730 OFFCURVE",
"1399 727 CURVE SMOOTH",
"1556 707 LINE",
"1577 702 OFFCURVE",
"1594 683 OFFCURVE",
"1591 662 CURVE SMOOTH",
"1564 466 OFFCURVE",
"1468 291 OFFCURVE",
"1326 167 CURVE SMOOTH",
"1184 43 OFFCURVE",
"998 -31 OFFCURVE",
"799 -31 CURVE SMOOTH",
"578 -31 OFFCURVE",
"378 58 OFFCURVE",
"234 203 CURVE SMOOTH",
"89 347 OFFCURVE",
"0 547 OFFCURVE",
"0 768 CURVE SMOOTH"
);
}
);
width = 1591;
}
);
unicode = F01E;
},
{
glyphname = uniF021;
lastChange = "2012-07-06 12:25:45 +0200";
layers = (
{
layerId = "1D4A27DC-6245-4CD0-82A2-90C51343519E";
name = Regular;
paths = (
{
closed = 1;
nodes = (
"156 748 LINE",
"169 792 OFFCURVE",
"214 808 OFFCURVE",
"254 797 CURVE",
"692 647 LINE SMOOTH",
"752 626 OFFCURVE",
"753 590 OFFCURVE",
"696 559 CURVE",
"494 459 LINE",
"565 355 OFFCURVE",
"658 278 OFFCURVE",
"778 238 CURVE SMOOTH",
"926 189 OFFCURVE",
"1078 203 OFFCURVE",
"1207 266 CURVE SMOOTH",
"1335 329 OFFCURVE",
"1438 440 OFFCURVE",
"1487 588 CURVE",
"1495 609 OFFCURVE",
"1517 617 OFFCURVE",
"1538 612 CURVE",
"1690 561 LINE",
"1711 553 OFFCURVE",
"1722 531 OFFCURVE",
"1714 510 CURVE",
"1643 299 OFFCURVE",
"1494 142 OFFCURVE",
"1311 52 CURVE SMOOTH",
"1128 -38 OFFCURVE",
"908 -61 OFFCURVE",
"700 10 CURVE SMOOTH",
"520 73 OFFCURVE",
"376 191 OFFCURVE",
"279 352 CURVE",
"74 252 LINE",
"17 221 OFFCURVE",
"-15 248 OFFCURVE",
"6 311 CURVE SMOOTH"
);
},
{
closed = 1;
nodes = (
"274 1232 OFFCURVE",
"423 1393 OFFCURVE",
"606 1483 CURVE SMOOTH",
"789 1573 OFFCURVE",
"1006 1595 OFFCURVE",
"1217 1524 CURVE SMOOTH",
"1394 1461 OFFCURVE",
"1541 1343 OFFCURVE",
"1638 1182 CURVE",
"1843 1282 LINE",
"1900 1313 OFFCURVE",
"1932 1285 OFFCURVE",
"1911 1225 CURVE SMOOTH",
"1761 786 LINE",
"1748 742 OFFCURVE",
"1703 726 OFFCURVE",
"1663 737 CURVE",
"1225 887 LINE SMOOTH",
"1165 908 OFFCURVE",
"1164 944 OFFCURVE",
"1219 975 CURVE",
"1421 1075 LINE",
"1353 1179 OFFCURVE",
"1256 1256 OFFCURVE",
"1139 1296 CURVE SMOOTH",
"991 1345 OFFCURVE",
"839 1331 OFFCURVE",
"711 1268 CURVE SMOOTH",
"582 1205 OFFCURVE",
"479 1094 OFFCURVE",
"430 946 CURVE",
"422 925 OFFCURVE",
"400 917 OFFCURVE",
"379 922 CURVE",
"227 973 LINE",
"206 981 OFFCURVE",
"195 1003 OFFCURVE",
"203 1024 CURVE"
);
}
);
width = 1916;
}
);
unicode = F021;
},
{
glyphname = uniF022;
lastChange = "2012-07-06 12:25:45 +0200";
layers = (
{
layerId = "1D4A27DC-6245-4CD0-82A2-90C51343519E";
name = Regular;
paths = (
{
closed = 1;
nodes = (
"0 1421 LINE SMOOTH",
"0 1484 OFFCURVE",
"52 1536 OFFCURVE",
"115 1536 CURVE SMOOTH",
"1729 1536 LINE SMOOTH",
"1792 1536 OFFCURVE",
"1843 1484 OFFCURVE",
"1843 1421 CURVE SMOOTH",
"1843 115 LINE SMOOTH",
"1843 52 OFFCURVE",
"1792 0 OFFCURVE",
"1729 0 CURVE SMOOTH",
"115 0 LINE SMOOTH",
"52 0 OFFCURVE",
"0 52 OFFCURVE",
"0 115 CURVE SMOOTH"
);
},
{
closed = 1;
nodes = (
"154 154 LINE",
"1690 154 LINE",
"1690 1229 LINE",
"154 1229 LINE"
);
},
{
closed = 1;
nodes = (
"307 422 LINE SMOOTH",
"307 448 OFFCURVE",
"320 461 OFFCURVE",
"346 461 CURVE SMOOTH",
"500 461 LINE SMOOTH",
"521 461 OFFCURVE",
"539 443 OFFCURVE",
"539 422 CURVE SMOOTH",
"539 346 LINE SMOOTH",
"539 325 OFFCURVE",
"521 307 OFFCURVE",
"500 307 CURVE SMOOTH",
"346 307 LINE SMOOTH",
"320 307 OFFCURVE",
"307 320 OFFCURVE",
"307 346 CURVE SMOOTH"
);
},
{
closed = 1;
nodes = (
"307 729 LINE SMOOTH",
"307 755 OFFCURVE",
"320 768 OFFCURVE",
"346 768 CURVE SMOOTH",
"500 768 LINE SMOOTH",
"521 768 OFFCURVE",
"539 750 OFFCURVE",
"539 729 CURVE SMOOTH",
"539 653 LINE SMOOTH",
"539 632 OFFCURVE",
"521 614 OFFCURVE",
"500 614 CURVE SMOOTH",
"346 614 LINE SMOOTH",
"320 614 OFFCURVE",
"307 627 OFFCURVE",
"307 653 CURVE SMOOTH"
);
},
{
closed = 1;
nodes = (
"307 1036 LINE SMOOTH",
"307 1062 OFFCURVE",
"320 1075 OFFCURVE",
"346 1075 CURVE SMOOTH",
"500 1075 LINE SMOOTH",
"521 1075 OFFCURVE",
"539 1059 OFFCURVE",
"539 1036 CURVE SMOOTH",
"539 961 LINE SMOOTH",
"539 940 OFFCURVE",
"521 922 OFFCURVE",
"500 922 CURVE SMOOTH",
"346 922 LINE SMOOTH",
"320 922 OFFCURVE",
"307 935 OFFCURVE",
"307 961 CURVE SMOOTH"
);
},
{
closed = 1;
nodes = (
"692 422 LINE SMOOTH",
"692 443 OFFCURVE",
"708 461 OFFCURVE",
"729 461 CURVE SMOOTH",
"1497 461 LINE SMOOTH",
"1523 461 OFFCURVE",
"1536 448 OFFCURVE",
"1536 422 CURVE SMOOTH",
"1536 346 LINE SMOOTH",
"1536 320 OFFCURVE",
"1523 307 OFFCURVE",
"1497 307 CURVE SMOOTH",
"729 307 LINE SMOOTH",
"708 307 OFFCURVE",
"692 325 OFFCURVE",
"692 346 CURVE SMOOTH"
);
},
{
closed = 1;
nodes = (
"692 729 LINE SMOOTH",
"692 750 OFFCURVE",
"708 768 OFFCURVE",
"729 768 CURVE SMOOTH",
"1497 768 LINE SMOOTH",
"1523 768 OFFCURVE",
"1536 755 OFFCURVE",
"1536 729 CURVE SMOOTH",
"1536 653 LINE SMOOTH",
"1536 627 OFFCURVE",
"1523 614 OFFCURVE",
"1497 614 CURVE SMOOTH",
"729 614 LINE SMOOTH",
"708 614 OFFCURVE",
"692 632 OFFCURVE",
"692 653 CURVE SMOOTH"
);
},
{
closed = 1;
nodes = (
"692 1036 LINE SMOOTH",
"692 1057 OFFCURVE",
"708 1075 OFFCURVE",
"729 1075 CURVE SMOOTH",
"1497 1075 LINE SMOOTH",
"1523 1075 OFFCURVE",
"1536 1062 OFFCURVE",
"1536 1036 CURVE SMOOTH",
"1536 961 LINE SMOOTH",
"1536 935 OFFCURVE",
"1523 922 OFFCURVE",
"1497 922 CURVE SMOOTH",
"729 922 LINE SMOOTH",
"708 922 OFFCURVE",
"692 938 OFFCURVE",
"692 961 CURVE SMOOTH"
);
}
);
width = 1843;
}
);
unicode = F022;
},
{
glyphname = uniF023;
lastChange = "2012-07-06 12:25:45 +0200";
layers = (
{
layerId = "1D4A27DC-6245-4CD0-82A2-90C51343519E";
name = Regular;
paths = (
{
closed = 1;
nodes = (
"0 743 LINE SMOOTH",
"0 795 OFFCURVE",
"31 838 OFFCURVE",
"78 854 CURVE",
"78 1018 LINE SMOOTH",
"78 1169 OFFCURVE",
"139 1306 OFFCURVE",
"239 1406 CURVE SMOOTH",
"338 1506 OFFCURVE",
"476 1567 OFFCURVE",
"627 1567 CURVE SMOOTH",
"778 1567 OFFCURVE",
"915 1506 OFFCURVE",
"1015 1406 CURVE SMOOTH",
"1115 1306 OFFCURVE",
"1176 1167 OFFCURVE",
"1176 1018 CURVE SMOOTH",
"1176 854 LINE",
"1223 838 OFFCURVE",
"1253 795 OFFCURVE",
"1253 743 CURVE SMOOTH",
"1253 117 LINE SMOOTH",
"1253 54 OFFCURVE",
"1200 0 OFFCURVE",
"1137 0 CURVE SMOOTH",
"117 0 LINE SMOOTH",
"54 0 OFFCURVE",
"0 54 OFFCURVE",
"0 117 CURVE SMOOTH"
);
},
{
closed = 1;
nodes = (
"313 862 LINE",
"940 862 LINE",
"940 1018 LINE SMOOTH",
"940 1106 OFFCURVE",
"905 1184 OFFCURVE",
"848 1240 CURVE SMOOTH",
"791 1296 OFFCURVE",
"711 1331 OFFCURVE",
"627 1331 CURVE SMOOTH",
"539 1331 OFFCURVE",
"464 1296 OFFCURVE",
"406 1240 CURVE SMOOTH",
"348 1184 OFFCURVE",
"313 1105 OFFCURVE",
"313 1018 CURVE SMOOTH"
);
},
{
closed = 1;
nodes = (
"494 164 LINE",
"760 164 LINE",
"694 449 LINE",
"733 473 OFFCURVE",
"760 516 OFFCURVE",
"760 563 CURVE SMOOTH",
"760 636 OFFCURVE",
"700 698 OFFCURVE",
"627 698 CURVE SMOOTH",
"554 698 OFFCURVE",
"494 636 OFFCURVE",
"494 563 CURVE SMOOTH",
"494 516 OFFCURVE",
"520 472 OFFCURVE",
"559 451 CURVE"
);
}
);
width = 1253;
}
);
unicode = F023;
},
{
glyphname = uniF024;
lastChange = "2012-07-06 12:25:45 +0200";
layers = (
{
layerId = "1D4A27DC-6245-4CD0-82A2-90C51343519E";
name = Regular;
paths = (
{
closed = 1;
nodes = (
"0 1466 OFFCURVE",
"69 1536 OFFCURVE",
"154 1536 CURVE SMOOTH",
"238 1536 OFFCURVE",
"307 1466 OFFCURVE",
"307 1382 CURVE SMOOTH",
"307 1327 OFFCURVE",
"278 1282 OFFCURVE",
"231 1251 CURVE",
"231 39 LINE SMOOTH",
"231 18 OFFCURVE",
"214 0 OFFCURVE",
"193 0 CURVE SMOOTH",
"115 0 LINE SMOOTH",
"94 0 OFFCURVE",
"78 18 OFFCURVE",
"78 39 CURVE SMOOTH",
"78 1251 LINE",
"31 1282 OFFCURVE",
"0 1327 OFFCURVE",
"0 1382 CURVE SMOOTH"
);
},
{
closed = 1;
nodes = (
"307 1161 LINE SMOOTH",
"307 1205 OFFCURVE",
"336 1255 OFFCURVE",
"375 1276 CURVE SMOOTH",
"514 1349 OFFCURVE",
"627 1388 OFFCURVE",
"707 1407 CURVE SMOOTH",
"754 1418 OFFCURVE",
"795 1424 OFFCURVE",
"831 1425 CURVE SMOOTH",
"922 1425 OFFCURVE",
"995 1409 OFFCURVE",
"1063 1385 CURVE SMOOTH",
"1131 1360 OFFCURVE",
"1193 1326 OFFCURVE",
"1262 1290 CURVE",
"1346 1251 OFFCURVE",
"1446 1247 OFFCURVE",
"1571 1273 CURVE SMOOTH",
"1634 1286 OFFCURVE",
"1703 1315 OFFCURVE",
"1778 1360 CURVE",
"1817 1381 OFFCURVE",
"1843 1367 OFFCURVE",
"1843 1323 CURVE SMOOTH",
"1843 575 LINE SMOOTH",
"1843 534 OFFCURVE",
"1815 482 OFFCURVE",
"1778 461 CURVE SMOOTH",
"1627 370 OFFCURVE",
"1500 353 OFFCURVE",
"1407 358 CURVE SMOOTH",
"1352 361 OFFCURVE",
"1304 372 OFFCURVE",
"1262 391 CURVE",
"1194 427 OFFCURVE",
"1131 461 OFFCURVE",
"1063 486 CURVE SMOOTH",
"995 510 OFFCURVE",
"922 526 OFFCURVE",
"831 526 CURVE",
"758 523 OFFCURVE",
"676 504 OFFCURVE",
"564 463 CURVE SMOOTH",
"507 442 OFFCURVE",
"444 413 OFFCURVE",
"375 375 CURVE SMOOTH",
"336 354 OFFCURVE",
"307 372 OFFCURVE",
"307 416 CURVE SMOOTH"
);
}
);
width = 1843;
}
);
unicode = F024;
},
{
glyphname = uniF025;
lastChange = "2012-07-06 12:25:45 +0200";
layers = (
{
layerId = "1D4A27DC-6245-4CD0-82A2-90C51343519E";
name = Regular;
paths = (
{
closed = 1;
nodes = (
"0 958 OFFCURVE",
"125 1168 OFFCURVE",
"306 1320 CURVE SMOOTH",
"487 1472 OFFCURVE",
"726 1567 OFFCURVE",
"958 1567 CURVE SMOOTH",
"1190 1567 OFFCURVE",
"1430 1472 OFFCURVE",
"1611 1320 CURVE SMOOTH",
"1792 1168 OFFCURVE",
"1917 959 OFFCURVE",
"1917 727 CURVE SMOOTH",
"1917 606 OFFCURVE",
"1891 489 OFFCURVE",
"1839 377 CURVE SMOOTH",
"1812 317 LINE",
"1638 291 LINE",
"1602 152 OFFCURVE",
"1482 49 OFFCURVE",
"1331 49 CURVE",
"1331 8 LINE SMOOTH",
"1331 -13 OFFCURVE",
"1313 -31 OFFCURVE",
"1290 -31 CURVE SMOOTH",
"1210 -31 LINE SMOOTH",
"1189 -31 OFFCURVE",
"1171 -13 OFFCURVE",
"1171 8 CURVE SMOOTH",
"1171 727 LINE SMOOTH",
"1171 748 OFFCURVE",
"1189 768 OFFCURVE",
"1210 768 CURVE SMOOTH",
"1290 768 LINE SMOOTH",
"1311 768 OFFCURVE",
"1331 748 OFFCURVE",
"1331 727 CURVE SMOOTH",
"1331 688 LINE",
"1448 688 OFFCURVE",
"1551 624 OFFCURVE",
"1606 528 CURVE",
"1645 535 LINE",
"1689 655 OFFCURVE",
"1699 816 OFFCURVE",
"1612 961 CURVE SMOOTH",
"1524 1105 OFFCURVE",
"1380 1217 OFFCURVE",
"1209 1280 CURVE SMOOTH",
"1124 1311 OFFCURVE",
"1040 1327 OFFCURVE",
"958 1327 CURVE SMOOTH",
"794 1327 OFFCURVE",
"615 1260 OFFCURVE",
"476 1152 CURVE SMOOTH",
"336 1044 OFFCURVE",
"240 893 OFFCURVE",
"240 729 CURVE SMOOTH",
"240 660 OFFCURVE",
"251 595 OFFCURVE",
"272 535 CURVE",
"311 528 LINE",
"366 624 OFFCURVE",
"469 688 OFFCURVE",
"586 688 CURVE",
"586 727 LINE SMOOTH",
"586 748 OFFCURVE",
"604 768 OFFCURVE",
"627 768 CURVE SMOOTH",
"707 768 LINE SMOOTH",
"728 768 OFFCURVE",
"745 748 OFFCURVE",
"745 727 CURVE SMOOTH",
"745 8 LINE SMOOTH",
"745 -13 OFFCURVE",
"728 -31 OFFCURVE",
"707 -31 CURVE SMOOTH",
"627 -31 LINE SMOOTH",
"606 -31 OFFCURVE",
"586 -13 OFFCURVE",
"586 8 CURVE SMOOTH",
"586 49 LINE",
"513 49 OFFCURVE",
"441 75 OFFCURVE",
"388 118 CURVE SMOOTH",
"335 161 OFFCURVE",
"295 220 OFFCURVE",
"279 291 CURVE",
"104 317 LINE",
"78 377 LINE SMOOTH",
"26 489 OFFCURVE",
"0 606 OFFCURVE",
"0 729 CURVE SMOOTH"
);
}
);
width = 1916;
}
);
unicode = F025;
},
{
glyphname = uniF026;
lastChange = "2012-07-06 12:25:45 +0200";
layers = (
{
layerId = "1D4A27DC-6245-4CD0-82A2-90C51343519E";
name = Regular;
paths = (
{
closed = 1;
nodes = (
"0 958 LINE SMOOTH",
"0 979 OFFCURVE",
"18 997 OFFCURVE",
"39 997 CURVE SMOOTH",
"459 997 LINE",
"784 1323 LINE SMOOTH",
"849 1391 OFFCURVE",
"903 1370 OFFCURVE",
"903 1274 CURVE SMOOTH",
"903 262 LINE SMOOTH",
"903 166 OFFCURVE",
"851 145 OFFCURVE",
"784 213 CURVE SMOOTH",
"459 539 LINE",
"39 539 LINE SMOOTH",
"18 539 OFFCURVE",
"0 555 OFFCURVE",
"0 578 CURVE SMOOTH"
);
}
);
width = 905;
}
);
unicode = F026;
},
{
glyphname = uniF027;
lastChange = "2012-07-06 12:25:45 +0200";
layers = (
{
layerId = "1D4A27DC-6245-4CD0-82A2-90C51343519E";
name = Regular;
paths = (
{
closed = 1;
nodes = (
"0 958 LINE SMOOTH",
"0 979 OFFCURVE",
"18 997 OFFCURVE",
"39 997 CURVE SMOOTH",
"459 997 LINE",
"784 1323 LINE SMOOTH",
"849 1391 OFFCURVE",
"903 1370 OFFCURVE",
"903 1274 CURVE SMOOTH",
"903 262 LINE SMOOTH",
"903 166 OFFCURVE",
"851 145 OFFCURVE",
"784 213 CURVE SMOOTH",
"459 539 LINE",
"39 539 LINE SMOOTH",
"18 539 OFFCURVE",
"0 555 OFFCURVE",
"0 578 CURVE SMOOTH"
);
},
{
closed = 1;
nodes = (
"1026 379 OFFCURVE",
"1013 428 OFFCURVE",
"1034 467 CURVE SMOOTH",
"1090 564 OFFCURVE",
"1118 664 OFFCURVE",
"1118 768 CURVE SMOOTH",
"1118 872 OFFCURVE",
"1090 972 OFFCURVE",
"1034 1069 CURVE SMOOTH",
"1013 1108 OFFCURVE",
"1026 1157 OFFCURVE",
"1065 1178 CURVE SMOOTH",
"1104 1199 OFFCURVE",
"1151 1188 OFFCURVE",
"1174 1149 CURVE SMOOTH",
"1243 1028 OFFCURVE",
"1278 901 OFFCURVE",
"1278 768 CURVE SMOOTH",
"1278 634 OFFCURVE",
"1243 507 OFFCURVE",
"1174 387 CURVE SMOOTH",
"1159 360 OFFCURVE",
"1135 346 OFFCURVE",
"1104 346 CURVE SMOOTH",
"1091 346 OFFCURVE",
"1078 350 OFFCURVE",
"1065 358 CURVE"
);
}
);
width = 1277;
}
);
unicode = F027;
},
{
glyphname = uniF028;
lastChange = "2012-07-06 12:25:45 +0200";
layers = (
{
layerId = "1D4A27DC-6245-4CD0-82A2-90C51343519E";
name = Regular;
paths = (
{
closed = 1;
nodes = (
"0 958 LINE SMOOTH",
"0 979 OFFCURVE",
"18 997 OFFCURVE",
"39 997 CURVE SMOOTH",
"459 997 LINE",
"784 1323 LINE SMOOTH",
"849 1391 OFFCURVE",
"903 1370 OFFCURVE",
"903 1274 CURVE SMOOTH",
"903 262 LINE SMOOTH",
"903 166 OFFCURVE",
"851 145 OFFCURVE",
"784 213 CURVE SMOOTH",
"459 539 LINE",
"39 539 LINE SMOOTH",
"18 539 OFFCURVE",
"0 555 OFFCURVE",
"0 578 CURVE SMOOTH"
);
},
{
closed = 1;
nodes = (
"1026 379 OFFCURVE",
"1013 428 OFFCURVE",
"1034 467 CURVE SMOOTH",
"1090 564 OFFCURVE",
"1118 664 OFFCURVE",
"1118 768 CURVE SMOOTH",
"1118 872 OFFCURVE",
"1090 972 OFFCURVE",
"1034 1069 CURVE SMOOTH",
"1013 1108 OFFCURVE",
"1026 1157 OFFCURVE",
"1065 1178 CURVE SMOOTH",
"1104 1199 OFFCURVE",
"1151 1188 OFFCURVE",
"1174 1149 CURVE SMOOTH",
"1243 1028 OFFCURVE",
"1278 901 OFFCURVE",
"1278 768 CURVE SMOOTH",
"1278 634 OFFCURVE",
"1243 507 OFFCURVE",
"1174 387 CURVE SMOOTH",
"1159 360 OFFCURVE",
"1135 346 OFFCURVE",
"1104 346 CURVE SMOOTH",
"1091 346 OFFCURVE",
"1078 350 OFFCURVE",
"1065 358 CURVE"
);
},
{
closed = 1;
nodes = (
"1282 191 OFFCURVE",
"1272 242 OFFCURVE",
"1296 281 CURVE SMOOTH",
"1484 581 OFFCURVE",
"1485 955 OFFCURVE",
"1296 1255 CURVE SMOOTH",
"1272 1294 OFFCURVE",
"1282 1345 OFFCURVE",
"1321 1366 CURVE",
"1360 1390 OFFCURVE",
"1408 1380 OFFCURVE",
"1432 1341 CURVE SMOOTH",
"1541 1166 OFFCURVE",
"1597 973 OFFCURVE",
"1597 768 CURVE SMOOTH",
"1597 562 OFFCURVE",
"1541 371 OFFCURVE",
"1430 195 CURVE",
"1417 171 OFFCURVE",
"1388 158 OFFCURVE",
"1364 158 CURVE SMOOTH",
"1347 158 OFFCURVE",
"1333 162 OFFCURVE",
"1321 170 CURVE"
);
},
{
closed = 1;
nodes = (
"1536 6 OFFCURVE",
"1528 57 OFFCURVE",
"1552 92 CURVE SMOOTH",
"1685 297 OFFCURVE",
"1757 528 OFFCURVE",
"1757 768 CURVE SMOOTH",
"1757 1008 OFFCURVE",
"1687 1239 OFFCURVE",
"1552 1442 CURVE",
"1528 1481 OFFCURVE",
"1536 1530 OFFCURVE",
"1575 1554 CURVE",
"1614 1575 OFFCURVE",
"1662 1568 OFFCURVE",
"1686 1532 CURVE SMOOTH",
"1839 1300 OFFCURVE",
"1917 1041 OFFCURVE",
"1917 768 CURVE SMOOTH",
"1917 495 OFFCURVE",
"1838 235 OFFCURVE",
"1686 6 CURVE",
"1673 -18 OFFCURVE",
"1644 -31 OFFCURVE",
"1620 -31 CURVE SMOOTH",
"1603 -31 OFFCURVE",
"1588 -27 OFFCURVE",
"1575 -18 CURVE"
);
}
);
width = 1916;
}
);
unicode = F028;
},
{
glyphname = uniF029;
lastChange = "2012-07-06 12:25:45 +0200";
layers = (
{
layerId = "1D4A27DC-6245-4CD0-82A2-90C51343519E";
name = Regular;
paths = (
{
closed = 1;
nodes = (
"0 0 LINE",
"0 698 LINE",
"698 698 LINE",
"698 0 LINE"
);
},
{
closed = 1;
nodes = (
"0 838 LINE",
"0 1536 LINE",
"698 1536 LINE",
"698 838 LINE"
);
},
{
closed = 1;
nodes = (
"139 139 LINE",
"559 139 LINE",
"559 559 LINE",
"139 559 LINE"
);
},
{
closed = 1;
nodes = (
"139 977 LINE",
"559 977 LINE",
"559 1397 LINE",
"139 1397 LINE"
);
},
{
closed = 1;
nodes = (
"279 279 LINE",
"279 420 LINE",
"420 420 LINE",
"420 279 LINE"
);
},
{
closed = 1;
nodes = (
"279 1116 LINE",
"279 1255 LINE",
"420 1255 LINE",
"420 1116 LINE"
);
},
{
closed = 1;
nodes = (
"838 0 LINE",
"838 698 LINE",
"1255 698 LINE",
"1255 559 LINE",
"1397 559 LINE",
"1397 698 LINE",
"1536 698 LINE",
"1536 279 LINE",
"1116 279 LINE",
"1116 418 LINE",
"977 418 LINE",
"977 0 LINE"
);
},
{
closed = 1;
nodes = (
"838 838 LINE",
"838 1536 LINE",
"1536 1536 LINE",
"1536 838 LINE"
);
},
{
closed = 1;
nodes = (
"977 977 LINE",
"1397 977 LINE",
"1397 1397 LINE",
"977 1397 LINE"
);
},
{
closed = 1;
nodes = (
"1116 0 LINE",
"1116 139 LINE",
"1255 139 LINE",
"1255 0 LINE"
);
},
{
closed = 1;
nodes = (
"1116 1116 LINE",
"1116 1255 LINE",
"1255 1255 LINE",
"1255 1116 LINE"
);
},
{
closed = 1;
nodes = (
"1397 0 LINE",
"1397 139 LINE",
"1536 139 LINE",
"1536 0 LINE"
);
}
);
width = 1536;
}
);
unicode = F029;
},
{
glyphname = uniF02A;
lastChange = "2012-07-06 12:25:45 +0200";
layers = (
{
layerId = "1D4A27DC-6245-4CD0-82A2-90C51343519E";
name = Regular;
paths = (
{
closed = 1;
nodes = (
"0 0 LINE",
"0 1536 LINE",
"154 1536 LINE",
"154 0 LINE"
);
},
{
closed = 1;
nodes = (
"227 0 LINE",
"227 1536 LINE",
"264 1536 LINE",
"264 0 LINE"
);
},
{
closed = 1;
nodes = (
"356 0 LINE",
"356 1536 LINE",
"473 1536 LINE",
"473 0 LINE"
);
},
{
closed = 1;
nodes = (
"545 0 LINE",
"545 1536 LINE",
"623 1536 LINE",
"623 0 LINE"
);
},
{
closed = 1;
nodes = (
"715 0 LINE",
"715 1536 LINE",
"791 1536 LINE",
"791 0 LINE"
);
},
{
closed = 1;
nodes = (
"903 0 LINE",
"903 1536 LINE",
"940 1536 LINE",
"940 0 LINE"
);
},
{
closed = 1;
nodes = (
"1014 0 LINE",
"1014 1536 LINE",
"1167 1536 LINE",
"1167 0 LINE"
);
},
{
closed = 1;
nodes = (
"1221 0 LINE",
"1221 1536 LINE",
"1298 1536 LINE",
"1298 0 LINE"
);
},
{
closed = 1;
nodes = (
"1409 0 LINE",
"1409 1536 LINE",
"1448 1536 LINE",
"1448 0 LINE"
);
},
{
closed = 1;
nodes = (
"1579 0 LINE",
"1579 1536 LINE",
"1616 1536 LINE",
"1616 0 LINE"
);
},
{
closed = 1;
nodes = (
"1690 0 LINE",
"1690 1536 LINE",
"1843 1536 LINE",
"1843 0 LINE"
);
}
);
width = 1843;
}
);
unicode = F02A;
},
{
glyphname = uniF02B;
lastChange = "2012-07-06 12:25:45 +0200";
layers = (
{
layerId = "1D4A27DC-6245-4CD0-82A2-90C51343519E";
name = Regular;
paths = (
{
closed = 1;
nodes = (
"0 1415 LINE SMOOTH",
"0 1480 OFFCURVE",
"53 1536 OFFCURVE",
"121 1536 CURVE SMOOTH",
"575 1536 LINE SMOOTH",
"643 1536 OFFCURVE",
"739 1499 OFFCURVE",
"782 1450 CURVE SMOOTH",
"1454 702 LINE SMOOTH",
"1498 650 OFFCURVE",
"1501 577 OFFCURVE",
"1454 530 CURVE SMOOTH",
"928 4 LINE SMOOTH",
"881 -43 OFFCURVE",
"803 -45 OFFCURVE",
"756 4 CURVE",
"86 754 LINE",
"39 803 OFFCURVE",
"0 892 OFFCURVE",
"0 961 CURVE SMOOTH"
);
},
{
closed = 1;
nodes = (
"197 1158 OFFCURVE",
"248 1106 OFFCURVE",
"313 1106 CURVE SMOOTH",
"378 1106 OFFCURVE",
"430 1158 OFFCURVE",
"430 1223 CURVE SMOOTH",
"430 1288 OFFCURVE",
"378 1339 OFFCURVE",
"313 1339 CURVE SMOOTH",
"248 1339 OFFCURVE",
"197 1288 OFFCURVE",
"197 1223 CURVE SMOOTH"
);
}
);
width = 1488;
}
);
unicode = F02B;
},
{
glyphname = uniF02C;
lastChange = "2012-07-06 12:25:45 +0200";
layers = (
{
layerId = "1D4A27DC-6245-4CD0-82A2-90C51343519E";
name = Regular;
paths = (
{
closed = 1;
nodes = (
"0 1415 LINE SMOOTH",
"0 1480 OFFCURVE",
"53 1536 OFFCURVE",
"121 1536 CURVE SMOOTH",
"575 1536 LINE SMOOTH",
"608 1536 OFFCURVE",
"647 1528 OFFCURVE",
"686 1512 CURVE SMOOTH",
"725 1495 OFFCURVE",
"761 1474 OFFCURVE",
"782 1450 CURVE SMOOTH",
"1452 702 LINE SMOOTH",
"1496 653 OFFCURVE",
"1499 579 OFFCURVE",
"1452 532 CURVE SMOOTH",
"926 8 LINE SMOOTH",
"879 -39 OFFCURVE",
"799 -44 OFFCURVE",
"756 8 CURVE",
"86 754 LINE SMOOTH",
"39 806 OFFCURVE",
"0 894 OFFCURVE",
"0 961 CURVE SMOOTH"
);
},
{
closed = 1;
nodes = (
"195 1160 OFFCURVE",
"248 1106 OFFCURVE",
"313 1106 CURVE SMOOTH",
"376 1106 OFFCURVE",
"430 1160 OFFCURVE",
"430 1223 CURVE SMOOTH",
"430 1288 OFFCURVE",
"376 1341 OFFCURVE",
"313 1341 CURVE SMOOTH",
"248 1341 OFFCURVE",
"195 1288 OFFCURVE",
"195 1223 CURVE SMOOTH"
);
},
{
closed = 1;
nodes = (
"965 1534 LINE SMOOTH",
"1033 1534 OFFCURVE",
"1128 1497 OFFCURVE",
"1171 1448 CURVE SMOOTH",
"1841 700 LINE SMOOTH",
"1864 675 OFFCURVE",
"1876 646 OFFCURVE",
"1876 613 CURVE SMOOTH",
"1876 580 OFFCURVE",
"1864 551 OFFCURVE",
"1841 528 CURVE SMOOTH",
"1317 4 LINE SMOOTH",
"1270 -43 OFFCURVE",
"1192 -45 OFFCURVE",
"1145 4 CURVE",
"1133 18 LINE",
"1647 532 LINE SMOOTH",
"1694 579 OFFCURVE",
"1692 654 OFFCURVE",
"1647 702 CURVE SMOOTH",
"977 1450 LINE SMOOTH",
"936 1497 OFFCURVE",
"856 1526 OFFCURVE",
"791 1534 CURVE"
);
}
);
width = 1875;
}
);
unicode = F02C;
},
{
glyphname = uniF02D;
lastChange = "2012-07-06 12:25:45 +0200";
layers = (
{
layerId = "1D4A27DC-6245-4CD0-82A2-90C51343519E";
name = Regular;
paths = (
{
closed = 1;
nodes = (
"11 322 OFFCURVE",
"13 332 OFFCURVE",
"14 343 CURVE",
"17 363 OFFCURVE",
"19 384 OFFCURVE",
"14 398 CURVE SMOOTH",
"9 412 OFFCURVE",
"10 429 OFFCURVE",
"28 450 CURVE SMOOTH",
"37 460 OFFCURVE",
"45 472 OFFCURVE",
"53 485 CURVE SMOOTH",
"84 534 OFFCURVE",
"118 616 OFFCURVE",
"131 668 CURVE SMOOTH",
"134 679 OFFCURVE",
"133 689 OFFCURVE",
"130 699 CURVE",
"123 718 OFFCURVE",
"129 737 OFFCURVE",
"146 753 CURVE SMOOTH",
"162 768 OFFCURVE",
"172 786 OFFCURVE",
"188 818 CURVE SMOOTH",
"203 850 OFFCURVE",
"217 885 OFFCURVE",
"225 918 CURVE SMOOTH",
"233 950 OFFCURVE",
"236 968 OFFCURVE",
"231 991 CURVE SMOOTH",
"226 1014 OFFCURVE",
"232 1033 OFFCURVE",
"252 1047 CURVE SMOOTH",
"271 1061 OFFCURVE",
"282 1076 OFFCURVE",
"298 1106 CURVE SMOOTH",
"313 1136 OFFCURVE",
"329 1174 OFFCURVE",
"340 1208 CURVE SMOOTH",
"345 1225 OFFCURVE",
"349 1240 OFFCURVE",
"350 1253 CURVE",
"351 1261 OFFCURVE",
"350 1269 OFFCURVE",
"346 1278 CURVE",
"338 1294 OFFCURVE",
"343 1314 OFFCURVE",
"363 1335 CURVE SMOOTH",
"382 1355 OFFCURVE",
"401 1380 OFFCURVE",
"418 1425 CURVE SMOOTH",
"434 1469 OFFCURVE",
"456 1508 OFFCURVE",
"494 1529 CURVE SMOOTH",
"513 1539 OFFCURVE",
"538 1539 OFFCURVE",
"571 1530 CURVE",
"569 1526 LINE",
"590 1533 OFFCURVE",
"608 1536 OFFCURVE",
"623 1536 CURVE SMOOTH",
"1403 1536 LINE SMOOTH",
"1455 1536 OFFCURVE",
"1495 1517 OFFCURVE",
"1522 1479 CURVE",
"1549 1444 OFFCURVE",
"1555 1401 OFFCURVE",
"1540 1350 CURVE SMOOTH",
"1257 444 LINE SMOOTH",
"1233 360 OFFCURVE",
"1142 293 OFFCURVE",
"1053 293 CURVE SMOOTH",
"160 293 LINE SMOOTH",
"147 293 OFFCURVE",
"132 292 OFFCURVE",
"121 279 CURVE",
"105 252 OFFCURVE",
"122 191 OFFCURVE",
"181 148 CURVE SMOOTH",
"210 126 OFFCURVE",
"239 115 OFFCURVE",
"268 115 CURVE SMOOTH",
"1214 115 LINE SMOOTH",
"1253 115 OFFCURVE",
"1297 149 OFFCURVE",
"1309 184 CURVE SMOOTH",
"1618 1171 LINE",
"1623 1192 OFFCURVE",
"1625 1209 OFFCURVE",
"1622 1229 CURVE",
"1649 1220 OFFCURVE",
"1670 1205 OFFCURVE",
"1683 1186 CURVE",
"1710 1151 OFFCURVE",
"1717 1108 OFFCURVE",
"1702 1057 CURVE SMOOTH",
"1419 152 LINE",
"1395 64 OFFCURVE",
"1305 0 OFFCURVE",
"1214 0 CURVE SMOOTH",
"268 0 LINE SMOOTH",
"213 0 OFFCURVE",
"162 21 OFFCURVE",
"115 54 CURVE SMOOTH",
"68 86 OFFCURVE",
"32 132 OFFCURVE",
"12 184 CURVE SMOOTH",
"-5 229 OFFCURVE",
"-5 272 OFFCURVE",
"10 311 CURVE"
);
},
{
closed = 1;
nodes = (
"500 961 LINE SMOOTH",
"493 935 OFFCURVE",
"502 922 OFFCURVE",
"526 922 CURVE SMOOTH",
"1141 922 LINE SMOOTH",
"1162 922 OFFCURVE",
"1185 938 OFFCURVE",
"1190 961 CURVE",
"1214 1036 LINE",
"1219 1057 OFFCURVE",
"1209 1075 OFFCURVE",
"1188 1075 CURVE SMOOTH",
"573 1075 LINE SMOOTH",
"552 1075 OFFCURVE",
"527 1059 OFFCURVE",
"522 1036 CURVE"
);
},
{
closed = 1;
nodes = (
"569 1190 LINE",
"564 1169 OFFCURVE",
"575 1153 OFFCURVE",
"596 1153 CURVE SMOOTH",
"1210 1153 LINE SMOOTH",
"1231 1153 OFFCURVE",
"1253 1169 OFFCURVE",
"1262 1190 CURVE",
"1284 1268 LINE",
"1289 1289 OFFCURVE",
"1280 1307 OFFCURVE",
"1257 1307 CURVE SMOOTH",
"643 1307 LINE SMOOTH",
"622 1307 OFFCURVE",
"600 1289 OFFCURVE",
"592 1268 CURVE"
);
}
);
width = 1710;
}
);
unicode = F02D;
},
{
glyphname = uniF02E;
lastChange = "2012-07-06 12:25:45 +0200";
layers = (
{
layerId = "1D4A27DC-6245-4CD0-82A2-90C51343519E";
name = Regular;
paths = (
{
closed = 1;
nodes = (
"0 1421 LINE SMOOTH",
"0 1484 OFFCURVE",
"52 1536 OFFCURVE",
"115 1536 CURVE SMOOTH",
"1139 1536 LINE SMOOTH",
"1202 1536 OFFCURVE",
"1253 1484 OFFCURVE",
"1253 1421 CURVE SMOOTH",
"1253 84 LINE SMOOTH",
"1253 21 OFFCURVE",
"1202 -31 OFFCURVE",
"1139 -31 CURVE SMOOTH",
"1108 -31 OFFCURVE",
"1081 -20 OFFCURVE",
"1059 2 CURVE SMOOTH",
"627 434 LINE",
"195 2 LINE SMOOTH",
"173 -20 OFFCURVE",
"146 -31 OFFCURVE",
"115 -31 CURVE SMOOTH",
"52 -31 OFFCURVE",
"0 21 OFFCURVE",
"0 84 CURVE SMOOTH"
);
}
);
width = 1253;
}
);
unicode = F02E;
},
{
glyphname = uniF02F;
lastChange = "2012-07-06 12:25:45 +0200";
layers = (
{
layerId = "1D4A27DC-6245-4CD0-82A2-90C51343519E";
name = Regular;
paths = (
{
closed = 1;
nodes = (
"0 385 LINE SMOOTH",
"0 448 OFFCURVE",
"27 506 OFFCURVE",
"69 547 CURVE SMOOTH",
"111 588 OFFCURVE",
"168 614 OFFCURVE",
"231 614 CURVE SMOOTH",
"1614 614 LINE SMOOTH",
"1677 614 OFFCURVE",
"1735 588 OFFCURVE",
"1776 547 CURVE SMOOTH",
"1816 506 OFFCURVE",
"1843 448 OFFCURVE",
"1843 385 CURVE SMOOTH",
"1843 39 LINE SMOOTH",
"1843 13 OFFCURVE",
"1830 0 OFFCURVE",
"1804 0 CURVE SMOOTH",
"39 0 LINE SMOOTH",
"13 0 OFFCURVE",
"0 13 OFFCURVE",
"0 39 CURVE SMOOTH"
);
},
{
closed = 1;
nodes = (
"268 193 LINE SMOOTH",
"268 172 OFFCURVE",
"286 156 OFFCURVE",
"307 156 CURVE SMOOTH",
"1536 156 LINE SMOOTH",
"1557 156 OFFCURVE",
"1575 170 OFFCURVE",
"1575 193 CURVE SMOOTH",
"1575 231 LINE SMOOTH",
"1575 252 OFFCURVE",
"1557 270 OFFCURVE",
"1536 270 CURVE SMOOTH",
"307 270 LINE SMOOTH",
"286 270 OFFCURVE",
"268 254 OFFCURVE",
"268 231 CURVE SMOOTH"
);
},
{
closed = 1;
nodes = (
"307 729 LINE",
"307 1460 LINE SMOOTH",
"307 1501 OFFCURVE",
"341 1536 OFFCURVE",
"385 1536 CURVE SMOOTH",
"1036 1536 LINE",
"1036 1153 LINE SMOOTH",
"1036 1088 OFFCURVE",
"1088 1036 OFFCURVE",
"1151 1036 CURVE SMOOTH",
"1536 1036 LINE",
"1536 729 LINE"
);
},
{
closed = 1;
nodes = (
"1151 1153 LINE",
"1151 1536 LINE",
"1536 1153 LINE"
);
}
);
width = 1843;
}
);
unicode = F02F;
},
{
glyphname = uniF030;
lastChange = "2012-07-06 12:25:45 +0200";
layers = (
{
layerId = "1D4A27DC-6245-4CD0-82A2-90C51343519E";
name = Regular;
paths = (
{
closed = 1;
nodes = (
"0 1190 LINE SMOOTH",
"0 1253 OFFCURVE",
"52 1307 OFFCURVE",
"115 1307 CURVE SMOOTH",
"481 1307 LINE",
"539 1432 LINE",
"563 1489 OFFCURVE",
"637 1536 OFFCURVE",
"700 1536 CURVE SMOOTH",
"1143 1536 LINE SMOOTH",
"1206 1536 OFFCURVE",
"1280 1489 OFFCURVE",
"1305 1432 CURVE SMOOTH",
"1362 1307 LINE",
"1729 1307 LINE SMOOTH",
"1792 1307 OFFCURVE",
"1843 1253 OFFCURVE",
"1843 1190 CURVE SMOOTH",
"1843 115 LINE SMOOTH",
"1843 52 OFFCURVE",
"1792 0 OFFCURVE",
"1729 0 CURVE SMOOTH",
"115 0 LINE SMOOTH",
"52 0 OFFCURVE",
"0 52 OFFCURVE",
"0 115 CURVE SMOOTH"
);
},
{
closed = 1;
nodes = (
"442 520 OFFCURVE",
"497 401 OFFCURVE",
"583 314 CURVE SMOOTH",
"669 226 OFFCURVE",
"791 172 OFFCURVE",
"922 172 CURVE SMOOTH",
"1053 172 OFFCURVE",
"1175 226 OFFCURVE",
"1261 314 CURVE SMOOTH",
"1347 401 OFFCURVE",
"1401 520 OFFCURVE",
"1401 653 CURVE SMOOTH",
"1401 784 OFFCURVE",
"1347 907 OFFCURVE",
"1261 993 CURVE SMOOTH",
"1175 1079 OFFCURVE",
"1053 1133 OFFCURVE",
"922 1133 CURVE SMOOTH",
"791 1133 OFFCURVE",
"669 1079 OFFCURVE",
"583 993 CURVE SMOOTH",
"497 907 OFFCURVE",
"442 785 OFFCURVE",
"442 653 CURVE SMOOTH"
);
},
{
closed = 1;
nodes = (
"596 744 OFFCURVE",
"632 825 OFFCURVE",
"691 884 CURVE SMOOTH",
"750 943 OFFCURVE",
"831 979 OFFCURVE",
"922 979 CURVE SMOOTH",
"1013 979 OFFCURVE",
"1093 943 OFFCURVE",
"1152 884 CURVE SMOOTH",
"1211 825 OFFCURVE",
"1247 744 OFFCURVE",
"1247 653 CURVE SMOOTH",
"1247 562 OFFCURVE",
"1211 482 OFFCURVE",
"1152 422 CURVE SMOOTH",
"1093 362 OFFCURVE",
"1011 326 OFFCURVE",
"922 326 CURVE SMOOTH",
"831 326 OFFCURVE",
"750 362 OFFCURVE",
"691 422 CURVE SMOOTH",
"632 482 OFFCURVE",
"596 564 OFFCURVE",
"596 653 CURVE SMOOTH"
);
}
);
width = 1843;
}
);
unicode = F030;
},
{
glyphname = uniF031;
lastChange = "2012-07-06 12:25:45 +0200";
layers = (
{
layerId = "1D4A27DC-6245-4CD0-82A2-90C51343519E";
name = Regular;
paths = (
{
closed = 1;
nodes = (
"0 0 LINE",
"2 80 LINE",
"15 85 OFFCURVE",
"41 91 OFFCURVE",
"80 96 CURVE",
"141 108 OFFCURVE",
"177 119 OFFCURVE",
"188 129 CURVE",
"199 136 OFFCURVE",
"215 158 OFFCURVE",
"238 197 CURVE",
"471 811 LINE",
"748 1536 LINE",
"821 1536 LINE",
"874 1536 LINE",
"885 1516 LINE",
"1087 1034 LINE SMOOTH",
"1131 930 OFFCURVE",
"1173 833 OFFCURVE",
"1210 737 CURVE SMOOTH",
"1249 641 OFFCURVE",
"1280 564 OFFCURVE",
"1305 504 CURVE SMOOTH",
"1321 465 OFFCURVE",
"1343 411 OFFCURVE",
"1370 340 CURVE SMOOTH",
"1385 296 OFFCURVE",
"1407 246 OFFCURVE",
"1434 190 CURVE SMOOTH",
"1467 125 OFFCURVE",
"1472 117 OFFCURVE",
"1536 109 CURVE SMOOTH",
"1569 106 OFFCURVE",
"1601 95 OFFCURVE",
"1638 82 CURVE",
"1642 57 OFFCURVE",
"1644 39 OFFCURVE",
"1645 27 CURVE",
"1645 24 OFFCURVE",
"1645 21 OFFCURVE",
"1645 17 CURVE SMOOTH",
"1645 12 OFFCURVE",
"1644 7 OFFCURVE",
"1642 0 CURVE",
"1585 0 OFFCURVE",
"1522 3 OFFCURVE",
"1454 8 CURVE SMOOTH",
"1383 13 OFFCURVE",
"1323 16 OFFCURVE",
"1268 16 CURVE SMOOTH",
"1237 16 OFFCURVE",
"1210 16 OFFCURVE",
"1188 16 CURVE SMOOTH",
"1166 16 OFFCURVE",
"1148 15 OFFCURVE",
"1135 14 CURVE SMOOTH",
"936 4 LINE",
"879 2 LINE",
"879 29 OFFCURVE",
"880 55 OFFCURVE",
"883 80 CURVE",
"1012 106 LINE SMOOTH",
"1050 115 OFFCURVE",
"1072 124 OFFCURVE",
"1079 131 CURVE",
"1095 142 OFFCURVE",
"1094 167 OFFCURVE",
"1085 188 CURVE SMOOTH",
"1038 303 LINE",
"948 530 LINE",
"502 532 LINE",
"494 513 OFFCURVE",
"482 481 OFFCURVE",
"465 436 CURVE SMOOTH",
"448 391 OFFCURVE",
"426 332 OFFCURVE",
"399 258 CURVE SMOOTH",
"384 216 OFFCURVE",
"376 188 OFFCURVE",
"377 174 CURVE",
"377 156 OFFCURVE",
"382 142 OFFCURVE",
"393 131 CURVE",
"412 118 OFFCURVE",
"447 108 OFFCURVE",
"496 100 CURVE",
"505 97 OFFCURVE",
"533 93 OFFCURVE",
"580 88 CURVE",
"580 29 LINE SMOOTH",
"580 18 OFFCURVE",
"579 9 OFFCURVE",
"578 2 CURVE",
"555 2 OFFCURVE",
"514 4 OFFCURVE",
"457 7 CURVE SMOOTH",
"400 10 OFFCURVE",
"325 16 OFFCURVE",
"233 23 CURVE",
"184 14 LINE SMOOTH",
"127 3 OFFCURVE",
"75 0 OFFCURVE",
"20 0 CURVE SMOOTH"
);
},
{
closed = 1;
nodes = (
"549 655 LINE",
"639 654 OFFCURVE",
"711 652 OFFCURVE",
"765 651 CURVE SMOOTH",
"819 650 OFFCURVE",
"854 650 OFFCURVE",
"870 651 CURVE SMOOTH",
"899 653 LINE",
"875 721 OFFCURVE",
"846 802 OFFCURVE",
"807 895 CURVE SMOOTH",
"768 988 OFFCURVE",
"738 1057 OFFCURVE",
"717 1104 CURVE"
);
}
);
width = 1644;
}
);
unicode = F031;
},
{
glyphname = uniF032;
lastChange = "2012-07-06 12:25:45 +0200";
layers = (
{
layerId = "1D4A27DC-6245-4CD0-82A2-90C51343519E";
name = Regular;
paths = (
{
closed = 1;
nodes = (
"2 94 LINE",
"20 98 OFFCURVE",
"43 102 OFFCURVE",
"70 106 CURVE SMOOTH",
"122 114 OFFCURVE",
"162 124 OFFCURVE",
"195 137 CURVE",
"206 156 OFFCURVE",
"212 172 OFFCURVE",
"215 188 CURVE SMOOTH",
"223 232 OFFCURVE",
"225 296 OFFCURVE",
"225 381 CURVE",
"223 879 LINE SMOOTH",
"222 905 OFFCURVE",
"221 951 OFFCURVE",
"220 1018 CURVE SMOOTH",
"219 1085 OFFCURVE",
"218 1173 OFFCURVE",
"215 1284 CURVE SMOOTH",
"212 1343 OFFCURVE",
"208 1379 OFFCURVE",
"203 1393 CURVE",
"200 1398 OFFCURVE",
"196 1402 OFFCURVE",
"190 1403 CURVE",
"177 1412 OFFCURVE",
"154 1418 OFFCURVE",
"121 1419 CURVE SMOOTH",
"106 1419 OFFCURVE",
"67 1423 OFFCURVE",
"6 1432 CURVE",
"2 1516 LINE",
"264 1522 LINE",
"647 1534 LINE",
"692 1534 LINE",
"697 1535 OFFCURVE",
"703 1536 OFFCURVE",
"708 1536 CURVE SMOOTH",
"713 1536 OFFCURVE",
"717 1536 OFFCURVE",
"721 1536 CURVE SMOOTH",
"725 1536 OFFCURVE",
"732 1536 OFFCURVE",
"743 1535 CURVE SMOOTH",
"753 1534 OFFCURVE",
"766 1534 OFFCURVE",
"782 1534 CURVE SMOOTH",
"858 1534 LINE SMOOTH",
"919 1534 OFFCURVE",
"984 1525 OFFCURVE",
"1051 1507 CURVE",
"1075 1502 OFFCURVE",
"1108 1491 OFFCURVE",
"1147 1468 CURVE",
"1231 1427 OFFCURVE",
"1289 1365 OFFCURVE",
"1317 1288 CURVE SMOOTH",
"1330 1249 OFFCURVE",
"1337 1211 OFFCURVE",
"1337 1167 CURVE SMOOTH",
"1337 1071 OFFCURVE",
"1295 997 OFFCURVE",
"1210 934 CURVE SMOOTH",
"1199 926 OFFCURVE",
"1181 916 OFFCURVE",
"1156 904 CURVE SMOOTH",
"1131 891 OFFCURVE",
"1098 875 OFFCURVE",
"1059 856 CURVE",
"1296 801 OFFCURVE",
"1419 651 OFFCURVE",
"1419 475 CURVE SMOOTH",
"1419 427 OFFCURVE",
"1410 373 OFFCURVE",
"1391 313 CURVE SMOOTH",
"1376 269 OFFCURVE",
"1352 230 OFFCURVE",
"1319 197 CURVE",
"1275 149 OFFCURVE",
"1228 113 OFFCURVE",
"1178 88 CURVE",
"1074 41 OFFCURVE",
"946 17 OFFCURVE",
"774 18 CURVE SMOOTH",
"575 23 LINE SMOOTH",
"491 26 OFFCURVE",
"391 18 OFFCURVE",
"274 10 CURVE SMOOTH",
"257 9 OFFCURVE",
"226 7 OFFCURVE",
"181 6 CURVE SMOOTH",
"136 5 OFFCURVE",
"75 3 OFFCURVE",
"0 0 CURVE"
);
},
{
closed = 1;
nodes = (
"537 1403 OFFCURVE",
"538 1376 OFFCURVE",
"541 1343 CURVE",
"544 1275 OFFCURVE",
"548 1185 OFFCURVE",
"545 1065 CURVE SMOOTH",
"545 967 LINE",
"545 889 LINE",
"578 884 OFFCURVE",
"615 881 OFFCURVE",
"655 881 CURVE SMOOTH",
"890 881 OFFCURVE",
"1012 959 OFFCURVE",
"1012 1171 CURVE SMOOTH",
"1012 1246 OFFCURVE",
"983 1309 OFFCURVE",
"926 1358 CURVE SMOOTH",
"870 1409 OFFCURVE",
"784 1434 OFFCURVE",
"668 1434 CURVE SMOOTH",
"633 1434 OFFCURVE",
"589 1429 OFFCURVE",
"537 1419 CURVE"
);
},
{
closed = 1;
nodes = (
"545 457 LINE",
"549 186 LINE SMOOTH",
"549 175 OFFCURVE",
"552 161 OFFCURVE",
"559 143 CURVE",
"658 99 OFFCURVE",
"801 97 OFFCURVE",
"920 152 CURVE SMOOTH",
"975 178 OFFCURVE",
"1015 215 OFFCURVE",
"1042 264 CURVE",
"1066 313 OFFCURVE",
"1081 373 OFFCURVE",
"1081 446 CURVE SMOOTH",
"1081 597 OFFCURVE",
"1006 711 OFFCURVE",
"897 752 CURVE SMOOTH",
"844 774 OFFCURVE",
"760 785 OFFCURVE",
"647 784 CURVE SMOOTH",
"598 784 OFFCURVE",
"566 779 OFFCURVE",
"545 774 CURVE",
"545 631 LINE"
);
}
);
width = 1419;
}
);
unicode = F032;
},
{
glyphname = uniF033;
lastChange = "2012-07-06 12:25:45 +0200";
layers = (
{
layerId = "1D4A27DC-6245-4CD0-82A2-90C51343519E";
name = Regular;
paths = (
{
closed = 1;
nodes = (
"18 84 LINE",
"34 89 OFFCURVE",
"61 96 OFFCURVE",
"96 104 CURVE SMOOTH",
"151 117 OFFCURVE",
"190 130 OFFCURVE",
"217 143 CURVE",
"236 169 OFFCURVE",
"250 203 OFFCURVE",
"258 246 CURVE SMOOTH",
"287 383 LINE",
"344 651 LINE",
"356 715 LINE SMOOTH",
"371 794 OFFCURVE",
"385 854 OFFCURVE",
"398 893 CURVE SMOOTH",
"410 932 OFFCURVE",
"416 953 OFFCURVE",
"416 956 CURVE",
"446 1112 LINE",
"463 1176 LINE",
"485 1311 LINE",
"494 1360 LINE",
"494 1399 LINE",
"464 1414 OFFCURVE",
"415 1424 OFFCURVE",
"346 1427 CURVE",
"337 1427 OFFCURVE",
"329 1428 OFFCURVE",
"323 1429 CURVE SMOOTH",
"316 1430 OFFCURVE",
"310 1430 OFFCURVE",
"305 1430 CURVE",
"326 1534 LINE",
"651 1520 LINE SMOOTH",
"672 1519 OFFCURVE",
"688 1518 OFFCURVE",
"701 1518 CURVE SMOOTH",
"713 1518 OFFCURVE",
"722 1518 OFFCURVE",
"727 1518 CURVE SMOOTH",
"774 1518 OFFCURVE",
"844 1521 OFFCURVE",
"948 1526 CURVE",
"975 1529 OFFCURVE",
"998 1531 OFFCURVE",
"1017 1532 CURVE SMOOTH",
"1035 1533 OFFCURVE",
"1048 1534 OFFCURVE",
"1055 1534 CURVE",
"1054 1527 OFFCURVE",
"1053 1521 OFFCURVE",
"1052 1515 CURVE SMOOTH",
"1051 1508 OFFCURVE",
"1050 1502 OFFCURVE",
"1049 1495 CURVE",
"1044 1482 OFFCURVE",
"1039 1465 OFFCURVE",
"1034 1444 CURVE",
"1001 1433 OFFCURVE",
"965 1423 OFFCURVE",
"924 1413 CURVE SMOOTH",
"880 1402 OFFCURVE",
"845 1392 OFFCURVE",
"819 1382 CURVE",
"811 1360 OFFCURVE",
"803 1331 OFFCURVE",
"795 1294 CURVE SMOOTH",
"787 1261 OFFCURVE",
"783 1235 OFFCURVE",
"780 1212 CURVE",
"749 1079 OFFCURVE",
"726 979 OFFCURVE",
"713 907 CURVE SMOOTH",
"649 596 LINE",
"610 438 LINE",
"567 203 LINE",
"553 158 LINE",
"553 155 OFFCURVE",
"553 152 OFFCURVE",
"553 148 CURVE SMOOTH",
"553 143 OFFCURVE",
"554 138 OFFCURVE",
"555 131 CURVE",
"602 120 OFFCURVE",
"639 114 OFFCURVE",
"678 109 CURVE",
"681 109 OFFCURVE",
"688 108 OFFCURVE",
"700 107 CURVE",
"711 105 OFFCURVE",
"726 103 OFFCURVE",
"745 100 CURVE",
"744 88 OFFCURVE",
"743 77 OFFCURVE",
"742 68 CURVE SMOOTH",
"741 58 OFFCURVE",
"740 49 OFFCURVE",
"739 41 CURVE",
"738 37 OFFCURVE",
"736 32 OFFCURVE",
"735 25 CURVE SMOOTH",
"734 18 OFFCURVE",
"732 10 OFFCURVE",
"729 2 CURVE",
"724 2 OFFCURVE",
"719 2 OFFCURVE",
"715 1 CURVE SMOOTH",
"711 0 OFFCURVE",
"708 0 OFFCURVE",
"705 0 CURVE",
"693 -1 OFFCURVE",
"684 -2 OFFCURVE",
"677 -2 CURVE SMOOTH",
"670 -2 OFFCURVE",
"665 -2 OFFCURVE",
"662 -2 CURVE SMOOTH",
"659 -2 OFFCURVE",
"656 -2 OFFCURVE",
"651 -2 CURVE SMOOTH",
"646 -2 OFFCURVE",
"640 -1 OFFCURVE",
"633 2 CURVE",
"628 2 OFFCURVE",
"613 3 OFFCURVE",
"588 6 CURVE SMOOTH",
"563 9 OFFCURVE",
"528 13 OFFCURVE",
"483 18 CURVE",
"281 20 LINE SMOOTH",
"240 20 OFFCURVE",
"180 16 OFFCURVE",
"100 8 CURVE SMOOTH",
"74 5 OFFCURVE",
"53 3 OFFCURVE",
"37 2 CURVE SMOOTH",
"20 1 OFFCURVE",
"8 0 OFFCURVE",
"0 0 CURVE"
);
}
);
width = 1054;
}
);
unicode = F033;
},
{
glyphname = uniF034;
lastChange = "2012-07-06 12:25:45 +0200";
layers = (
{
layerId = "1D4A27DC-6245-4CD0-82A2-90C51343519E";
name = Regular;
paths = (
{
closed = 1;
nodes = (
"19 1200 OFFCURVE",
"47 1298 OFFCURVE",
"80 1446 CURVE SMOOTH",
"85 1468 OFFCURVE",
"90 1486 OFFCURVE",
"93 1501 CURVE SMOOTH",
"96 1515 OFFCURVE",
"99 1525 OFFCURVE",
"102 1532 CURVE",
"160 1532 LINE",
"165 1524 OFFCURVE",
"167 1520 OFFCURVE",
"170 1513 CURVE",
"189 1475 OFFCURVE",
"203 1451 OFFCURVE",
"211 1442 CURVE",
"222 1439 OFFCURVE",
"265 1438 OFFCURVE",
"340 1438 CURVE SMOOTH",
"363 1438 OFFCURVE",
"386 1438 OFFCURVE",
"407 1439 CURVE SMOOTH",
"428 1440 OFFCURVE",
"448 1440 OFFCURVE",
"467 1440 CURVE",
"487 1442 LINE",
"600 1444 LINE",
"813 1442 LINE",
"1102 1442 LINE",
"1157 1452 LINE",
"1164 1457 OFFCURVE",
"1173 1475 OFFCURVE",
"1184 1505 CURVE",
"1185 1509 OFFCURVE",
"1187 1513 OFFCURVE",
"1188 1518 CURVE",
"1189 1522 OFFCURVE",
"1191 1527 OFFCURVE",
"1194 1534 CURVE",
"1237 1536 LINE",
"1240 1536 OFFCURVE",
"1243 1536 OFFCURVE",
"1248 1536 CURVE SMOOTH",
"1252 1536 OFFCURVE",
"1257 1535 OFFCURVE",
"1264 1534 CURVE",
"1265 1508 OFFCURVE",
"1266 1476 OFFCURVE",
"1265 1437 CURVE SMOOTH",
"1264 1398 OFFCURVE",
"1265 1351 OFFCURVE",
"1266 1298 CURVE SMOOTH",
"1266 1198 LINE",
"1266 1141 LINE SMOOTH",
"1266 1122 OFFCURVE",
"1265 1103 OFFCURVE",
"1262 1090 CURVE",
"1249 1085 OFFCURVE",
"1236 1081 OFFCURVE",
"1225 1079 CURVE",
"1214 1076 OFFCURVE",
"1203 1074 OFFCURVE",
"1194 1071 CURVE",
"1176 1105 OFFCURVE",
"1158 1148 OFFCURVE",
"1141 1200 CURVE SMOOTH",
"1122 1255 OFFCURVE",
"1109 1285 OFFCURVE",
"1104 1292 CURVE",
"1096 1301 OFFCURVE",
"1087 1308 OFFCURVE",
"1077 1313 CURVE",
"1070 1316 OFFCURVE",
"1050 1317 OFFCURVE",
"1017 1317 CURVE SMOOTH",
"984 1317 OFFCURVE",
"938 1317 OFFCURVE",
"879 1317 CURVE SMOOTH",
"870 1317 OFFCURVE",
"859 1317 OFFCURVE",
"848 1317 CURVE SMOOTH",
"837 1317 OFFCURVE",
"825 1316 OFFCURVE",
"813 1313 CURVE",
"809 1284 OFFCURVE",
"807 1260 OFFCURVE",
"807 1241 CURVE SMOOTH",
"809 1090 LINE",
"809 756 LINE",
"811 397 LINE",
"811 250 LINE SMOOTH",
"811 202 OFFCURVE",
"814 163 OFFCURVE",
"821 133 CURVE",
"832 128 OFFCURVE",
"849 122 OFFCURVE",
"877 117 CURVE",
"880 117 OFFCURVE",
"887 116 OFFCURVE",
"898 113 CURVE SMOOTH",
"909 110 OFFCURVE",
"926 106 OFFCURVE",
"948 100 CURVE",
"966 93 OFFCURVE",
"982 87 OFFCURVE",
"997 82 CURVE",
"1000 69 OFFCURVE",
"1001 58 OFFCURVE",
"1001 49 CURVE SMOOTH",
"1001 40 OFFCURVE",
"1001 34 OFFCURVE",
"1001 31 CURVE SMOOTH",
"1001 28 OFFCURVE",
"1001 25 OFFCURVE",
"1001 20 CURVE SMOOTH",
"1001 15 OFFCURVE",
"1000 9 OFFCURVE",
"999 2 CURVE",
"965 2 LINE SMOOTH",
"902 2 OFFCURVE",
"848 5 OFFCURVE",
"801 10 CURVE SMOOTH",
"754 15 OFFCURVE",
"674 18 OFFCURVE",
"557 18 CURVE SMOOTH",
"546 18 OFFCURVE",
"527 17 OFFCURVE",
"500 14 CURVE SMOOTH",
"473 11 OFFCURVE",
"436 8 OFFCURVE",
"391 4 CURVE",
"372 3 OFFCURVE",
"357 2 OFFCURVE",
"346 1 CURVE SMOOTH",
"335 0 OFFCURVE",
"327 0 OFFCURVE",
"322 0 CURVE",
"322 7 OFFCURVE",
"322 12 OFFCURVE",
"321 17 CURVE",
"320 21 OFFCURVE",
"319 24 OFFCURVE",
"319 27 CURVE",
"317 51 LINE",
"317 61 LINE",
"329 82 OFFCURVE",
"356 98 OFFCURVE",
"397 111 CURVE SMOOTH",
"460 129 OFFCURVE",
"505 145 OFFCURVE",
"532 160 CURVE",
"537 173 OFFCURVE",
"540 196 OFFCURVE",
"543 217 CURVE",
"548 308 OFFCURVE",
"552 453 OFFCURVE",
"549 649 CURVE SMOOTH",
"545 1077 LINE SMOOTH",
"544 1137 OFFCURVE",
"543 1185 OFFCURVE",
"543 1220 CURVE SMOOTH",
"543 1255 OFFCURVE",
"542 1279 OFFCURVE",
"539 1292 CURVE",
"539 1303 OFFCURVE",
"531 1313 OFFCURVE",
"520 1313 CURVE",
"509 1316 OFFCURVE",
"488 1317 OFFCURVE",
"457 1317 CURVE SMOOTH",
"426 1317 OFFCURVE",
"383 1317 OFFCURVE",
"330 1317 CURVE SMOOTH",
"210 1317 OFFCURVE",
"197 1308 OFFCURVE",
"90 1143 CURVE SMOOTH",
"75 1120 OFFCURVE",
"63 1108 OFFCURVE",
"55 1108 CURVE",
"24 1124 OFFCURVE",
"8 1140 OFFCURVE",
"0 1151 CURVE"
);
},
{
closed = 1;
nodes = (
"1415 1292 LINE SMOOTH",
"1379 1292 OFFCURVE",
"1372 1312 OFFCURVE",
"1397 1339 CURVE",
"1581 1524 LINE",
"1590 1532 OFFCURVE",
"1601 1536 OFFCURVE",
"1614 1536 CURVE SMOOTH",
"1623 1536 OFFCURVE",
"1634 1532 OFFCURVE",
"1645 1524 CURVE",
"1829 1339 LINE",
"1853 1312 OFFCURVE",
"1847 1292 OFFCURVE",
"1808 1292 CURVE SMOOTH",
"1690 1292 LINE",
"1690 244 LINE",
"1808 244 LINE SMOOTH",
"1847 244 OFFCURVE",
"1853 223 OFFCURVE",
"1829 199 CURVE SMOOTH",
"1645 12 LINE",
"1634 4 OFFCURVE",
"1623 0 OFFCURVE",
"1612 0 CURVE SMOOTH",
"1601 0 OFFCURVE",
"1591 4 OFFCURVE",
"1581 12 CURVE",
"1397 199 LINE SMOOTH",
"1373 223 OFFCURVE",
"1380 244 OFFCURVE",
"1415 244 CURVE SMOOTH",
"1536 244 LINE",
"1536 1292 LINE"
);
}
);
width = 1843;
}
);
unicode = F034;
},
{
glyphname = uniF035;
lastChange = "2012-07-06 12:25:45 +0200";
layers = (
{
layerId = "1D4A27DC-6245-4CD0-82A2-90C51343519E";
name = Regular;
paths = (
{
closed = 1;
nodes = (
"0 245 OFFCURVE",
"4 255 OFFCURVE",
"12 264 CURVE",
"199 449 LINE",
"223 476 OFFCURVE",
"244 466 OFFCURVE",
"244 430 CURVE SMOOTH",
"244 309 LINE",
"1292 309 LINE",
"1292 430 LINE SMOOTH",
"1292 466 OFFCURVE",
"1312 476 OFFCURVE",
"1339 449 CURVE SMOOTH",
"1524 264 LINE SMOOTH",
"1532 256 OFFCURVE",
"1536 246 OFFCURVE",
"1536 233 CURVE SMOOTH",
"1536 221 OFFCURVE",
"1532 211 OFFCURVE",
"1524 203 CURVE SMOOTH",
"1339 16 LINE",
"1312 -8 OFFCURVE",
"1292 -2 OFFCURVE",
"1292 37 CURVE SMOOTH",
"1292 156 LINE",
"244 156 LINE",
"244 37 LINE SMOOTH",
"244 -2 OFFCURVE",
"223 -8 OFFCURVE",
"199 16 CURVE SMOOTH",
"12 203 LINE SMOOTH",
"4 211 OFFCURVE",
"0 221 OFFCURVE",
"0 233 CURVE SMOOTH"
);
},
{
closed = 1;
nodes = (
"19 1272 OFFCURVE",
"45 1349 OFFCURVE",
"78 1466 CURVE",
"86 1502 OFFCURVE",
"93 1523 OFFCURVE",
"98 1536 CURVE",
"154 1536 LINE",
"159 1528 OFFCURVE",
"163 1523 OFFCURVE",
"164 1522 CURVE",
"182 1491 OFFCURVE",
"194 1471 OFFCURVE",
"201 1464 CURVE",
"202 1464 OFFCURVE",
"214 1464 OFFCURVE",
"237 1463 CURVE SMOOTH",
"259 1462 OFFCURVE",
"285 1462 OFFCURVE",
"314 1462 CURVE SMOOTH",
"343 1462 OFFCURVE",
"374 1462 OFFCURVE",
"405 1462 CURVE SMOOTH",
"436 1462 OFFCURVE",
"460 1462 OFFCURVE",
"479 1462 CURVE SMOOTH",
"602 1462 LINE",
"621 1464 LINE",
"729 1464 LINE",
"932 1464 LINE",
"1348 1464 LINE",
"1401 1470 LINE",
"1409 1477 OFFCURVE",
"1417 1492 OFFCURVE",
"1425 1516 CURVE",
"1428 1521 OFFCURVE",
"1431 1527 OFFCURVE",
"1436 1538 CURVE",
"1475 1538 LINE",
"1503 1538 LINE",
"1503 1350 LINE",
"1503 1270 LINE",
"1503 1225 LINE SMOOTH",
"1503 1209 OFFCURVE",
"1502 1197 OFFCURVE",
"1499 1184 CURVE",
"1477 1177 OFFCURVE",
"1456 1172 OFFCURVE",
"1436 1169 CURVE",
"1419 1194 OFFCURVE",
"1402 1228 OFFCURVE",
"1384 1272 CURVE",
"1366 1311 OFFCURVE",
"1355 1336 OFFCURVE",
"1350 1346 CURVE",
"1334 1359 OFFCURVE",
"1329 1362 OFFCURVE",
"1281 1363 CURVE SMOOTH",
"1257 1364 OFFCURVE",
"1229 1364 OFFCURVE",
"1196 1364 CURVE SMOOTH",
"1163 1364 OFFCURVE",
"1129 1364 OFFCURVE",
"1093 1364 CURVE SMOOTH",
"1056 1364 OFFCURVE",
"1024 1364 OFFCURVE",
"995 1364 CURVE SMOOTH",
"987 1364 OFFCURVE",
"978 1364 OFFCURVE",
"967 1364 CURVE SMOOTH",
"956 1364 OFFCURVE",
"944 1363 OFFCURVE",
"932 1362 CURVE",
"929 1338 OFFCURVE",
"928 1318 OFFCURVE",
"928 1305 CURVE SMOOTH",
"932 860 LINE",
"930 741 LINE SMOOTH",
"930 700 OFFCURVE",
"934 670 OFFCURVE",
"942 649 CURVE",
"950 645 OFFCURVE",
"968 641 OFFCURVE",
"995 637 CURVE",
"998 637 OFFCURVE",
"1005 636 OFFCURVE",
"1016 633 CURVE SMOOTH",
"1027 630 OFFCURVE",
"1042 627 OFFCURVE",
"1061 623 CURVE",
"1070 620 OFFCURVE",
"1079 618 OFFCURVE",
"1088 616 CURVE",
"1096 613 OFFCURVE",
"1103 611 OFFCURVE",
"1110 608 CURVE",
"1111 597 OFFCURVE",
"1112 589 OFFCURVE",
"1113 583 CURVE SMOOTH",
"1114 576 OFFCURVE",
"1114 572 OFFCURVE",
"1114 569 CURVE SMOOTH",
"1114 566 OFFCURVE",
"1114 563 OFFCURVE",
"1113 559 CURVE SMOOTH",
"1112 555 OFFCURVE",
"1112 550 OFFCURVE",
"1112 545 CURVE",
"1079 545 LINE SMOOTH",
"1016 545 OFFCURVE",
"964 547 OFFCURVE",
"922 551 CURVE SMOOTH",
"878 555 OFFCURVE",
"799 557 OFFCURVE",
"686 557 CURVE SMOOTH",
"677 557 OFFCURVE",
"659 556 OFFCURVE",
"633 554 CURVE SMOOTH",
"607 552 OFFCURVE",
"572 550 OFFCURVE",
"528 547 CURVE SMOOTH",
"510 546 OFFCURVE",
"496 545 OFFCURVE",
"485 544 CURVE SMOOTH",
"474 543 OFFCURVE",
"466 543 OFFCURVE",
"461 543 CURVE",
"461 554 OFFCURVE",
"460 560 OFFCURVE",
"459 563 CURVE",
"459 584 LINE",
"459 592 LINE",
"472 610 OFFCURVE",
"497 623 OFFCURVE",
"532 631 CURVE SMOOTH",
"592 644 OFFCURVE",
"636 658 OFFCURVE",
"664 672 CURVE",
"669 683 OFFCURVE",
"671 697 OFFCURVE",
"674 717 CURVE",
"674 729 OFFCURVE",
"674 753 OFFCURVE",
"675 788 CURVE SMOOTH",
"676 823 OFFCURVE",
"676 863 OFFCURVE",
"676 908 CURVE SMOOTH",
"676 998 OFFCURVE",
"674 1103 OFFCURVE",
"673 1189 CURVE SMOOTH",
"672 1232 OFFCURVE",
"672 1267 OFFCURVE",
"671 1296 CURVE SMOOTH",
"670 1325 OFFCURVE",
"670 1340 OFFCURVE",
"670 1343 CURVE SMOOTH",
"670 1354 OFFCURVE",
"666 1357 OFFCURVE",
"651 1362 CURVE",
"642 1363 OFFCURVE",
"622 1364 OFFCURVE",
"592 1364 CURVE SMOOTH",
"562 1364 OFFCURVE",
"521 1364 OFFCURVE",
"469 1364 CURVE SMOOTH",
"456 1364 OFFCURVE",
"435 1364 OFFCURVE",
"407 1363 CURVE SMOOTH",
"379 1362 OFFCURVE",
"351 1362 OFFCURVE",
"322 1361 CURVE SMOOTH",
"293 1360 OFFCURVE",
"267 1359 OFFCURVE",
"244 1357 CURVE SMOOTH",
"221 1355 OFFCURVE",
"207 1353 OFFCURVE",
"203 1350 CURVE",
"176 1333 OFFCURVE",
"137 1292 OFFCURVE",
"86 1227 CURVE",
"73 1208 OFFCURVE",
"62 1198 OFFCURVE",
"53 1198 CURVE",
"22 1211 OFFCURVE",
"8 1225 OFFCURVE",
"0 1233 CURVE"
);
}
);
width = 1536;
}
);
unicode = F035;
},
{
glyphname = uniF036;
lastChange = "2012-07-06 12:25:45 +0200";
layers = (
{
layerId = "1D4A27DC-6245-4CD0-82A2-90C51343519E";
name = Regular;
paths = (
{
closed = 1;
nodes = (
"0 193 LINE SMOOTH",
"0 234 OFFCURVE",
"34 268 OFFCURVE",
"78 268 CURVE SMOOTH",
"1767 268 LINE SMOOTH",
"1808 268 OFFCURVE",
"1843 233 OFFCURVE",
"1843 193 CURVE SMOOTH",
"1843 78 LINE SMOOTH",
"1843 34 OFFCURVE",
"1808 0 OFFCURVE",
"1767 0 CURVE SMOOTH",
"78 0 LINE SMOOTH",
"34 0 OFFCURVE",
"0 34 OFFCURVE",
"0 78 CURVE SMOOTH"
);
},
{
closed = 1;
nodes = (
"0 614 LINE SMOOTH",
"0 658 OFFCURVE",
"34 692 OFFCURVE",
"78 692 CURVE SMOOTH",
"1153 692 LINE SMOOTH",
"1194 692 OFFCURVE",
"1229 658 OFFCURVE",
"1229 614 CURVE SMOOTH",
"1229 500 LINE SMOOTH",
"1229 456 OFFCURVE",
"1194 422 OFFCURVE",
"1153 422 CURVE SMOOTH",
"78 422 LINE SMOOTH",
"34 422 OFFCURVE",
"0 456 OFFCURVE",
"0 500 CURVE SMOOTH"
);
},
{
closed = 1;
nodes = (
"0 1036 LINE SMOOTH",
"0 1080 OFFCURVE",
"34 1114 OFFCURVE",
"78 1114 CURVE SMOOTH",
"1614 1114 LINE SMOOTH",
"1655 1114 OFFCURVE",
"1690 1080 OFFCURVE",
"1690 1036 CURVE SMOOTH",
"1690 922 LINE SMOOTH",
"1690 878 OFFCURVE",
"1655 846 OFFCURVE",
"1614 846 CURVE SMOOTH",
"78 846 LINE SMOOTH",
"34 846 OFFCURVE",
"0 878 OFFCURVE",
"0 922 CURVE SMOOTH"
);
},
{
closed = 1;
nodes = (
"0 1460 LINE SMOOTH",
"0 1501 OFFCURVE",
"34 1536 OFFCURVE",
"78 1536 CURVE SMOOTH",
"999 1536 LINE SMOOTH",
"1040 1536 OFFCURVE",
"1075 1501 OFFCURVE",
"1075 1460 CURVE SMOOTH",
"1075 1343 LINE SMOOTH",
"1075 1302 OFFCURVE",
"1040 1268 OFFCURVE",
"999 1268 CURVE SMOOTH",
"78 1268 LINE SMOOTH",
"34 1268 OFFCURVE",
"0 1303 OFFCURVE",
"0 1343 CURVE SMOOTH"
);
}
);
width = 1843;
}
);
unicode = F036;
},
{
glyphname = uniF037;
lastChange = "2012-07-06 12:25:45 +0200";
layers = (
{
layerId = "1D4A27DC-6245-4CD0-82A2-90C51343519E";
name = Regular;
paths = (
{
closed = 1;
nodes = (
"0 193 LINE SMOOTH",
"0 234 OFFCURVE",
"34 268 OFFCURVE",
"78 268 CURVE SMOOTH",
"1767 268 LINE SMOOTH",
"1808 268 OFFCURVE",
"1843 233 OFFCURVE",
"1843 193 CURVE SMOOTH",
"1843 78 LINE SMOOTH",
"1843 34 OFFCURVE",
"1808 0 OFFCURVE",
"1767 0 CURVE SMOOTH",
"78 0 LINE SMOOTH",
"34 0 OFFCURVE",
"0 34 OFFCURVE",
"0 78 CURVE SMOOTH"
);
},
{
closed = 1;
nodes = (
"78 1036 LINE SMOOTH",
"78 1080 OFFCURVE",
"110 1114 OFFCURVE",
"154 1114 CURVE SMOOTH",
"1690 1114 LINE SMOOTH",
"1734 1114 OFFCURVE",
"1767 1080 OFFCURVE",
"1767 1036 CURVE SMOOTH",
"1767 922 LINE SMOOTH",
"1767 878 OFFCURVE",
"1733 846 OFFCURVE",
"1690 846 CURVE SMOOTH",
"154 846 LINE SMOOTH",
"110 846 OFFCURVE",
"78 878 OFFCURVE",
"78 922 CURVE SMOOTH"
);
},
{
closed = 1;
nodes = (
"307 614 LINE SMOOTH",
"307 658 OFFCURVE",
"341 692 OFFCURVE",
"385 692 CURVE SMOOTH",
"1460 692 LINE SMOOTH",
"1501 692 OFFCURVE",
"1536 658 OFFCURVE",
"1536 614 CURVE SMOOTH",
"1536 500 LINE SMOOTH",
"1536 456 OFFCURVE",
"1501 422 OFFCURVE",
"1460 422 CURVE SMOOTH",
"385 422 LINE SMOOTH",
"341 422 OFFCURVE",
"307 456 OFFCURVE",
"307 500 CURVE SMOOTH"
);
},
{
closed = 1;
nodes = (
"385 1460 LINE SMOOTH",
"385 1501 OFFCURVE",
"417 1536 OFFCURVE",
"461 1536 CURVE SMOOTH",
"1382 1536 LINE SMOOTH",
"1426 1536 OFFCURVE",
"1460 1501 OFFCURVE",
"1460 1460 CURVE SMOOTH",
"1460 1343 LINE SMOOTH",
"1460 1302 OFFCURVE",
"1426 1268 OFFCURVE",
"1382 1268 CURVE SMOOTH",
"461 1268 LINE SMOOTH",
"417 1268 OFFCURVE",
"385 1303 OFFCURVE",
"385 1343 CURVE SMOOTH"
);
}
);
width = 1843;
}
);
unicode = F037;
},
{
glyphname = uniF038;
lastChange = "2012-07-06 12:25:45 +0200";
layers = (
{
layerId = "1D4A27DC-6245-4CD0-82A2-90C51343519E";
name = Regular;
paths = (
{
closed = 1;
nodes = (
"0 193 LINE SMOOTH",
"0 234 OFFCURVE",
"34 268 OFFCURVE",
"78 268 CURVE SMOOTH",
"1767 268 LINE SMOOTH",
"1808 268 OFFCURVE",
"1843 233 OFFCURVE",
"1843 193 CURVE SMOOTH",
"1843 78 LINE SMOOTH",
"1843 34 OFFCURVE",
"1808 0 OFFCURVE",
"1767 0 CURVE SMOOTH",
"78 0 LINE SMOOTH",
"34 0 OFFCURVE",
"0 34 OFFCURVE",
"0 78 CURVE SMOOTH"
);
},
{
closed = 1;
nodes = (
"154 1036 LINE SMOOTH",
"154 1080 OFFCURVE",
"188 1114 OFFCURVE",
"231 1114 CURVE SMOOTH",
"1767 1114 LINE SMOOTH",
"1808 1114 OFFCURVE",
"1843 1080 OFFCURVE",
"1843 1036 CURVE SMOOTH",
"1843 922 LINE SMOOTH",
"1843 878 OFFCURVE",
"1808 846 OFFCURVE",
"1767 846 CURVE SMOOTH",
"231 846 LINE SMOOTH",
"187 846 OFFCURVE",
"154 878 OFFCURVE",
"154 922 CURVE SMOOTH"
);
},
{
closed = 1;
nodes = (
"614 614 LINE SMOOTH",
"614 658 OFFCURVE",
"648 692 OFFCURVE",
"692 692 CURVE SMOOTH",
"1767 692 LINE SMOOTH",
"1808 692 OFFCURVE",
"1843 658 OFFCURVE",
"1843 614 CURVE SMOOTH",
"1843 500 LINE SMOOTH",
"1843 456 OFFCURVE",
"1808 422 OFFCURVE",
"1767 422 CURVE SMOOTH",
"692 422 LINE SMOOTH",
"648 422 OFFCURVE",
"614 456 OFFCURVE",
"614 500 CURVE SMOOTH"
);
},
{
closed = 1;
nodes = (
"768 1460 LINE SMOOTH",
"768 1501 OFFCURVE",
"802 1536 OFFCURVE",
"846 1536 CURVE SMOOTH",
"1767 1536 LINE SMOOTH",
"1808 1536 OFFCURVE",
"1843 1501 OFFCURVE",
"1843 1460 CURVE SMOOTH",
"1843 1343 LINE SMOOTH",
"1843 1302 OFFCURVE",
"1808 1268 OFFCURVE",
"1767 1268 CURVE SMOOTH",
"846 1268 LINE SMOOTH",
"802 1268 OFFCURVE",
"768 1303 OFFCURVE",
"768 1343 CURVE SMOOTH"
);
}
);
width = 1843;
}
);
unicode = F038;
},
{
glyphname = uniF039;
lastChange = "2012-07-06 12:25:45 +0200";
layers = (
{
layerId = "1D4A27DC-6245-4CD0-82A2-90C51343519E";
name = Regular;
paths = (
{
closed = 1;
nodes = (
"0 193 LINE SMOOTH",
"0 234 OFFCURVE",
"34 268 OFFCURVE",
"78 268 CURVE SMOOTH",
"1767 268 LINE SMOOTH",
"1808 268 OFFCURVE",
"1843 233 OFFCURVE",
"1843 193 CURVE SMOOTH",
"1843 78 LINE SMOOTH",
"1843 34 OFFCURVE",
"1808 0 OFFCURVE",
"1767 0 CURVE SMOOTH",
"78 0 LINE SMOOTH",
"34 0 OFFCURVE",
"0 34 OFFCURVE",
"0 78 CURVE SMOOTH"
);
},
{
closed = 1;
nodes = (
"0 614 LINE SMOOTH",
"0 658 OFFCURVE",
"34 692 OFFCURVE",
"78 692 CURVE SMOOTH",
"1767 692 LINE SMOOTH",
"1808 692 OFFCURVE",
"1843 658 OFFCURVE",
"1843 614 CURVE SMOOTH",
"1843 500 LINE SMOOTH",
"1843 456 OFFCURVE",
"1808 422 OFFCURVE",
"1767 422 CURVE SMOOTH",
"78 422 LINE SMOOTH",
"34 422 OFFCURVE",
"0 456 OFFCURVE",
"0 500 CURVE SMOOTH"
);
},
{
closed = 1;
nodes = (
"0 1036 LINE SMOOTH",
"0 1080 OFFCURVE",
"34 1114 OFFCURVE",
"78 1114 CURVE SMOOTH",
"1767 1114 LINE SMOOTH",
"1808 1114 OFFCURVE",
"1843 1080 OFFCURVE",
"1843 1036 CURVE SMOOTH",
"1843 922 LINE SMOOTH",
"1843 878 OFFCURVE",
"1808 846 OFFCURVE",
"1767 846 CURVE SMOOTH",
"78 846 LINE SMOOTH",
"34 846 OFFCURVE",
"0 878 OFFCURVE",
"0 922 CURVE SMOOTH"
);
},
{
closed = 1;
nodes = (
"0 1460 LINE SMOOTH",
"0 1501 OFFCURVE",
"34 1536 OFFCURVE",
"78 1536 CURVE SMOOTH",
"1767 1536 LINE SMOOTH",
"1808 1536 OFFCURVE",
"1843 1501 OFFCURVE",
"1843 1460 CURVE SMOOTH",
"1843 1343 LINE SMOOTH",
"1843 1302 OFFCURVE",
"1808 1268 OFFCURVE",
"1767 1268 CURVE SMOOTH",
"78 1268 LINE SMOOTH",
"34 1268 OFFCURVE",
"0 1303 OFFCURVE",
"0 1343 CURVE SMOOTH"
);
}
);
width = 1843;
}
);
unicode = F039;
},
{
glyphname = uniF03A;
lastChange = "2012-07-06 12:25:45 +0200";
layers = (
{
layerId = "1D4A27DC-6245-4CD0-82A2-90C51343519E";
name = Regular;
paths = (
{
closed = 1;
nodes = (
"0 193 LINE SMOOTH",
"0 234 OFFCURVE",
"34 268 OFFCURVE",
"78 268 CURVE SMOOTH",
"231 268 LINE SMOOTH",
"272 268 OFFCURVE",
"307 233 OFFCURVE",
"307 193 CURVE SMOOTH",
"307 78 LINE SMOOTH",
"307 34 OFFCURVE",
"272 0 OFFCURVE",
"231 0 CURVE SMOOTH",
"78 0 LINE SMOOTH",
"34 0 OFFCURVE",
"0 34 OFFCURVE",
"0 78 CURVE SMOOTH"
);
},
{
closed = 1;
nodes = (
"0 614 LINE SMOOTH",
"0 658 OFFCURVE",
"34 692 OFFCURVE",
"78 692 CURVE SMOOTH",
"231 692 LINE SMOOTH",
"272 692 OFFCURVE",
"307 658 OFFCURVE",
"307 614 CURVE SMOOTH",
"307 500 LINE SMOOTH",
"307 456 OFFCURVE",
"272 422 OFFCURVE",
"231 422 CURVE SMOOTH",
"78 422 LINE SMOOTH",
"34 422 OFFCURVE",
"0 456 OFFCURVE",
"0 500 CURVE SMOOTH"
);
},
{
closed = 1;
nodes = (
"0 1036 LINE SMOOTH",
"0 1080 OFFCURVE",
"34 1114 OFFCURVE",
"78 1114 CURVE SMOOTH",
"231 1114 LINE SMOOTH",
"272 1114 OFFCURVE",
"307 1080 OFFCURVE",
"307 1036 CURVE SMOOTH",
"307 922 LINE SMOOTH",
"307 878 OFFCURVE",
"272 846 OFFCURVE",
"231 846 CURVE SMOOTH",
"78 846 LINE SMOOTH",
"34 846 OFFCURVE",
"0 878 OFFCURVE",
"0 922 CURVE SMOOTH"
);
},
{
closed = 1;
nodes = (
"0 1460 LINE SMOOTH",
"0 1501 OFFCURVE",
"34 1536 OFFCURVE",
"78 1536 CURVE SMOOTH",
"231 1536 LINE SMOOTH",
"272 1536 OFFCURVE",
"307 1501 OFFCURVE",
"307 1460 CURVE SMOOTH",
"307 1343 LINE SMOOTH",
"307 1302 OFFCURVE",
"272 1268 OFFCURVE",
"231 1268 CURVE SMOOTH",
"78 1268 LINE SMOOTH",
"34 1268 OFFCURVE",
"0 1303 OFFCURVE",
"0 1343 CURVE SMOOTH"
);
},
{
closed = 1;
nodes = (
"461 193 LINE SMOOTH",
"461 234 OFFCURVE",
"495 268 OFFCURVE",
"539 268 CURVE SMOOTH",
"1767 268 LINE SMOOTH",
"1808 268 OFFCURVE",
"1843 233 OFFCURVE",
"1843 193 CURVE SMOOTH",
"1843 78 LINE SMOOTH",
"1843 34 OFFCURVE",
"1808 0 OFFCURVE",
"1767 0 CURVE SMOOTH",
"539 0 LINE SMOOTH",
"495 0 OFFCURVE",
"461 34 OFFCURVE",
"461 78 CURVE SMOOTH"
);
},
{
closed = 1;
nodes = (
"461 614 LINE SMOOTH",
"461 658 OFFCURVE",
"495 692 OFFCURVE",
"539 692 CURVE SMOOTH",
"1767 692 LINE SMOOTH",
"1808 692 OFFCURVE",
"1843 658 OFFCURVE",
"1843 614 CURVE SMOOTH",
"1843 500 LINE SMOOTH",
"1843 456 OFFCURVE",
"1808 422 OFFCURVE",
"1767 422 CURVE SMOOTH",
"539 422 LINE SMOOTH",
"495 422 OFFCURVE",
"461 456 OFFCURVE",
"461 500 CURVE SMOOTH"
);
},
{
closed = 1;
nodes = (
"461 1036 LINE SMOOTH",
"461 1080 OFFCURVE",
"495 1114 OFFCURVE",
"539 1114 CURVE SMOOTH",
"1767 1114 LINE SMOOTH",
"1808 1114 OFFCURVE",
"1843 1080 OFFCURVE",
"1843 1036 CURVE SMOOTH",
"1843 922 LINE SMOOTH",
"1843 878 OFFCURVE",
"1808 846 OFFCURVE",
"1767 846 CURVE SMOOTH",
"539 846 LINE SMOOTH",
"495 846 OFFCURVE",
"461 878 OFFCURVE",
"461 922 CURVE SMOOTH"
);
},
{
closed = 1;
nodes = (
"461 1460 LINE SMOOTH",
"461 1501 OFFCURVE",
"495 1536 OFFCURVE",
"539 1536 CURVE SMOOTH",
"1767 1536 LINE SMOOTH",
"1808 1536 OFFCURVE",
"1843 1501 OFFCURVE",
"1843 1460 CURVE SMOOTH",
"1843 1343 LINE SMOOTH",
"1843 1302 OFFCURVE",
"1808 1268 OFFCURVE",
"1767 1268 CURVE SMOOTH",
"539 1268 LINE SMOOTH",
"495 1268 OFFCURVE",
"461 1303 OFFCURVE",
"461 1343 CURVE SMOOTH"
);
}
);
width = 1843;
}
);
unicode = F03A;
},
{
glyphname = uniF03B;
lastChange = "2012-07-06 12:25:45 +0200";
layers = (
{
layerId = "1D4A27DC-6245-4CD0-82A2-90C51343519E";
name = Regular;
paths = (
{
closed = 1;
nodes = (
"0 831 LINE SMOOTH",
"0 857 OFFCURVE",
"13 870 OFFCURVE",
"39 870 CURVE SMOOTH",
"252 870 LINE",
"252 1024 LINE SMOOTH",
"252 1065 OFFCURVE",
"278 1075 OFFCURVE",
"307 1044 CURVE SMOOTH",
"522 829 LINE SMOOTH",
"543 808 OFFCURVE",
"545 781 OFFCURVE",
"522 758 CURVE SMOOTH",
"307 543 LINE SMOOTH",
"276 512 OFFCURVE",
"252 521 OFFCURVE",
"252 565 CURVE SMOOTH",
"252 717 LINE",
"39 717 LINE SMOOTH",
"13 717 OFFCURVE",
"0 730 OFFCURVE",
"0 756 CURVE SMOOTH"
);
},
{
closed = 1;
nodes = (
"614 1497 LINE SMOOTH",
"614 1523 OFFCURVE",
"627 1536 OFFCURVE",
"653 1536 CURVE SMOOTH",
"729 1536 LINE SMOOTH",
"755 1536 OFFCURVE",
"768 1523 OFFCURVE",
"768 1497 CURVE SMOOTH",
"768 39 LINE SMOOTH",
"768 13 OFFCURVE",
"755 0 OFFCURVE",
"729 0 CURVE SMOOTH",
"653 0 LINE SMOOTH",
"627 0 OFFCURVE",
"614 13 OFFCURVE",
"614 39 CURVE SMOOTH"
);
},
{
closed = 1;
nodes = (
"922 193 LINE SMOOTH",
"922 234 OFFCURVE",
"956 268 OFFCURVE",
"999 268 CURVE SMOOTH",
"1767 268 LINE SMOOTH",
"1808 268 OFFCURVE",
"1843 233 OFFCURVE",
"1843 193 CURVE SMOOTH",
"1843 78 LINE SMOOTH",
"1843 34 OFFCURVE",
"1808 0 OFFCURVE",
"1767 0 CURVE SMOOTH",
"999 0 LINE SMOOTH",
"955 0 OFFCURVE",
"922 34 OFFCURVE",
"922 78 CURVE SMOOTH"
);
},
{
closed = 1;
nodes = (
"922 614 LINE SMOOTH",
"922 658 OFFCURVE",
"956 692 OFFCURVE",
"999 692 CURVE SMOOTH",
"1614 692 LINE SMOOTH",
"1655 692 OFFCURVE",
"1690 658 OFFCURVE",
"1690 614 CURVE SMOOTH",
"1690 500 LINE SMOOTH",
"1690 456 OFFCURVE",
"1655 422 OFFCURVE",
"1614 422 CURVE SMOOTH",
"999 422 LINE SMOOTH",
"955 422 OFFCURVE",
"922 456 OFFCURVE",
"922 500 CURVE SMOOTH"
);
},
{
closed = 1;
nodes = (
"922 1036 LINE SMOOTH",
"922 1080 OFFCURVE",
"956 1114 OFFCURVE",
"999 1114 CURVE SMOOTH",
"1690 1114 LINE SMOOTH",
"1734 1114 OFFCURVE",
"1767 1080 OFFCURVE",
"1767 1036 CURVE SMOOTH",
"1767 922 LINE SMOOTH",
"1767 878 OFFCURVE",
"1733 846 OFFCURVE",
"1690 846 CURVE SMOOTH",
"999 846 LINE SMOOTH",
"955 846 OFFCURVE",
"922 878 OFFCURVE",
"922 922 CURVE SMOOTH"
);
},
{
closed = 1;
nodes = (
"922 1460 LINE SMOOTH",
"922 1501 OFFCURVE",
"956 1536 OFFCURVE",
"999 1536 CURVE SMOOTH",
"1536 1536 LINE SMOOTH",
"1580 1536 OFFCURVE",
"1614 1501 OFFCURVE",
"1614 1460 CURVE SMOOTH",
"1614 1343 LINE SMOOTH",
"1614 1302 OFFCURVE",
"1580 1268 OFFCURVE",
"1536 1268 CURVE SMOOTH",
"999 1268 LINE SMOOTH",
"955 1268 OFFCURVE",
"922 1303 OFFCURVE",
"922 1343 CURVE SMOOTH"
);
}
);
width = 1843;
}
);
unicode = F03B;
},
{
glyphname = uniF03C;
lastChange = "2012-07-06 12:25:45 +0200";
layers = (
{
layerId = "1D4A27DC-6245-4CD0-82A2-90C51343519E";
name = Regular;
paths = (
{
closed = 1;
nodes = (
"0 193 LINE SMOOTH",
"0 234 OFFCURVE",
"35 268 OFFCURVE",
"76 268 CURVE SMOOTH",
"844 268 LINE SMOOTH",
"888 268 OFFCURVE",
"922 233 OFFCURVE",
"922 193 CURVE SMOOTH",
"922 78 LINE SMOOTH",
"922 34 OFFCURVE",
"888 0 OFFCURVE",
"844 0 CURVE SMOOTH",
"76 0 LINE SMOOTH",
"35 0 OFFCURVE",
"0 34 OFFCURVE",
"0 78 CURVE SMOOTH"
);
},
{
closed = 1;
nodes = (
"0 614 LINE SMOOTH",
"0 658 OFFCURVE",
"35 692 OFFCURVE",
"76 692 CURVE SMOOTH",
"690 692 LINE SMOOTH",
"734 692 OFFCURVE",
"768 658 OFFCURVE",
"768 614 CURVE SMOOTH",
"768 500 LINE SMOOTH",
"768 456 OFFCURVE",
"734 422 OFFCURVE",
"690 422 CURVE SMOOTH",
"76 422 LINE SMOOTH",
"35 422 OFFCURVE",
"0 456 OFFCURVE",
"0 500 CURVE SMOOTH"
);
},
{
closed = 1;
nodes = (
"0 1036 LINE SMOOTH",
"0 1080 OFFCURVE",
"35 1114 OFFCURVE",
"76 1114 CURVE SMOOTH",
"768 1114 LINE SMOOTH",
"809 1114 OFFCURVE",
"844 1080 OFFCURVE",
"844 1036 CURVE SMOOTH",
"844 922 LINE SMOOTH",
"844 878 OFFCURVE",
"809 846 OFFCURVE",
"768 846 CURVE SMOOTH",
"76 846 LINE SMOOTH",
"35 846 OFFCURVE",
"0 878 OFFCURVE",
"0 922 CURVE SMOOTH"
);
},
{
closed = 1;
nodes = (
"0 1460 LINE SMOOTH",
"0 1501 OFFCURVE",
"35 1536 OFFCURVE",
"76 1536 CURVE SMOOTH",
"614 1536 LINE SMOOTH",
"655 1536 OFFCURVE",
"690 1501 OFFCURVE",
"690 1460 CURVE SMOOTH",
"690 1343 LINE SMOOTH",
"690 1302 OFFCURVE",
"655 1268 OFFCURVE",
"614 1268 CURVE SMOOTH",
"76 1268 LINE SMOOTH",
"35 1268 OFFCURVE",
"0 1303 OFFCURVE",
"0 1343 CURVE SMOOTH"
);
},
{
closed = 1;
nodes = (
"1075 1497 LINE SMOOTH",
"1075 1523 OFFCURVE",
"1088 1536 OFFCURVE",
"1114 1536 CURVE SMOOTH",
"1190 1536 LINE SMOOTH",
"1211 1536 OFFCURVE",
"1229 1518 OFFCURVE",
"1229 1497 CURVE SMOOTH",
"1229 39 LINE SMOOTH",
"1229 18 OFFCURVE",
"1211 0 OFFCURVE",
"1190 0 CURVE SMOOTH",
"1114 0 LINE SMOOTH",
"1088 0 OFFCURVE",
"1075 13 OFFCURVE",
"1075 39 CURVE SMOOTH"
);
},
{
closed = 1;
nodes = (
"1305 754 OFFCURVE",
"1310 765 OFFCURVE",
"1319 778 CURVE",
"1536 993 LINE SMOOTH",
"1567 1024 OFFCURVE",
"1589 1015 OFFCURVE",
"1589 971 CURVE SMOOTH",
"1589 819 LINE",
"1804 819 LINE SMOOTH",
"1825 819 OFFCURVE",
"1843 803 OFFCURVE",
"1843 780 CURVE SMOOTH",
"1843 705 LINE SMOOTH",
"1843 684 OFFCURVE",
"1827 666 OFFCURVE",
"1804 666 CURVE SMOOTH",
"1589 666 LINE",
"1589 512 LINE SMOOTH",
"1589 471 OFFCURVE",
"1567 460 OFFCURVE",
"1536 489 CURVE",
"1319 707 LINE",
"1310 719 OFFCURVE",
"1305 731 OFFCURVE",
"1305 743 CURVE SMOOTH"
);
}
);
width = 1843;
}
);
unicode = F03C;
},
{
glyphname = uniF03D;
lastChange = "2012-07-06 12:25:45 +0200";
layers = (
{
layerId = "1D4A27DC-6245-4CD0-82A2-90C51343519E";
name = Regular;
paths = (
{
closed = 1;
nodes = (
"0 1092 LINE SMOOTH",
"0 1155 OFFCURVE",
"27 1213 OFFCURVE",
"69 1254 CURVE SMOOTH",
"111 1294 OFFCURVE",
"168 1321 OFFCURVE",
"231 1321 CURVE SMOOTH",
"999 1321 LINE SMOOTH",
"1062 1321 OFFCURVE",
"1120 1294 OFFCURVE",
"1161 1254 CURVE SMOOTH",
"1202 1213 OFFCURVE",
"1229 1155 OFFCURVE",
"1229 1092 CURVE SMOOTH",
"1229 852 LINE",
"1712 1323 LINE SMOOTH",
"1727 1338 OFFCURVE",
"1746 1346 OFFCURVE",
"1767 1346 CURVE",
"1776 1345 OFFCURVE",
"1785 1343 OFFCURVE",
"1796 1339 CURVE",
"1827 1326 OFFCURVE",
"1843 1303 OFFCURVE",
"1843 1270 CURVE SMOOTH",
"1843 143 LINE SMOOTH",
"1843 110 OFFCURVE",
"1827 87 OFFCURVE",
"1796 74 CURVE",
"1785 70 OFFCURVE",
"1776 68 OFFCURVE",
"1767 68 CURVE SMOOTH",
"1745 68 OFFCURVE",
"1727 75 OFFCURVE",
"1712 90 CURVE SMOOTH",
"1229 561 LINE",
"1229 324 LINE SMOOTH",
"1229 261 OFFCURVE",
"1202 204 OFFCURVE",
"1161 161 CURVE SMOOTH",
"1120 118 OFFCURVE",
"1063 92 OFFCURVE",
"999 92 CURVE SMOOTH",
"231 92 LINE SMOOTH",
"168 92 OFFCURVE",
"111 118 OFFCURVE",
"69 161 CURVE SMOOTH",
"27 204 OFFCURVE",
"0 260 OFFCURVE",
"0 324 CURVE SMOOTH"
);
}
);
width = 1843;
}
);
unicode = F03D;
},
{
glyphname = uniF03E;
lastChange = "2012-07-06 12:25:45 +0200";
layers = (
{
layerId = "1D4A27DC-6245-4CD0-82A2-90C51343519E";
name = Regular;
paths = (
{
closed = 1;
nodes = (
"0 1421 LINE SMOOTH",
"0 1484 OFFCURVE",
"52 1536 OFFCURVE",
"115 1536 CURVE SMOOTH",
"1729 1536 LINE SMOOTH",
"1792 1536 OFFCURVE",
"1843 1484 OFFCURVE",
"1843 1421 CURVE SMOOTH",
"1843 115 LINE SMOOTH",
"1843 52 OFFCURVE",
"1792 0 OFFCURVE",
"1729 0 CURVE SMOOTH",
"115 0 LINE SMOOTH",
"52 0 OFFCURVE",
"0 52 OFFCURVE",
"0 115 CURVE SMOOTH"
);
},
{
closed = 1;
nodes = (
"154 154 LINE",
"1690 154 LINE",
"1690 1382 LINE",
"154 1382 LINE"
);
},
{
closed = 1;
nodes = (
"307 307 LINE",
"307 412 LINE",
"584 772 LINE",
"772 616 LINE",
"1126 1153 LINE",
"1536 729 LINE",
"1536 307 LINE"
);
},
{
closed = 1;
nodes = (
"307 1161 OFFCURVE",
"375 1229 OFFCURVE",
"463 1229 CURVE SMOOTH",
"547 1229 OFFCURVE",
"616 1161 OFFCURVE",
"616 1073 CURVE SMOOTH",
"616 989 OFFCURVE",
"547 920 OFFCURVE",
"463 920 CURVE SMOOTH",
"375 920 OFFCURVE",
"307 989 OFFCURVE",
"307 1073 CURVE SMOOTH"
);
}
);
width = 1843;
}
);
unicode = F03E;
},
{
glyphname = uniF040;
lastChange = "2012-07-06 12:25:45 +0200";
layers = (
{
layerId = "1D4A27DC-6245-4CD0-82A2-90C51343519E";
name = Regular;
paths = (
{
closed = 1;
nodes = (
"0 0 LINE",
"137 418 LINE",
"1004 1284 LINE",
"1284 1004 LINE",
"418 137 LINE"
);
},
{
closed = 1;
nodes = (
"297 430 LINE SMOOTH",
"290 423 OFFCURVE",
"287 416 OFFCURVE",
"287 408 CURVE SMOOTH",
"287 391 OFFCURVE",
"300 377 OFFCURVE",
"319 377 CURVE SMOOTH",
"327 377 OFFCURVE",
"334 380 OFFCURVE",
"340 385 CURVE",
"1030 1075 LINE SMOOTH",
"1043 1088 OFFCURVE",
"1043 1103 OFFCURVE",
"1030 1118 CURVE",
"1023 1125 OFFCURVE",
"1016 1128 OFFCURVE",
"1008 1128 CURVE SMOOTH",
"999 1128 OFFCURVE",
"992 1125 OFFCURVE",
"987 1118 CURVE"
);
},
{
closed = 1;
nodes = (
"1102 1382 LINE",
"1221 1501 LINE SMOOTH",
"1244 1524 OFFCURVE",
"1272 1536 OFFCURVE",
"1305 1536 CURVE SMOOTH",
"1338 1536 OFFCURVE",
"1366 1524 OFFCURVE",
"1389 1501 CURVE SMOOTH",
"1446 1446 LINE",
"1501 1389 LINE SMOOTH",
"1524 1366 OFFCURVE",
"1536 1338 OFFCURVE",
"1536 1305 CURVE SMOOTH",
"1536 1272 OFFCURVE",
"1524 1244 OFFCURVE",
"1501 1221 CURVE SMOOTH",
"1382 1102 LINE"
);
}
);
width = 1536;
}
);
unicode = F040;
},
{
glyphname = uniF041;
lastChange = "2012-07-06 12:25:45 +0200";
layers = (
{
layerId = "1D4A27DC-6245-4CD0-82A2-90C51343519E";
name = Regular;
paths = (
{
closed = 1;
nodes = (
"0 1157 OFFCURVE",
"62 1299 OFFCURVE",
"165 1402 CURVE SMOOTH",
"268 1505 OFFCURVE",
"410 1567 OFFCURVE",
"565 1567 CURVE SMOOTH",
"721 1567 OFFCURVE",
"862 1505 OFFCURVE",
"964 1402 CURVE SMOOTH",
"1066 1299 OFFCURVE",
"1128 1157 OFFCURVE",
"1128 1001 CURVE SMOOTH",
"1128 889 OFFCURVE",
"1093 789 OFFCURVE",
"1038 698 CURVE SMOOTH",
"659 37 LINE SMOOTH",
"632 -8 OFFCURVE",
"600 -31 OFFCURVE",
"564 -31 CURVE SMOOTH",
"528 -31 OFFCURVE",
"497 -8 OFFCURVE",
"471 37 CURVE SMOOTH",
"90 700 LINE SMOOTH",
"35 791 OFFCURVE",
"0 890 OFFCURVE",
"0 1001 CURVE SMOOTH"
);
},
{
closed = 1;
nodes = (
"285 925 OFFCURVE",
"315 855 OFFCURVE",
"367 804 CURVE SMOOTH",
"419 753 OFFCURVE",
"486 723 OFFCURVE",
"565 723 CURVE SMOOTH",
"641 723 OFFCURVE",
"712 753 OFFCURVE",
"763 804 CURVE SMOOTH",
"814 855 OFFCURVE",
"844 925 OFFCURVE",
"844 1001 CURVE SMOOTH",
"844 1077 OFFCURVE",
"814 1148 OFFCURVE",
"763 1200 CURVE SMOOTH",
"712 1252 OFFCURVE",
"642 1282 OFFCURVE",
"565 1282 CURVE SMOOTH",
"486 1282 OFFCURVE",
"419 1252 OFFCURVE",
"367 1200 CURVE SMOOTH",
"315 1148 OFFCURVE",
"285 1078 OFFCURVE",
"285 1001 CURVE SMOOTH"
);
}
);
width = 1128;
}
);
unicode = F041;
},
{
glyphname = uniF042;
lastChange = "2012-07-06 12:25:45 +0200";
layers = (
{
layerId = "1D4A27DC-6245-4CD0-82A2-90C51343519E";
name = Regular;
paths = (
{
closed = 1;
nodes = (
"0 989 OFFCURVE",
"89 1189 OFFCURVE",
"234 1334 CURVE SMOOTH",
"378 1478 OFFCURVE",
"578 1567 OFFCURVE",
"799 1567 CURVE SMOOTH",
"1020 1567 OFFCURVE",
"1219 1478 OFFCURVE",
"1364 1334 CURVE SMOOTH",
"1509 1189 OFFCURVE",
"1597 989 OFFCURVE",
"1597 768 CURVE SMOOTH",
"1597 547 OFFCURVE",
"1509 347 OFFCURVE",
"1364 203 CURVE SMOOTH",
"1219 58 OFFCURVE",
"1020 -31 OFFCURVE",
"799 -31 CURVE SMOOTH",
"578 -31 OFFCURVE",
"378 58 OFFCURVE",
"234 203 CURVE SMOOTH",
"89 347 OFFCURVE",
"0 547 OFFCURVE",
"0 768 CURVE SMOOTH"
);
},
{
closed = 1;
nodes = (
"240 612 OFFCURVE",
"303 474 OFFCURVE",
"404 373 CURVE SMOOTH",
"504 272 OFFCURVE",
"643 209 OFFCURVE",
"799 209 CURVE",
"799 1327 LINE",
"643 1327 OFFCURVE",
"504 1264 OFFCURVE",
"404 1163 CURVE SMOOTH",
"303 1062 OFFCURVE",
"240 924 OFFCURVE",
"240 768 CURVE SMOOTH"
);
}
);
width = 1597;
}
);
unicode = F042;
},
{
glyphname = uniF043;
lastChange = "2012-07-06 12:25:45 +0200";
layers = (
{
layerId = "1D4A27DC-6245-4CD0-82A2-90C51343519E";
name = Regular;
paths = (
{
closed = 1;
nodes = (
"0 650 OFFCURVE",
"33 750 OFFCURVE",
"90 838 CURVE",
"103 860 OFFCURVE",
"127 893 OFFCURVE",
"160 938 CURVE SMOOTH",
"226 1026 OFFCURVE",
"308 1145 OFFCURVE",
"381 1286 CURVE SMOOTH",
"418 1356 OFFCURVE",
"448 1428 OFFCURVE",
"471 1503 CURVE SMOOTH",
"484 1550 OFFCURVE",
"525 1572 OFFCURVE",
"565 1567 CURVE",
"606 1572 OFFCURVE",
"646 1550 OFFCURVE",
"659 1503 CURVE SMOOTH",
"703 1352 OFFCURVE",
"786 1209 OFFCURVE",
"864 1092 CURVE SMOOTH",
"903 1033 OFFCURVE",
"938 982 OFFCURVE",
"971 938 CURVE SMOOTH",
"1036 849 OFFCURVE",
"1075 797 OFFCURVE",
"1107 697 CURVE SMOOTH",
"1122 646 OFFCURVE",
"1130 592 OFFCURVE",
"1130 535 CURVE SMOOTH",
"1130 379 OFFCURVE",
"1068 237 OFFCURVE",
"966 134 CURVE SMOOTH",
"864 31 OFFCURVE",
"721 -31 OFFCURVE",
"565 -31 CURVE SMOOTH",
"409 -31 OFFCURVE",
"268 31 OFFCURVE",
"165 134 CURVE SMOOTH",
"62 237 OFFCURVE",
"0 379 OFFCURVE",
"0 535 CURVE SMOOTH"
);
},
{
closed = 1;
nodes = (
"248 331 OFFCURVE",
"310 268 OFFCURVE",
"389 268 CURVE SMOOTH",
"468 268 OFFCURVE",
"530 330 OFFCURVE",
"530 410 CURVE SMOOTH",
"530 439 OFFCURVE",
"523 464 OFFCURVE",
"508 485 CURVE",
"504 490 OFFCURVE",
"498 499 OFFCURVE",
"490 510 CURVE SMOOTH",
"473 532 OFFCURVE",
"454 562 OFFCURVE",
"435 597 CURVE SMOOTH",
"425 614 OFFCURVE",
"417 632 OFFCURVE",
"412 651 CURVE SMOOTH",
"409 664 OFFCURVE",
"402 670 OFFCURVE",
"389 668 CURVE",
"377 671 OFFCURVE",
"369 665 OFFCURVE",
"365 651 CURVE SMOOTH",
"354 612 OFFCURVE",
"335 579 OFFCURVE",
"316 549 CURVE SMOOTH",
"306 534 OFFCURVE",
"297 521 OFFCURVE",
"289 510 CURVE",
"280 499 OFFCURVE",
"274 491 OFFCURVE",
"270 485 CURVE SMOOTH",
"255 463 OFFCURVE",
"247 438 OFFCURVE",
"248 410 CURVE"
);
}
);
width = 1130;
}
);
unicode = F043;
},
{
glyphname = uniF044;
lastChange = "2012-07-06 12:25:45 +0200";
layers = (
{
layerId = "1D4A27DC-6245-4CD0-82A2-90C51343519E";
name = Regular;
paths = (
{
closed = 1;
nodes = (
"0 1229 LINE SMOOTH",
"0 1313 OFFCURVE",
"35 1391 OFFCURVE",
"90 1446 CURVE SMOOTH",
"145 1501 OFFCURVE",
"223 1536 OFFCURVE",
"307 1536 CURVE SMOOTH",
"1382 1536 LINE SMOOTH",
"1385 1536 OFFCURVE",
"1388 1536 OFFCURVE",
"1393 1535 CURVE",
"1397 1534 OFFCURVE",
"1400 1534 OFFCURVE",
"1403 1534 CURVE",
"1212 1343 LINE",
"307 1343 LINE SMOOTH",
"244 1343 OFFCURVE",
"193 1292 OFFCURVE",
"193 1229 CURVE SMOOTH",
"193 307 LINE SMOOTH",
"193 244 OFFCURVE",
"244 193 OFFCURVE",
"307 193 CURVE SMOOTH",
"1382 193 LINE SMOOTH",
"1445 193 OFFCURVE",
"1497 244 OFFCURVE",
"1497 307 CURVE SMOOTH",
"1497 752 LINE",
"1690 944 LINE",
"1690 307 LINE SMOOTH",
"1690 223 OFFCURVE",
"1654 147 OFFCURVE",
"1598 91 CURVE SMOOTH",
"1542 35 OFFCURVE",
"1467 0 OFFCURVE",
"1382 0 CURVE SMOOTH",
"307 0 LINE SMOOTH",
"223 0 OFFCURVE",
"145 35 OFFCURVE",
"90 91 CURVE SMOOTH",
"35 147 OFFCURVE",
"0 223 OFFCURVE",
"0 307 CURVE SMOOTH"
);
},
{
closed = 1;
nodes = (
"631 324 LINE",
"739 653 LINE",
"1391 1305 LINE",
"1612 1083 LINE",
"961 432 LINE"
);
},
{
closed = 1;
nodes = (
"870 624 OFFCURVE",
"876 621 OFFCURVE",
"883 621 CURVE SMOOTH",
"890 621 OFFCURVE",
"895 624 OFFCURVE",
"899 629 CURVE",
"1411 1139 LINE SMOOTH",
"1435 1163 OFFCURVE",
"1399 1195 OFFCURVE",
"1376 1174 CURVE",
"866 664 LINE SMOOTH",
"854 652 OFFCURVE",
"854 640 OFFCURVE",
"866 629 CURVE"
);
},
{
closed = 1;
nodes = (
"1501 1415 LINE",
"1593 1509 LINE SMOOTH",
"1612 1528 OFFCURVE",
"1635 1538 OFFCURVE",
"1661 1538 CURVE SMOOTH",
"1687 1538 OFFCURVE",
"1709 1528 OFFCURVE",
"1726 1509 CURVE",
"1772 1464 LINE",
"1817 1419 LINE",
"1853 1380 OFFCURVE",
"1854 1325 OFFCURVE",
"1817 1286 CURVE",
"1722 1194 LINE"
);
}
);
width = 1843;
}
);
unicode = F044;
},
{
glyphname = uniF045;
lastChange = "2012-07-06 12:25:45 +0200";
layers = (
{
layerId = "1D4A27DC-6245-4CD0-82A2-90C51343519E";
name = Regular;
paths = (
{
closed = 1;
nodes = (
"0 1229 LINE SMOOTH",
"0 1313 OFFCURVE",
"35 1391 OFFCURVE",
"90 1446 CURVE SMOOTH",
"145 1501 OFFCURVE",
"223 1536 OFFCURVE",
"307 1536 CURVE SMOOTH",
"1143 1536 LINE",
"1139 1515 OFFCURVE",
"1137 1494 OFFCURVE",
"1137 1473 CURVE SMOOTH",
"1137 1421 LINE",
"1028 1408 OFFCURVE",
"924 1382 OFFCURVE",
"827 1343 CURVE",
"307 1343 LINE SMOOTH",
"244 1343 OFFCURVE",
"193 1292 OFFCURVE",
"193 1229 CURVE SMOOTH",
"193 307 LINE SMOOTH",
"193 244 OFFCURVE",
"244 193 OFFCURVE",
"307 193 CURVE SMOOTH",
"1382 193 LINE SMOOTH",
"1445 193 OFFCURVE",
"1497 244 OFFCURVE",
"1497 307 CURVE SMOOTH",
"1497 418 LINE",
"1518 431 OFFCURVE",
"1538 446 OFFCURVE",
"1561 467 CURVE",
"1690 594 LINE",
"1690 307 LINE SMOOTH",
"1690 223 OFFCURVE",
"1654 147 OFFCURVE",
"1598 91 CURVE SMOOTH",
"1542 35 OFFCURVE",
"1467 0 OFFCURVE",
"1382 0 CURVE SMOOTH",
"307 0 LINE SMOOTH",
"223 0 OFFCURVE",
"145 35 OFFCURVE",
"90 91 CURVE SMOOTH",
"35 147 OFFCURVE",
"0 223 OFFCURVE",
"0 307 CURVE SMOOTH"
);
},
{
closed = 1;
nodes = (
"386 361 OFFCURVE",
"385 376 OFFCURVE",
"385 389 CURVE SMOOTH",
"385 402 OFFCURVE",
"385 414 OFFCURVE",
"385 426 CURVE SMOOTH",
"385 647 OFFCURVE",
"459 849 OFFCURVE",
"615 995 CURVE SMOOTH",
"770 1141 OFFCURVE",
"1004 1230 OFFCURVE",
"1327 1233 CURVE",
"1327 1464 LINE SMOOTH",
"1327 1540 OFFCURVE",
"1370 1560 OFFCURVE",
"1425 1505 CURVE SMOOTH",
"1817 1114 LINE",
"1853 1081 OFFCURVE",
"1852 1018 OFFCURVE",
"1817 985 CURVE SMOOTH",
"1425 594 LINE SMOOTH",
"1370 539 OFFCURVE",
"1327 559 OFFCURVE",
"1327 635 CURVE SMOOTH",
"1327 895 LINE",
"1051 895 OFFCURVE",
"841 834 OFFCURVE",
"697 736 CURVE SMOOTH",
"552 638 OFFCURVE",
"470 499 OFFCURVE",
"449 346 CURVE SMOOTH",
"446 328 OFFCURVE",
"436 319 OFFCURVE",
"418 319 CURVE SMOOTH",
"401 319 OFFCURVE",
"392 328 OFFCURVE",
"389 346 CURVE SMOOTH"
);
}
);
width = 1843;
}
);
unicode = F045;
},
{
glyphname = uniF046;
lastChange = "2012-07-06 12:25:45 +0200";
layers = (
{
layerId = "1D4A27DC-6245-4CD0-82A2-90C51343519E";
name = Regular;
paths = (
{
closed = 1;
nodes = (
"0 1229 LINE SMOOTH",
"0 1313 OFFCURVE",
"35 1391 OFFCURVE",
"90 1446 CURVE SMOOTH",
"145 1501 OFFCURVE",
"223 1536 OFFCURVE",
"307 1536 CURVE SMOOTH",
"1382 1536 LINE SMOOTH",
"1400 1536 OFFCURVE",
"1417 1534 OFFCURVE",
"1434 1530 CURVE",
"1247 1343 LINE",
"307 1343 LINE SMOOTH",
"244 1343 OFFCURVE",
"193 1292 OFFCURVE",
"193 1229 CURVE SMOOTH",
"193 307 LINE SMOOTH",
"193 244 OFFCURVE",
"244 193 OFFCURVE",
"307 193 CURVE SMOOTH",
"1382 193 LINE SMOOTH",
"1445 193 OFFCURVE",
"1497 244 OFFCURVE",
"1497 307 CURVE SMOOTH",
"1497 633 LINE",
"1690 825 LINE",
"1690 307 LINE SMOOTH",
"1690 223 OFFCURVE",
"1654 147 OFFCURVE",
"1598 91 CURVE SMOOTH",
"1542 35 OFFCURVE",
"1467 0 OFFCURVE",
"1382 0 CURVE SMOOTH",
"307 0 LINE SMOOTH",
"223 0 OFFCURVE",
"145 35 OFFCURVE",
"90 91 CURVE SMOOTH",
"35 147 OFFCURVE",
"0 223 OFFCURVE",
"0 307 CURVE SMOOTH"
);
},
{
closed = 1;
nodes = (
"408 911 LINE SMOOTH",
"393 926 OFFCURVE",
"385 945 OFFCURVE",
"385 967 CURVE SMOOTH",
"385 988 OFFCURVE",
"393 1007 OFFCURVE",
"408 1022 CURVE SMOOTH",
"506 1120 LINE SMOOTH",
"521 1135 OFFCURVE",
"540 1143 OFFCURVE",
"562 1143 CURVE SMOOTH",
"583 1143 OFFCURVE",
"601 1135 OFFCURVE",
"616 1120 CURVE SMOOTH",
"956 780 LINE",
"1610 1436 LINE SMOOTH",
"1641 1467 OFFCURVE",
"1693 1465 OFFCURVE",
"1722 1436 CURVE SMOOTH",
"1821 1337 LINE SMOOTH",
"1852 1306 OFFCURVE",
"1850 1256 OFFCURVE",
"1821 1227 CURVE SMOOTH",
"1110 516 LINE",
"1012 418 LINE SMOOTH",
"997 403 OFFCURVE",
"978 395 OFFCURVE",
"957 395 CURVE SMOOTH",
"935 395 OFFCURVE",
"916 403 OFFCURVE",
"901 418 CURVE SMOOTH",
"801 516 LINE"
);
}
);
width = 1843;
}
);
unicode = F046;
},
{
glyphname = uniF047;
lastChange = "2012-07-06 12:25:45 +0200";
layers = (
{
layerId = "1D4A27DC-6245-4CD0-82A2-90C51343519E";
name = Regular;
paths = (
{
closed = 1;
nodes = (
"0 785 OFFCURVE",
"6 799 OFFCURVE",
"18 811 CURVE SMOOTH",
"274 1067 LINE SMOOTH",
"310 1103 OFFCURVE",
"338 1092 OFFCURVE",
"338 1040 CURVE SMOOTH",
"338 870 LINE",
"698 870 LINE",
"698 1229 LINE",
"526 1229 LINE SMOOTH",
"477 1229 OFFCURVE",
"464 1257 OFFCURVE",
"500 1292 CURVE SMOOTH",
"756 1548 LINE SMOOTH",
"780 1572 OFFCURVE",
"818 1573 OFFCURVE",
"842 1548 CURVE SMOOTH",
"1098 1292 LINE SMOOTH",
"1134 1256 OFFCURVE",
"1123 1229 OFFCURVE",
"1071 1229 CURVE SMOOTH",
"899 1229 LINE",
"899 870 LINE",
"1260 870 LINE",
"1260 1040 LINE SMOOTH",
"1260 1092 OFFCURVE",
"1287 1103 OFFCURVE",
"1323 1067 CURVE SMOOTH",
"1579 811 LINE SMOOTH",
"1591 799 OFFCURVE",
"1597 785 OFFCURVE",
"1597 768 CURVE SMOOTH",
"1597 751 OFFCURVE",
"1591 737 OFFCURVE",
"1579 725 CURVE SMOOTH",
"1323 469 LINE SMOOTH",
"1287 433 OFFCURVE",
"1260 444 OFFCURVE",
"1260 496 CURVE SMOOTH",
"1260 672 LINE",
"899 672 LINE",
"899 307 LINE",
"1071 307 LINE SMOOTH",
"1123 307 OFFCURVE",
"1135 279 OFFCURVE",
"1098 244 CURVE SMOOTH",
"842 -12 LINE SMOOTH",
"818 -36 OFFCURVE",
"780 -37 OFFCURVE",
"756 -12 CURVE SMOOTH",
"500 244 LINE SMOOTH",
"464 280 OFFCURVE",
"474 307 OFFCURVE",
"526 307 CURVE SMOOTH",
"698 307 LINE",
"698 672 LINE",
"338 672 LINE",
"338 496 LINE SMOOTH",
"338 444 OFFCURVE",
"310 433 OFFCURVE",
"274 469 CURVE SMOOTH",
"18 725 LINE SMOOTH",
"6 737 OFFCURVE",
"0 751 OFFCURVE",
"0 768 CURVE SMOOTH"
);
}
);
width = 1597;
}
);
unicode = F047;
},
{
glyphname = uniF048;
lastChange = "2012-07-06 12:25:45 +0200";
layers = (
{
layerId = "1D4A27DC-6245-4CD0-82A2-90C51343519E";
name = Regular;
paths = (
{
closed = 1;
nodes = (
"0 76 LINE SMOOTH",
"0 35 OFFCURVE",
"35 0 OFFCURVE",
"76 0 CURVE SMOOTH",
"229 0 LINE SMOOTH",
"273 0 OFFCURVE",
"307 35 OFFCURVE",
"307 76 CURVE SMOOTH",
"307 1458 LINE SMOOTH",
"307 1502 OFFCURVE",
"273 1536 OFFCURVE",
"229 1536 CURVE SMOOTH",
"76 1536 LINE SMOOTH",
"35 1536 OFFCURVE",
"0 1502 OFFCURVE",
"0 1458 CURVE SMOOTH"
);
},
{
closed = 1;
nodes = (
"324 723 LINE SMOOTH",
"303 747 OFFCURVE",
"301 790 OFFCURVE",
"324 811 CURVE",
"977 1518 LINE",
"986 1530 OFFCURVE",
"1000 1536 OFFCURVE",
"1018 1536 CURVE SMOOTH",
"1022 1536 OFFCURVE",
"1029 1535 OFFCURVE",
"1040 1532 CURVE",
"1063 1520 OFFCURVE",
"1075 1500 OFFCURVE",
"1075 1473 CURVE SMOOTH",
"1075 61 LINE SMOOTH",
"1075 34 OFFCURVE",
"1063 15 OFFCURVE",
"1040 4 CURVE",
"1014 -5 OFFCURVE",
"993 -1 OFFCURVE",
"977 18 CURVE"
);
}
);
width = 1075;
}
);
unicode = F048;
},
{
glyphname = uniF049;
lastChange = "2012-07-06 12:25:45 +0200";
layers = (
{
layerId = "1D4A27DC-6245-4CD0-82A2-90C51343519E";
name = Regular;
paths = (
{
closed = 1;
nodes = (
"0 76 LINE SMOOTH",
"0 35 OFFCURVE",
"35 0 OFFCURVE",
"76 0 CURVE SMOOTH",
"229 0 LINE SMOOTH",
"273 0 OFFCURVE",
"307 35 OFFCURVE",
"307 76 CURVE SMOOTH",
"307 1458 LINE SMOOTH",
"307 1502 OFFCURVE",
"273 1536 OFFCURVE",
"229 1536 CURVE SMOOTH",
"76 1536 LINE SMOOTH",
"35 1536 OFFCURVE",
"0 1502 OFFCURVE",
"0 1458 CURVE SMOOTH"
);
},
{
closed = 1;
nodes = (
"324 723 LINE SMOOTH",
"303 747 OFFCURVE",
"301 790 OFFCURVE",
"324 811 CURVE",
"977 1518 LINE",
"986 1530 OFFCURVE",
"1000 1536 OFFCURVE",
"1018 1536 CURVE SMOOTH",
"1022 1536 OFFCURVE",
"1029 1535 OFFCURVE",
"1040 1532 CURVE",
"1063 1520 OFFCURVE",
"1075 1500 OFFCURVE",
"1075 1473 CURVE SMOOTH",
"1075 61 LINE SMOOTH",
"1075 34 OFFCURVE",
"1063 15 OFFCURVE",
"1040 4 CURVE",
"1014 -5 OFFCURVE",
"993 -1 OFFCURVE",
"977 18 CURVE"
);
},
{
closed = 1;
nodes = (
"1092 723 LINE SMOOTH",
"1071 747 OFFCURVE",
"1069 790 OFFCURVE",
"1092 811 CURVE",
"1745 1518 LINE",
"1754 1530 OFFCURVE",
"1768 1536 OFFCURVE",
"1786 1536 CURVE SMOOTH",
"1790 1536 OFFCURVE",
"1797 1535 OFFCURVE",
"1808 1532 CURVE",
"1831 1520 OFFCURVE",
"1843 1500 OFFCURVE",
"1843 1473 CURVE SMOOTH",
"1843 61 LINE SMOOTH",
"1843 34 OFFCURVE",
"1831 15 OFFCURVE",
"1808 4 CURVE",
"1782 -5 OFFCURVE",
"1761 -1 OFFCURVE",
"1745 18 CURVE"
);
}
);
width = 1843;
}
);
unicode = F049;
},
{
glyphname = uniF04A;
lastChange = "2012-07-06 12:25:45 +0200";
layers = (
{
layerId = "1D4A27DC-6245-4CD0-82A2-90C51343519E";
name = Regular;
paths = (
{
closed = 1;
nodes = (
"16 723 LINE SMOOTH",
"5 735 OFFCURVE",
"0 750 OFFCURVE",
"0 767 CURVE SMOOTH",
"0 784 OFFCURVE",
"5 799 OFFCURVE",
"16 811 CURVE SMOOTH",
"670 1518 LINE",
"679 1530 OFFCURVE",
"693 1536 OFFCURVE",
"711 1536 CURVE SMOOTH",
"718 1536 OFFCURVE",
"725 1534 OFFCURVE",
"733 1530 CURVE",
"756 1521 OFFCURVE",
"768 1502 OFFCURVE",
"768 1473 CURVE SMOOTH",
"768 61 LINE SMOOTH",
"768 6 OFFCURVE",
"705 -22 OFFCURVE",
"670 18 CURVE SMOOTH"
);
},
{
closed = 1;
nodes = (
"784 723 LINE SMOOTH",
"773 735 OFFCURVE",
"768 750 OFFCURVE",
"768 767 CURVE SMOOTH",
"768 784 OFFCURVE",
"773 799 OFFCURVE",
"784 811 CURVE SMOOTH",
"1438 1518 LINE",
"1447 1530 OFFCURVE",
"1461 1536 OFFCURVE",
"1479 1536 CURVE SMOOTH",
"1486 1536 OFFCURVE",
"1493 1534 OFFCURVE",
"1501 1530 CURVE",
"1524 1521 OFFCURVE",
"1536 1502 OFFCURVE",
"1536 1473 CURVE SMOOTH",
"1536 61 LINE SMOOTH",
"1536 6 OFFCURVE",
"1473 -22 OFFCURVE",
"1438 18 CURVE SMOOTH"
);
}
);
width = 1536;
}
);
unicode = F04A;
},
{
glyphname = uniF04B;
lastChange = "2012-07-06 12:25:45 +0200";
layers = (
{
layerId = "1D4A27DC-6245-4CD0-82A2-90C51343519E";
name = Regular;
paths = (
{
closed = 1;
nodes = (
"0 1466 LINE SMOOTH",
"0 1518 OFFCURVE",
"61 1557 OFFCURVE",
"104 1526 CURVE",
"1315 829 LINE",
"1338 812 OFFCURVE",
"1350 792 OFFCURVE",
"1350 768 CURVE SMOOTH",
"1350 743 OFFCURVE",
"1338 723 OFFCURVE",
"1315 707 CURVE",
"104 10 LINE",
"93 3 OFFCURVE",
"82 0 OFFCURVE",
"70 0 CURVE SMOOTH",
"58 0 OFFCURVE",
"46 3 OFFCURVE",
"35 10 CURVE",
"12 23 OFFCURVE",
"0 43 OFFCURVE",
"0 70 CURVE SMOOTH"
);
}
);
width = 1349;
}
);
unicode = F04B;
},
{
glyphname = uniF04C;
lastChange = "2012-07-06 12:25:45 +0200";
layers = (
{
layerId = "1D4A27DC-6245-4CD0-82A2-90C51343519E";
name = Regular;
paths = (
{
closed = 1;
nodes = (
"0 1466 LINE SMOOTH",
"0 1505 OFFCURVE",
"31 1536 OFFCURVE",
"70 1536 CURVE SMOOTH",
"559 1536 LINE SMOOTH",
"598 1536 OFFCURVE",
"629 1505 OFFCURVE",
"629 1466 CURVE SMOOTH",
"629 70 LINE SMOOTH",
"629 31 OFFCURVE",
"598 0 OFFCURVE",
"559 0 CURVE SMOOTH",
"70 0 LINE SMOOTH",
"31 0 OFFCURVE",
"0 31 OFFCURVE",
"0 70 CURVE SMOOTH"
);
},
{
closed = 1;
nodes = (
"907 1466 LINE SMOOTH",
"907 1505 OFFCURVE",
"938 1536 OFFCURVE",
"977 1536 CURVE SMOOTH",
"1466 1536 LINE SMOOTH",
"1505 1536 OFFCURVE",
"1536 1505 OFFCURVE",
"1536 1466 CURVE SMOOTH",
"1536 70 LINE SMOOTH",
"1536 31 OFFCURVE",
"1505 0 OFFCURVE",
"1466 0 CURVE SMOOTH",
"977 0 LINE SMOOTH",
"938 0 OFFCURVE",
"907 31 OFFCURVE",
"907 70 CURVE SMOOTH"
);
}
);
width = 1536;
}
);
unicode = F04C;
},
{
glyphname = uniF04D;
lastChange = "2012-07-06 12:25:45 +0200";
layers = (
{
layerId = "1D4A27DC-6245-4CD0-82A2-90C51343519E";
name = Regular;
paths = (
{
closed = 1;
nodes = (
"0 1466 LINE SMOOTH",
"0 1505 OFFCURVE",
"31 1536 OFFCURVE",
"70 1536 CURVE SMOOTH",
"1466 1536 LINE SMOOTH",
"1505 1536 OFFCURVE",
"1536 1505 OFFCURVE",
"1536 1466 CURVE SMOOTH",
"1536 70 LINE SMOOTH",
"1536 31 OFFCURVE",
"1505 0 OFFCURVE",
"1466 0 CURVE SMOOTH",
"70 0 LINE SMOOTH",
"31 0 OFFCURVE",
"0 31 OFFCURVE",
"0 70 CURVE SMOOTH"
);
}
);
width = 1536;
}
);
unicode = F04D;
},
{
glyphname = uniF04E;
lastChange = "2012-07-06 12:25:45 +0200";
layers = (
{
layerId = "1D4A27DC-6245-4CD0-82A2-90C51343519E";
name = Regular;
paths = (
{
closed = 1;
nodes = (
"0 1475 LINE SMOOTH",
"0 1501 OFFCURVE",
"12 1520 OFFCURVE",
"35 1532 CURVE",
"61 1541 OFFCURVE",
"82 1537 OFFCURVE",
"98 1518 CURVE",
"752 813 LINE SMOOTH",
"763 801 OFFCURVE",
"768 786 OFFCURVE",
"768 768 CURVE SMOOTH",
"768 750 OFFCURVE",
"763 735 OFFCURVE",
"752 723 CURVE SMOOTH",
"98 18 LINE SMOOTH",
"87 6 OFFCURVE",
"74 0 OFFCURVE",
"57 0 CURVE SMOOTH",
"53 0 OFFCURVE",
"46 1 OFFCURVE",
"35 4 CURVE",
"12 15 OFFCURVE",
"0 34 OFFCURVE",
"0 61 CURVE SMOOTH"
);
},
{
closed = 1;
nodes = (
"768 1475 LINE SMOOTH",
"768 1501 OFFCURVE",
"780 1520 OFFCURVE",
"803 1532 CURVE",
"829 1541 OFFCURVE",
"850 1537 OFFCURVE",
"866 1518 CURVE",
"1520 813 LINE SMOOTH",
"1531 801 OFFCURVE",
"1536 786 OFFCURVE",
"1536 768 CURVE SMOOTH",
"1536 750 OFFCURVE",
"1531 735 OFFCURVE",
"1520 723 CURVE SMOOTH",
"866 18 LINE SMOOTH",
"855 6 OFFCURVE",
"842 0 OFFCURVE",
"825 0 CURVE SMOOTH",
"821 0 OFFCURVE",
"814 1 OFFCURVE",
"803 4 CURVE",
"780 15 OFFCURVE",
"768 34 OFFCURVE",
"768 61 CURVE SMOOTH"
);
}
);
width = 1536;
}
);
unicode = F04E;
},
{
glyphname = uniF050;
lastChange = "2012-07-06 12:25:45 +0200";
layers = (
{
layerId = "1D4A27DC-6245-4CD0-82A2-90C51343519E";
name = Regular;
paths = (
{
closed = 1;
nodes = (
"0 1475 LINE SMOOTH",
"0 1501 OFFCURVE",
"12 1520 OFFCURVE",
"35 1532 CURVE",
"61 1541 OFFCURVE",
"82 1537 OFFCURVE",
"98 1518 CURVE",
"752 813 LINE SMOOTH",
"763 801 OFFCURVE",
"768 786 OFFCURVE",
"768 768 CURVE SMOOTH",
"768 750 OFFCURVE",
"763 735 OFFCURVE",
"752 723 CURVE SMOOTH",
"98 18 LINE SMOOTH",
"87 6 OFFCURVE",
"74 0 OFFCURVE",
"57 0 CURVE SMOOTH",
"53 0 OFFCURVE",
"46 1 OFFCURVE",
"35 4 CURVE",
"12 15 OFFCURVE",
"0 34 OFFCURVE",
"0 61 CURVE SMOOTH"
);
},
{
closed = 1;
nodes = (
"768 1475 LINE SMOOTH",
"768 1501 OFFCURVE",
"780 1520 OFFCURVE",
"803 1532 CURVE",
"829 1541 OFFCURVE",
"850 1537 OFFCURVE",
"866 1518 CURVE",
"1520 813 LINE SMOOTH",
"1531 801 OFFCURVE",
"1536 786 OFFCURVE",
"1536 768 CURVE SMOOTH",
"1536 750 OFFCURVE",
"1531 735 OFFCURVE",
"1520 723 CURVE SMOOTH",
"866 18 LINE SMOOTH",
"855 6 OFFCURVE",
"842 0 OFFCURVE",
"825 0 CURVE SMOOTH",
"821 0 OFFCURVE",
"814 1 OFFCURVE",
"803 4 CURVE",
"780 15 OFFCURVE",
"768 34 OFFCURVE",
"768 61 CURVE SMOOTH"
);
},
{
closed = 1;
nodes = (
"1536 76 LINE SMOOTH",
"1536 35 OFFCURVE",
"1571 0 OFFCURVE",
"1612 0 CURVE SMOOTH",
"1765 0 LINE SMOOTH",
"1809 0 OFFCURVE",
"1843 35 OFFCURVE",
"1843 76 CURVE SMOOTH",
"1843 1458 LINE SMOOTH",
"1843 1502 OFFCURVE",
"1809 1536 OFFCURVE",
"1765 1536 CURVE SMOOTH",
"1612 1536 LINE SMOOTH",
"1571 1536 OFFCURVE",
"1536 1502 OFFCURVE",
"1536 1458 CURVE SMOOTH"
);
}
);
width = 1843;
}
);
unicode = F050;
},
{
glyphname = uniF051;
lastChange = "2012-07-06 12:25:45 +0200";
layers = (
{
layerId = "1D4A27DC-6245-4CD0-82A2-90C51343519E";
name = Regular;
paths = (
{
closed = 1;
nodes = (
"0 1475 LINE SMOOTH",
"0 1501 OFFCURVE",
"12 1520 OFFCURVE",
"35 1532 CURVE",
"61 1541 OFFCURVE",
"82 1537 OFFCURVE",
"98 1518 CURVE",
"752 813 LINE SMOOTH",
"763 801 OFFCURVE",
"768 786 OFFCURVE",
"768 768 CURVE SMOOTH",
"768 750 OFFCURVE",
"763 735 OFFCURVE",
"752 723 CURVE SMOOTH",
"98 18 LINE SMOOTH",
"87 6 OFFCURVE",
"74 0 OFFCURVE",
"57 0 CURVE SMOOTH",
"53 0 OFFCURVE",
"46 1 OFFCURVE",
"35 4 CURVE",
"12 15 OFFCURVE",
"0 34 OFFCURVE",
"0 61 CURVE SMOOTH"
);
},
{
closed = 1;
nodes = (
"768 76 LINE SMOOTH",
"768 35 OFFCURVE",
"803 0 OFFCURVE",
"844 0 CURVE SMOOTH",
"997 0 LINE SMOOTH",
"1041 0 OFFCURVE",
"1075 35 OFFCURVE",
"1075 76 CURVE SMOOTH",
"1075 1458 LINE SMOOTH",
"1075 1502 OFFCURVE",
"1041 1536 OFFCURVE",
"997 1536 CURVE SMOOTH",
"844 1536 LINE SMOOTH",
"803 1536 OFFCURVE",
"768 1502 OFFCURVE",
"768 1458 CURVE SMOOTH"
);
}
);
width = 1075;
}
);
unicode = F051;
},
{
glyphname = uniF052;
lastChange = "2012-07-06 12:25:45 +0200";
layers = (
{
layerId = "1D4A27DC-6245-4CD0-82A2-90C51343519E";
name = Regular;
paths = (
{
closed = 1;
nodes = (
"0 268 LINE SMOOTH",
"0 307 OFFCURVE",
"31 338 OFFCURVE",
"70 338 CURVE SMOOTH",
"1466 338 LINE SMOOTH",
"1505 338 OFFCURVE",
"1536 307 OFFCURVE",
"1536 268 CURVE SMOOTH",
"1536 70 LINE SMOOTH",
"1536 31 OFFCURVE",
"1505 0 OFFCURVE",
"1466 0 CURVE SMOOTH",
"70 0 LINE SMOOTH",
"31 0 OFFCURVE",
"0 31 OFFCURVE",
"0 70 CURVE SMOOTH"
);
},
{
closed = 1;
nodes = (
"-6 623 OFFCURVE",
"-1 648 OFFCURVE",
"20 670 CURVE SMOOTH",
"719 1368 LINE SMOOTH",
"746 1395 OFFCURVE",
"790 1396 OFFCURVE",
"817 1368 CURVE SMOOTH",
"1516 670 LINE SMOOTH",
"1538 648 OFFCURVE",
"1543 623 OFFCURVE",
"1530 594 CURVE",
"1519 565 OFFCURVE",
"1498 551 OFFCURVE",
"1466 551 CURVE SMOOTH",
"70 551 LINE SMOOTH",
"39 551 OFFCURVE",
"17 565 OFFCURVE",
"6 594 CURVE SMOOTH"
);
}
);
width = 1536;
}
);
unicode = F052;
},
{
glyphname = uniF053;
lastChange = "2012-07-06 12:25:45 +0200";
layers = (
{
layerId = "1D4A27DC-6245-4CD0-82A2-90C51343519E";
name = Regular;
paths = (
{
closed = 1;
nodes = (
"29 698 LINE SMOOTH",
"10 717 OFFCURVE",
"0 740 OFFCURVE",
"0 765 CURVE SMOOTH",
"0 790 OFFCURVE",
"10 812 OFFCURVE",
"29 831 CURVE SMOOTH",
"700 1505 LINE SMOOTH",
"719 1524 OFFCURVE",
"742 1534 OFFCURVE",
"768 1534 CURVE SMOOTH",
"794 1534 OFFCURVE",
"817 1524 OFFCURVE",
"836 1505 CURVE SMOOTH",
"936 1405 LINE SMOOTH",
"955 1386 OFFCURVE",
"965 1363 OFFCURVE",
"965 1337 CURVE SMOOTH",
"965 1311 OFFCURVE",
"955 1289 OFFCURVE",
"936 1270 CURVE SMOOTH",
"428 760 LINE",
"936 260 LINE SMOOTH",
"955 241 OFFCURVE",
"965 219 OFFCURVE",
"965 194 CURVE SMOOTH",
"965 169 OFFCURVE",
"955 146 OFFCURVE",
"936 127 CURVE SMOOTH",
"836 25 LINE SMOOTH",
"817 6 OFFCURVE",
"794 -4 OFFCURVE",
"768 -4 CURVE SMOOTH",
"742 -4 OFFCURVE",
"719 6 OFFCURVE",
"700 25 CURVE SMOOTH"
);
}
);
width = 964;
}
);
unicode = F053;
},
{
glyphname = uniF054;
lastChange = "2012-07-06 12:25:45 +0200";
layers = (
{
layerId = "1D4A27DC-6245-4CD0-82A2-90C51343519E";
name = Regular;
paths = (
{
closed = 1;
nodes = (
"29 127 LINE SMOOTH",
"10 146 OFFCURVE",
"0 169 OFFCURVE",
"0 195 CURVE SMOOTH",
"0 220 OFFCURVE",
"10 243 OFFCURVE",
"29 262 CURVE SMOOTH",
"537 770 LINE",
"29 1272 LINE SMOOTH",
"10 1291 OFFCURVE",
"0 1314 OFFCURVE",
"0 1339 CURVE SMOOTH",
"0 1364 OFFCURVE",
"10 1386 OFFCURVE",
"29 1405 CURVE SMOOTH",
"129 1507 LINE SMOOTH",
"148 1526 OFFCURVE",
"171 1536 OFFCURVE",
"197 1536 CURVE SMOOTH",
"223 1536 OFFCURVE",
"245 1526 OFFCURVE",
"264 1507 CURVE SMOOTH",
"936 834 LINE SMOOTH",
"955 815 OFFCURVE",
"965 792 OFFCURVE",
"965 766 CURVE SMOOTH",
"965 740 OFFCURVE",
"955 717 OFFCURVE",
"936 698 CURVE SMOOTH",
"264 27 LINE SMOOTH",
"245 8 OFFCURVE",
"222 -2 OFFCURVE",
"197 -2 CURVE SMOOTH",
"171 -2 OFFCURVE",
"148 8 OFFCURVE",
"129 27 CURVE SMOOTH"
);
}
);
width = 964;
}
);
unicode = F054;
},
{
glyphname = uniF055;
lastChange = "2012-07-06 12:25:45 +0200";
layers = (
{
layerId = "1D4A27DC-6245-4CD0-82A2-90C51343519E";
name = Regular;
paths = (
{
closed = 1;
nodes = (
"0 989 OFFCURVE",
"89 1189 OFFCURVE",
"234 1334 CURVE SMOOTH",
"378 1478 OFFCURVE",
"578 1567 OFFCURVE",
"799 1567 CURVE SMOOTH",
"1020 1567 OFFCURVE",
"1219 1478 OFFCURVE",
"1364 1334 CURVE SMOOTH",
"1509 1189 OFFCURVE",
"1597 989 OFFCURVE",
"1597 768 CURVE SMOOTH",
"1597 547 OFFCURVE",
"1509 347 OFFCURVE",
"1364 203 CURVE SMOOTH",
"1219 58 OFFCURVE",
"1020 -31 OFFCURVE",
"799 -31 CURVE SMOOTH",
"578 -31 OFFCURVE",
"378 58 OFFCURVE",
"234 203 CURVE SMOOTH",
"89 347 OFFCURVE",
"0 547 OFFCURVE",
"0 768 CURVE SMOOTH"
);
},
{
closed = 1;
nodes = (
"338 688 LINE SMOOTH",
"338 666 OFFCURVE",
"349 655 OFFCURVE",
"371 655 CURVE SMOOTH",
"684 655 LINE",
"684 311 LINE SMOOTH",
"684 289 OFFCURVE",
"695 278 OFFCURVE",
"717 279 CURVE",
"881 279 LINE SMOOTH",
"903 279 OFFCURVE",
"914 290 OFFCURVE",
"913 311 CURVE",
"913 655 LINE",
"1227 655 LINE SMOOTH",
"1243 655 OFFCURVE",
"1260 669 OFFCURVE",
"1260 688 CURVE SMOOTH",
"1260 846 LINE SMOOTH",
"1260 865 OFFCURVE",
"1243 879 OFFCURVE",
"1227 879 CURVE SMOOTH",
"913 879 LINE",
"913 1225 LINE SMOOTH",
"913 1247 OFFCURVE",
"902 1258 OFFCURVE",
"881 1257 CURVE",
"717 1257 LINE SMOOTH",
"695 1257 OFFCURVE",
"684 1246 OFFCURVE",
"684 1225 CURVE SMOOTH",
"684 879 LINE",
"371 879 LINE SMOOTH",
"349 879 OFFCURVE",
"338 868 OFFCURVE",
"338 846 CURVE SMOOTH"
);
}
);
width = 1597;
}
);
unicode = F055;
},
{
glyphname = uniF056;
lastChange = "2012-07-06 12:25:45 +0200";
layers = (
{
layerId = "1D4A27DC-6245-4CD0-82A2-90C51343519E";
name = Regular;
paths = (
{
closed = 1;
nodes = (
"0 989 OFFCURVE",
"89 1189 OFFCURVE",
"234 1334 CURVE SMOOTH",
"378 1478 OFFCURVE",
"578 1567 OFFCURVE",
"799 1567 CURVE SMOOTH",
"1020 1567 OFFCURVE",
"1219 1478 OFFCURVE",
"1364 1334 CURVE SMOOTH",
"1509 1189 OFFCURVE",
"1597 989 OFFCURVE",
"1597 768 CURVE SMOOTH",
"1597 547 OFFCURVE",
"1509 347 OFFCURVE",
"1364 203 CURVE SMOOTH",
"1219 58 OFFCURVE",
"1020 -31 OFFCURVE",
"799 -31 CURVE SMOOTH",
"578 -31 OFFCURVE",
"378 58 OFFCURVE",
"234 203 CURVE SMOOTH",
"89 347 OFFCURVE",
"0 547 OFFCURVE",
"0 768 CURVE SMOOTH"
);
},
{
closed = 1;
nodes = (
"338 688 LINE SMOOTH",
"338 666 OFFCURVE",
"349 655 OFFCURVE",
"371 655 CURVE SMOOTH",
"1227 655 LINE SMOOTH",
"1243 655 OFFCURVE",
"1260 669 OFFCURVE",
"1260 688 CURVE SMOOTH",
"1260 846 LINE SMOOTH",
"1260 865 OFFCURVE",
"1243 879 OFFCURVE",
"1227 879 CURVE SMOOTH",
"371 879 LINE SMOOTH",
"349 879 OFFCURVE",
"338 868 OFFCURVE",
"338 846 CURVE SMOOTH"
);
}
);
width = 1597;
}
);
unicode = F056;
},
{
glyphname = uniF057;
lastChange = "2012-07-06 12:25:45 +0200";
layers = (
{
layerId = "1D4A27DC-6245-4CD0-82A2-90C51343519E";
name = Regular;
paths = (
{
closed = 1;
nodes = (
"19 567 OFFCURVE",
"0 667 OFFCURVE",
"0 770 CURVE SMOOTH",
"0 975 OFFCURVE",
"78 1180 OFFCURVE",
"233 1335 CURVE SMOOTH",
"389 1491 OFFCURVE",
"594 1569 OFFCURVE",
"799 1569 CURVE SMOOTH",
"1003 1569 OFFCURVE",
"1208 1491 OFFCURVE",
"1364 1335 CURVE SMOOTH",
"1520 1179 OFFCURVE",
"1597 975 OFFCURVE",
"1597 770 CURVE SMOOTH",
"1597 565 OFFCURVE",
"1520 361 OFFCURVE",
"1364 205 CURVE SMOOTH",
"1208 49 OFFCURVE",
"1003 -29 OFFCURVE",
"799 -29 CURVE SMOOTH",
"594 -29 OFFCURVE",
"389 49 OFFCURVE",
"233 205 CURVE SMOOTH",
"155 283 OFFCURVE",
"97 371 OFFCURVE",
"58 469 CURVE SMOOTH"
);
},
{
closed = 1;
nodes = (
"395 528 LINE SMOOTH",
"388 521 OFFCURVE",
"385 514 OFFCURVE",
"385 505 CURVE SMOOTH",
"385 496 OFFCURVE",
"388 488 OFFCURVE",
"395 481 CURVE SMOOTH",
"510 365 LINE SMOOTH",
"523 352 OFFCURVE",
"544 350 OFFCURVE",
"557 365 CURVE",
"801 608 LINE",
"1020 387 LINE SMOOTH",
"1027 380 OFFCURVE",
"1035 377 OFFCURVE",
"1044 377 CURVE SMOOTH",
"1053 377 OFFCURVE",
"1060 380 OFFCURVE",
"1067 387 CURVE SMOOTH",
"1180 500 LINE SMOOTH",
"1195 515 OFFCURVE",
"1195 531 OFFCURVE",
"1180 547 CURVE",
"958 766 LINE",
"1204 1012 LINE SMOOTH",
"1219 1027 OFFCURVE",
"1219 1043 OFFCURVE",
"1204 1059 CURVE",
"1087 1174 LINE SMOOTH",
"1070 1191 OFFCURVE",
"1055 1191 OFFCURVE",
"1040 1174 CURVE",
"797 930 LINE",
"575 1151 LINE SMOOTH",
"568 1158 OFFCURVE",
"561 1161 OFFCURVE",
"552 1161 CURVE SMOOTH",
"543 1161 OFFCURVE",
"535 1158 OFFCURVE",
"528 1151 CURVE SMOOTH",
"418 1038 LINE",
"401 1023 OFFCURVE",
"401 1007 OFFCURVE",
"418 991 CURVE SMOOTH",
"637 772 LINE"
);
}
);
width = 1597;
}
);
unicode = F057;
},
{
glyphname = uniF058;
lastChange = "2012-07-06 12:25:45 +0200";
layers = (
{
layerId = "1D4A27DC-6245-4CD0-82A2-90C51343519E";
name = Regular;
paths = (
{
closed = 1;
nodes = (
"0 989 OFFCURVE",
"89 1189 OFFCURVE",
"234 1334 CURVE SMOOTH",
"378 1478 OFFCURVE",
"578 1567 OFFCURVE",
"799 1567 CURVE SMOOTH",
"1020 1567 OFFCURVE",
"1219 1478 OFFCURVE",
"1364 1334 CURVE SMOOTH",
"1509 1189 OFFCURVE",
"1597 989 OFFCURVE",
"1597 768 CURVE SMOOTH",
"1597 547 OFFCURVE",
"1509 347 OFFCURVE",
"1364 203 CURVE SMOOTH",
"1219 58 OFFCURVE",
"1020 -31 OFFCURVE",
"799 -31 CURVE SMOOTH",
"578 -31 OFFCURVE",
"378 58 OFFCURVE",
"234 203 CURVE SMOOTH",
"89 347 OFFCURVE",
"0 547 OFFCURVE",
"0 768 CURVE SMOOTH"
);
},
{
closed = 1;
nodes = (
"254 752 LINE SMOOTH",
"245 743 OFFCURVE",
"240 731 OFFCURVE",
"240 718 CURVE SMOOTH",
"240 705 OFFCURVE",
"245 693 OFFCURVE",
"254 684 CURVE SMOOTH",
"573 365 LINE SMOOTH",
"592 346 OFFCURVE",
"628 330 OFFCURVE",
"655 330 CURVE SMOOTH",
"711 330 LINE SMOOTH",
"738 330 OFFCURVE",
"773 345 OFFCURVE",
"793 365 CURVE SMOOTH",
"1343 915 LINE SMOOTH",
"1362 934 OFFCURVE",
"1363 964 OFFCURVE",
"1343 983 CURVE",
"1239 1090 LINE",
"1228 1099 OFFCURVE",
"1217 1104 OFFCURVE",
"1204 1104 CURVE SMOOTH",
"1191 1104 OFFCURVE",
"1179 1099 OFFCURVE",
"1169 1090 CURVE",
"717 637 LINE SMOOTH",
"708 628 OFFCURVE",
"697 623 OFFCURVE",
"684 623 CURVE SMOOTH",
"671 623 OFFCURVE",
"659 628 OFFCURVE",
"649 637 CURVE",
"428 858 LINE SMOOTH",
"419 867 OFFCURVE",
"408 872 OFFCURVE",
"395 872 CURVE SMOOTH",
"382 872 OFFCURVE",
"369 867 OFFCURVE",
"358 858 CURVE"
);
}
);
width = 1597;
}
);
unicode = F058;
},
{
glyphname = uniF059;
lastChange = "2012-07-06 12:25:45 +0200";
layers = (
{
layerId = "1D4A27DC-6245-4CD0-82A2-90C51343519E";
name = Regular;
paths = (
{
closed = 1;
nodes = (
"0 989 OFFCURVE",
"89 1189 OFFCURVE",
"234 1334 CURVE SMOOTH",
"378 1478 OFFCURVE",
"578 1567 OFFCURVE",
"799 1567 CURVE SMOOTH",
"1020 1567 OFFCURVE",
"1219 1478 OFFCURVE",
"1364 1334 CURVE SMOOTH",
"1509 1189 OFFCURVE",
"1597 989 OFFCURVE",
"1597 768 CURVE SMOOTH",
"1597 547 OFFCURVE",
"1509 347 OFFCURVE",
"1364 203 CURVE SMOOTH",
"1219 58 OFFCURVE",
"1020 -31 OFFCURVE",
"799 -31 CURVE SMOOTH",
"578 -31 OFFCURVE",
"378 58 OFFCURVE",
"234 203 CURVE SMOOTH",
"89 347 OFFCURVE",
"0 547 OFFCURVE",
"0 768 CURVE SMOOTH"
);
},
{
closed = 1;
nodes = (
"627 985 LINE",
"630 980 OFFCURVE",
"636 976 OFFCURVE",
"647 973 CURVE",
"655 973 OFFCURVE",
"663 975 OFFCURVE",
"670 979 CURVE",
"670 979 OFFCURVE",
"673 982 OFFCURVE",
"680 987 CURVE",
"693 998 OFFCURVE",
"718 1012 OFFCURVE",
"747 1021 CURVE",
"761 1026 OFFCURVE",
"776 1028 OFFCURVE",
"793 1028 CURVE SMOOTH",
"848 1028 OFFCURVE",
"891 995 OFFCURVE",
"891 948 CURVE SMOOTH",
"891 899 OFFCURVE",
"854 867 OFFCURVE",
"805 823 CURVE",
"774 799 OFFCURVE",
"742 770 OFFCURVE",
"716 731 CURVE SMOOTH",
"690 692 OFFCURVE",
"672 648 OFFCURVE",
"672 588 CURVE SMOOTH",
"672 524 LINE SMOOTH",
"672 508 OFFCURVE",
"686 494 OFFCURVE",
"702 494 CURVE SMOOTH",
"866 494 LINE SMOOTH",
"882 494 OFFCURVE",
"895 508 OFFCURVE",
"895 524 CURVE SMOOTH",
"895 575 LINE SMOOTH",
"895 627 OFFCURVE",
"934 658 OFFCURVE",
"983 702 CURVE",
"1016 729 OFFCURVE",
"1050 764 OFFCURVE",
"1079 805 CURVE SMOOTH",
"1107 846 OFFCURVE",
"1126 896 OFFCURVE",
"1126 965 CURVE SMOOTH",
"1126 1056 OFFCURVE",
"1086 1128 OFFCURVE",
"1025 1174 CURVE SMOOTH",
"964 1220 OFFCURVE",
"883 1245 OFFCURVE",
"807 1245 CURVE SMOOTH",
"723 1245 OFFCURVE",
"655 1218 OFFCURVE",
"608 1193 CURVE SMOOTH",
"585 1180 OFFCURVE",
"567 1169 OFFCURVE",
"555 1158 CURVE SMOOTH",
"531 1136 OFFCURVE",
"515 1131 OFFCURVE",
"532 1100 CURVE"
);
},
{
closed = 1;
nodes = (
"672 252 LINE SMOOTH",
"672 236 OFFCURVE",
"686 221 OFFCURVE",
"702 221 CURVE SMOOTH",
"866 221 LINE SMOOTH",
"882 221 OFFCURVE",
"895 236 OFFCURVE",
"895 252 CURVE SMOOTH",
"895 408 LINE SMOOTH",
"895 424 OFFCURVE",
"883 438 OFFCURVE",
"866 438 CURVE SMOOTH",
"702 438 LINE SMOOTH",
"686 438 OFFCURVE",
"672 424 OFFCURVE",
"672 408 CURVE SMOOTH"
);
}
);
width = 1597;
}
);
unicode = F059;
},
{
glyphname = uniF05A;
lastChange = "2012-07-06 12:25:45 +0200";
layers = (
{
layerId = "1D4A27DC-6245-4CD0-82A2-90C51343519E";
name = Regular;
paths = (
{
closed = 1;
nodes = (
"0 989 OFFCURVE",
"89 1189 OFFCURVE",
"234 1334 CURVE SMOOTH",
"378 1478 OFFCURVE",
"578 1567 OFFCURVE",
"799 1567 CURVE SMOOTH",
"1020 1567 OFFCURVE",
"1219 1478 OFFCURVE",
"1364 1334 CURVE SMOOTH",
"1509 1189 OFFCURVE",
"1597 989 OFFCURVE",
"1597 768 CURVE SMOOTH",
"1597 547 OFFCURVE",
"1509 347 OFFCURVE",
"1364 203 CURVE SMOOTH",
"1219 58 OFFCURVE",
"1020 -31 OFFCURVE",
"799 -31 CURVE SMOOTH",
"578 -31 OFFCURVE",
"378 58 OFFCURVE",
"234 203 CURVE SMOOTH",
"89 347 OFFCURVE",
"0 547 OFFCURVE",
"0 768 CURVE SMOOTH"
);
},
{
closed = 1;
nodes = (
"573 858 LINE SMOOTH",
"573 839 OFFCURVE",
"583 829 OFFCURVE",
"602 829 CURVE SMOOTH",
"688 829 LINE",
"688 420 LINE",
"610 420 LINE SMOOTH",
"594 420 OFFCURVE",
"580 407 OFFCURVE",
"580 391 CURVE SMOOTH",
"580 252 LINE SMOOTH",
"580 236 OFFCURVE",
"594 221 OFFCURVE",
"610 221 CURVE SMOOTH",
"1012 221 LINE SMOOTH",
"1028 221 OFFCURVE",
"1040 236 OFFCURVE",
"1040 252 CURVE SMOOTH",
"1040 391 LINE SMOOTH",
"1040 410 OFFCURVE",
"1031 420 OFFCURVE",
"1012 420 CURVE SMOOTH",
"934 420 LINE",
"934 997 LINE SMOOTH",
"934 1013 OFFCURVE",
"922 1028 OFFCURVE",
"905 1028 CURVE SMOOTH",
"602 1028 LINE SMOOTH",
"586 1028 OFFCURVE",
"573 1014 OFFCURVE",
"573 997 CURVE SMOOTH"
);
},
{
closed = 1;
nodes = (
"686 1151 LINE SMOOTH",
"686 1135 OFFCURVE",
"701 1120 OFFCURVE",
"717 1120 CURVE SMOOTH",
"905 1120 LINE SMOOTH",
"921 1120 OFFCURVE",
"934 1135 OFFCURVE",
"934 1151 CURVE SMOOTH",
"934 1317 LINE SMOOTH",
"934 1336 OFFCURVE",
"924 1346 OFFCURVE",
"905 1346 CURVE SMOOTH",
"717 1346 LINE SMOOTH",
"701 1346 OFFCURVE",
"686 1333 OFFCURVE",
"686 1317 CURVE SMOOTH"
);
}
);
width = 1597;
}
);
unicode = F05A;
},
{
glyphname = uniF05B;
lastChange = "2012-07-06 12:25:45 +0200";
layers = (
{
layerId = "1D4A27DC-6245-4CD0-82A2-90C51343519E";
name = Regular;
paths = (
{
closed = 1;
nodes = (
"0 846 LINE SMOOTH",
"0 867 OFFCURVE",
"18 883 OFFCURVE",
"39 883 CURVE SMOOTH",
"203 883 LINE",
"227 995 OFFCURVE",
"284 1097 OFFCURVE",
"362 1175 CURVE SMOOTH",
"440 1253 OFFCURVE",
"541 1309 OFFCURVE",
"653 1333 CURVE",
"653 1497 LINE SMOOTH",
"653 1523 OFFCURVE",
"666 1536 OFFCURVE",
"692 1536 CURVE SMOOTH",
"846 1536 LINE SMOOTH",
"867 1536 OFFCURVE",
"883 1518 OFFCURVE",
"883 1497 CURVE SMOOTH",
"883 1333 LINE",
"995 1309 OFFCURVE",
"1097 1253 OFFCURVE",
"1175 1175 CURVE SMOOTH",
"1253 1097 OFFCURVE",
"1309 995 OFFCURVE",
"1333 883 CURVE",
"1497 883 LINE SMOOTH",
"1518 883 OFFCURVE",
"1536 867 OFFCURVE",
"1536 846 CURVE SMOOTH",
"1536 692 LINE SMOOTH",
"1536 666 OFFCURVE",
"1523 653 OFFCURVE",
"1497 653 CURVE SMOOTH",
"1333 653 LINE",
"1309 541 OFFCURVE",
"1253 440 OFFCURVE",
"1175 362 CURVE SMOOTH",
"1097 284 OFFCURVE",
"995 227 OFFCURVE",
"883 203 CURVE",
"883 39 LINE SMOOTH",
"883 18 OFFCURVE",
"867 0 OFFCURVE",
"846 0 CURVE SMOOTH",
"692 0 LINE SMOOTH",
"666 0 OFFCURVE",
"653 13 OFFCURVE",
"653 39 CURVE SMOOTH",
"653 203 LINE",
"541 227 OFFCURVE",
"440 284 OFFCURVE",
"362 362 CURVE SMOOTH",
"284 440 OFFCURVE",
"227 541 OFFCURVE",
"203 653 CURVE",
"39 653 LINE SMOOTH",
"13 653 OFFCURVE",
"0 666 OFFCURVE",
"0 692 CURVE SMOOTH"
);
},
{
closed = 1;
nodes = (
"365 653 LINE",
"404 512 OFFCURVE",
"512 402 OFFCURVE",
"653 365 CURVE",
"653 539 LINE SMOOTH",
"653 560 OFFCURVE",
"671 575 OFFCURVE",
"692 575 CURVE SMOOTH",
"846 575 LINE SMOOTH",
"867 575 OFFCURVE",
"883 560 OFFCURVE",
"883 539 CURVE SMOOTH",
"883 365 LINE",
"1024 404 OFFCURVE",
"1134 512 OFFCURVE",
"1171 653 CURVE",
"999 653 LINE SMOOTH",
"973 653 OFFCURVE",
"960 666 OFFCURVE",
"961 692 CURVE",
"961 846 LINE SMOOTH",
"961 867 OFFCURVE",
"978 883 OFFCURVE",
"999 883 CURVE SMOOTH",
"1171 883 LINE",
"1132 1024 OFFCURVE",
"1024 1134 OFFCURVE",
"883 1171 CURVE",
"883 999 LINE SMOOTH",
"883 978 OFFCURVE",
"867 961 OFFCURVE",
"846 961 CURVE SMOOTH",
"692 961 LINE SMOOTH",
"666 961 OFFCURVE",
"653 974 OFFCURVE",
"653 999 CURVE SMOOTH",
"653 1171 LINE",
"512 1132 OFFCURVE",
"402 1024 OFFCURVE",
"365 883 CURVE",
"539 883 LINE SMOOTH",
"560 883 OFFCURVE",
"575 867 OFFCURVE",
"575 846 CURVE SMOOTH",
"575 692 LINE SMOOTH",
"575 671 OFFCURVE",
"560 653 OFFCURVE",
"539 653 CURVE SMOOTH"
);
}
);
width = 1536;
}
);
unicode = F05B;
},
{
glyphname = uniF05C;
lastChange = "2012-07-06 12:25:45 +0200";
layers = (
{
layerId = "1D4A27DC-6245-4CD0-82A2-90C51343519E";
name = Regular;
paths = (
{
closed = 1;
nodes = (
"0 989 OFFCURVE",
"89 1189 OFFCURVE",
"234 1334 CURVE SMOOTH",
"378 1478 OFFCURVE",
"578 1567 OFFCURVE",
"799 1567 CURVE SMOOTH",
"1020 1567 OFFCURVE",
"1219 1478 OFFCURVE",
"1364 1334 CURVE SMOOTH",
"1509 1189 OFFCURVE",
"1597 989 OFFCURVE",
"1597 768 CURVE SMOOTH",
"1597 547 OFFCURVE",
"1509 347 OFFCURVE",
"1364 203 CURVE SMOOTH",
"1219 58 OFFCURVE",
"1020 -31 OFFCURVE",
"799 -31 CURVE SMOOTH",
"578 -31 OFFCURVE",
"378 58 OFFCURVE",
"234 203 CURVE SMOOTH",
"89 347 OFFCURVE",
"0 547 OFFCURVE",
"0 768 CURVE SMOOTH"
);
},
{
closed = 1;
nodes = (
"240 612 OFFCURVE",
"303 474 OFFCURVE",
"404 373 CURVE SMOOTH",
"504 272 OFFCURVE",
"643 209 OFFCURVE",
"799 209 CURVE SMOOTH",
"955 209 OFFCURVE",
"1093 272 OFFCURVE",
"1194 373 CURVE SMOOTH",
"1295 474 OFFCURVE",
"1358 612 OFFCURVE",
"1358 768 CURVE SMOOTH",
"1358 924 OFFCURVE",
"1295 1062 OFFCURVE",
"1194 1163 CURVE SMOOTH",
"1093 1264 OFFCURVE",
"954 1327 OFFCURVE",
"799 1327 CURVE SMOOTH",
"643 1327 OFFCURVE",
"504 1264 OFFCURVE",
"404 1163 CURVE SMOOTH",
"303 1062 OFFCURVE",
"240 924 OFFCURVE",
"240 768 CURVE SMOOTH"
);
},
{
closed = 1;
nodes = (
"463 545 LINE SMOOTH",
"455 553 OFFCURVE",
"451 563 OFFCURVE",
"451 574 CURVE SMOOTH",
"451 585 OFFCURVE",
"455 594 OFFCURVE",
"463 602 CURVE SMOOTH",
"629 768 LINE",
"463 934 LINE SMOOTH",
"455 942 OFFCURVE",
"451 952 OFFCURVE",
"451 963 CURVE SMOOTH",
"451 974 OFFCURVE",
"455 983 OFFCURVE",
"463 991 CURVE SMOOTH",
"575 1104 LINE SMOOTH",
"594 1123 OFFCURVE",
"614 1123 OFFCURVE",
"633 1104 CURVE SMOOTH",
"799 938 LINE",
"965 1104 LINE SMOOTH",
"984 1123 OFFCURVE",
"1003 1123 OFFCURVE",
"1022 1104 CURVE SMOOTH",
"1135 991 LINE SMOOTH",
"1154 972 OFFCURVE",
"1154 953 OFFCURVE",
"1135 934 CURVE SMOOTH",
"969 768 LINE",
"1135 602 LINE SMOOTH",
"1154 583 OFFCURVE",
"1154 564 OFFCURVE",
"1135 545 CURVE SMOOTH",
"1022 432 LINE SMOOTH",
"1014 424 OFFCURVE",
"1005 420 OFFCURVE",
"994 420 CURVE SMOOTH",
"983 420 OFFCURVE",
"973 424 OFFCURVE",
"965 432 CURVE SMOOTH",
"799 598 LINE",
"633 432 LINE SMOOTH",
"625 424 OFFCURVE",
"616 420 OFFCURVE",
"605 420 CURVE SMOOTH",
"594 420 OFFCURVE",
"584 424 OFFCURVE",
"575 432 CURVE"
);
}
);
width = 1597;
}
);
unicode = F05C;
},
{
glyphname = uniF05D;
lastChange = "2012-07-06 12:25:45 +0200";
layers = (
{
layerId = "1D4A27DC-6245-4CD0-82A2-90C51343519E";
name = Regular;
paths = (
{
closed = 1;
nodes = (
"0 989 OFFCURVE",
"89 1189 OFFCURVE",
"234 1334 CURVE SMOOTH",
"378 1478 OFFCURVE",
"578 1567 OFFCURVE",
"799 1567 CURVE SMOOTH",
"1020 1567 OFFCURVE",
"1219 1478 OFFCURVE",
"1364 1334 CURVE SMOOTH",
"1509 1189 OFFCURVE",
"1597 989 OFFCURVE",
"1597 768 CURVE SMOOTH",
"1597 547 OFFCURVE",
"1509 347 OFFCURVE",
"1364 203 CURVE SMOOTH",
"1219 58 OFFCURVE",
"1020 -31 OFFCURVE",
"799 -31 CURVE SMOOTH",
"578 -31 OFFCURVE",
"378 58 OFFCURVE",
"234 203 CURVE SMOOTH",
"89 347 OFFCURVE",
"0 547 OFFCURVE",
"0 768 CURVE SMOOTH"
);
},
{
closed = 1;
nodes = (
"240 612 OFFCURVE",
"303 474 OFFCURVE",
"404 373 CURVE SMOOTH",
"504 272 OFFCURVE",
"643 209 OFFCURVE",
"799 209 CURVE SMOOTH",
"955 209 OFFCURVE",
"1093 272 OFFCURVE",
"1194 373 CURVE SMOOTH",
"1295 474 OFFCURVE",
"1358 612 OFFCURVE",
"1358 768 CURVE SMOOTH",
"1358 924 OFFCURVE",
"1295 1062 OFFCURVE",
"1194 1163 CURVE SMOOTH",
"1093 1264 OFFCURVE",
"954 1327 OFFCURVE",
"799 1327 CURVE SMOOTH",
"643 1327 OFFCURVE",
"504 1264 OFFCURVE",
"404 1163 CURVE SMOOTH",
"303 1062 OFFCURVE",
"240 924 OFFCURVE",
"240 768 CURVE SMOOTH"
);
},
{
closed = 1;
nodes = (
"342 690 LINE SMOOTH",
"335 697 OFFCURVE",
"332 706 OFFCURVE",
"332 718 CURVE SMOOTH",
"332 729 OFFCURVE",
"335 738 OFFCURVE",
"342 745 CURVE SMOOTH",
"457 860 LINE SMOOTH",
"464 867 OFFCURVE",
"473 870 OFFCURVE",
"485 870 CURVE SMOOTH",
"496 870 OFFCURVE",
"505 867 OFFCURVE",
"512 860 CURVE SMOOTH",
"690 680 LINE",
"709 663 OFFCURVE",
"729 663 OFFCURVE",
"748 680 CURVE",
"1085 1020 LINE SMOOTH",
"1092 1027 OFFCURVE",
"1101 1030 OFFCURVE",
"1113 1030 CURVE SMOOTH",
"1124 1030 OFFCURVE",
"1134 1027 OFFCURVE",
"1141 1020 CURVE SMOOTH",
"1255 905 LINE SMOOTH",
"1268 892 OFFCURVE",
"1270 863 OFFCURVE",
"1255 850 CURVE",
"846 440 LINE SMOOTH",
"830 424 OFFCURVE",
"799 412 OFFCURVE",
"776 412 CURVE SMOOTH",
"662 412 LINE SMOOTH",
"641 412 OFFCURVE",
"608 424 OFFCURVE",
"592 440 CURVE SMOOTH"
);
}
);
width = 1597;
}
);
unicode = F05D;
},
{
glyphname = uniF05E;
lastChange = "2012-07-06 12:25:45 +0200";
layers = (
{
layerId = "1D4A27DC-6245-4CD0-82A2-90C51343519E";
name = Regular;
paths = (
{
closed = 1;
nodes = (
"0 989 OFFCURVE",
"89 1189 OFFCURVE",
"234 1334 CURVE SMOOTH",
"378 1478 OFFCURVE",
"578 1567 OFFCURVE",
"799 1567 CURVE SMOOTH",
"1020 1567 OFFCURVE",
"1219 1478 OFFCURVE",
"1364 1334 CURVE SMOOTH",
"1509 1189 OFFCURVE",
"1597 989 OFFCURVE",
"1597 768 CURVE SMOOTH",
"1597 547 OFFCURVE",
"1509 347 OFFCURVE",
"1364 203 CURVE SMOOTH",
"1219 58 OFFCURVE",
"1020 -31 OFFCURVE",
"799 -31 CURVE SMOOTH",
"578 -31 OFFCURVE",
"378 58 OFFCURVE",
"234 203 CURVE SMOOTH",
"89 347 OFFCURVE",
"0 547 OFFCURVE",
"0 768 CURVE SMOOTH"
);
},
{
closed = 1;
nodes = (
"240 656 OFFCURVE",
"273 554 OFFCURVE",
"330 467 CURVE",
"1100 1237 LINE",
"1012 1294 OFFCURVE",
"911 1327 OFFCURVE",
"799 1327 CURVE SMOOTH",
"643 1327 OFFCURVE",
"504 1264 OFFCURVE",
"404 1163 CURVE SMOOTH",
"303 1062 OFFCURVE",
"240 924 OFFCURVE",
"240 768 CURVE SMOOTH"
);
},
{
closed = 1;
nodes = (
"498 297 LINE",
"586 242 OFFCURVE",
"687 209 OFFCURVE",
"799 209 CURVE SMOOTH",
"955 209 OFFCURVE",
"1093 272 OFFCURVE",
"1194 373 CURVE SMOOTH",
"1295 474 OFFCURVE",
"1358 612 OFFCURVE",
"1358 768 CURVE SMOOTH",
"1358 880 OFFCURVE",
"1325 982 OFFCURVE",
"1270 1069 CURVE"
);
}
);
width = 1597;
}
);
unicode = F05E;
},
{
glyphname = uniF060;
lastChange = "2012-07-06 12:25:45 +0200";
layers = (
{
layerId = "1D4A27DC-6245-4CD0-82A2-90C51343519E";
name = Regular;
paths = (
{
closed = 1;
nodes = (
"29 700 LINE SMOOTH",
"10 719 OFFCURVE",
"0 742 OFFCURVE",
"0 768 CURVE SMOOTH",
"0 794 OFFCURVE",
"10 817 OFFCURVE",
"29 836 CURVE SMOOTH",
"700 1509 LINE SMOOTH",
"719 1528 OFFCURVE",
"742 1538 OFFCURVE",
"768 1538 CURVE SMOOTH",
"794 1538 OFFCURVE",
"817 1528 OFFCURVE",
"836 1509 CURVE SMOOTH",
"936 1409 LINE SMOOTH",
"955 1390 OFFCURVE",
"965 1367 OFFCURVE",
"965 1342 CURVE SMOOTH",
"965 1316 OFFCURVE",
"955 1293 OFFCURVE",
"936 1274 CURVE SMOOTH",
"598 936 LINE",
"1440 936 LINE SMOOTH",
"1495 936 OFFCURVE",
"1536 895 OFFCURVE",
"1536 840 CURVE SMOOTH",
"1536 696 LINE SMOOTH",
"1536 644 OFFCURVE",
"1494 602 OFFCURVE",
"1442 602 CURVE SMOOTH",
"598 602 LINE",
"936 264 LINE SMOOTH",
"955 245 OFFCURVE",
"965 222 OFFCURVE",
"965 197 CURVE SMOOTH",
"965 171 OFFCURVE",
"955 148 OFFCURVE",
"936 129 CURVE SMOOTH",
"836 29 LINE SMOOTH",
"817 10 OFFCURVE",
"794 0 OFFCURVE",
"768 0 CURVE SMOOTH",
"742 0 OFFCURVE",
"719 10 OFFCURVE",
"700 29 CURVE SMOOTH"
);
}
);
width = 1536;
}
);
unicode = F060;
},
{
glyphname = uniF061;
lastChange = "2012-07-06 12:25:45 +0200";
layers = (
{
layerId = "1D4A27DC-6245-4CD0-82A2-90C51343519E";
name = Regular;
paths = (
{
closed = 1;
nodes = (
"0 842 LINE SMOOTH",
"0 894 OFFCURVE",
"42 936 OFFCURVE",
"94 936 CURVE SMOOTH",
"938 936 LINE",
"600 1274 LINE SMOOTH",
"581 1293 OFFCURVE",
"571 1316 OFFCURVE",
"571 1342 CURVE SMOOTH",
"571 1367 OFFCURVE",
"581 1390 OFFCURVE",
"600 1409 CURVE SMOOTH",
"700 1509 LINE SMOOTH",
"719 1528 OFFCURVE",
"742 1538 OFFCURVE",
"768 1538 CURVE SMOOTH",
"794 1538 OFFCURVE",
"817 1528 OFFCURVE",
"836 1509 CURVE SMOOTH",
"1507 836 LINE SMOOTH",
"1526 817 OFFCURVE",
"1536 794 OFFCURVE",
"1536 769 CURVE SMOOTH",
"1536 744 OFFCURVE",
"1526 721 OFFCURVE",
"1507 702 CURVE SMOOTH",
"836 29 LINE SMOOTH",
"817 10 OFFCURVE",
"794 0 OFFCURVE",
"768 0 CURVE SMOOTH",
"742 0 OFFCURVE",
"719 10 OFFCURVE",
"700 29 CURVE SMOOTH",
"600 129 LINE SMOOTH",
"581 148 OFFCURVE",
"571 171 OFFCURVE",
"571 197 CURVE SMOOTH",
"571 223 OFFCURVE",
"581 245 OFFCURVE",
"600 264 CURVE SMOOTH",
"938 602 LINE",
"94 602 LINE SMOOTH",
"42 602 OFFCURVE",
"0 643 OFFCURVE",
"0 698 CURVE SMOOTH"
);
}
);
width = 1536;
}
);
unicode = F061;
},
{
glyphname = uniF062;
lastChange = "2012-07-06 12:25:45 +0200";
layers = (
{
layerId = "1D4A27DC-6245-4CD0-82A2-90C51343519E";
name = Regular;
paths = (
{
closed = 1;
nodes = (
"29 700 LINE SMOOTH",
"-10 739 OFFCURVE",
"-12 797 OFFCURVE",
"27 836 CURVE SMOOTH",
"700 1507 LINE SMOOTH",
"719 1526 OFFCURVE",
"742 1536 OFFCURVE",
"768 1536 CURVE SMOOTH",
"794 1536 OFFCURVE",
"817 1526 OFFCURVE",
"836 1507 CURVE SMOOTH",
"1507 836 LINE SMOOTH",
"1526 817 OFFCURVE",
"1536 794 OFFCURVE",
"1536 768 CURVE SMOOTH",
"1536 742 OFFCURVE",
"1526 719 OFFCURVE",
"1507 700 CURVE SMOOTH",
"1407 600 LINE SMOOTH",
"1388 581 OFFCURVE",
"1366 571 OFFCURVE",
"1341 571 CURVE SMOOTH",
"1316 571 OFFCURVE",
"1293 581 OFFCURVE",
"1274 600 CURVE SMOOTH",
"934 938 LINE",
"934 94 LINE SMOOTH",
"934 42 OFFCURVE",
"892 0 OFFCURVE",
"840 0 CURVE SMOOTH",
"696 0 LINE SMOOTH",
"641 0 OFFCURVE",
"602 42 OFFCURVE",
"602 94 CURVE SMOOTH",
"602 938 LINE",
"264 600 LINE SMOOTH",
"245 581 OFFCURVE",
"222 571 OFFCURVE",
"197 571 CURVE SMOOTH",
"171 571 OFFCURVE",
"148 581 OFFCURVE",
"129 600 CURVE SMOOTH"
);
}
);
width = 1536;
}
);
unicode = F062;
},
{
glyphname = uniF063;
lastChange = "2012-07-06 12:25:45 +0200";
layers = (
{
layerId = "1D4A27DC-6245-4CD0-82A2-90C51343519E";
name = Regular;
paths = (
{
closed = 1;
nodes = (
"29 698 LINE SMOOTH",
"10 717 OFFCURVE",
"0 740 OFFCURVE",
"0 766 CURVE SMOOTH",
"0 792 OFFCURVE",
"10 815 OFFCURVE",
"29 834 CURVE SMOOTH",
"129 934 LINE SMOOTH",
"148 953 OFFCURVE",
"171 963 OFFCURVE",
"197 963 CURVE SMOOTH",
"223 963 OFFCURVE",
"245 953 OFFCURVE",
"264 934 CURVE SMOOTH",
"602 596 LINE",
"602 1440 LINE SMOOTH",
"602 1492 OFFCURVE",
"644 1534 OFFCURVE",
"696 1534 CURVE SMOOTH",
"840 1534 LINE SMOOTH",
"895 1534 OFFCURVE",
"934 1492 OFFCURVE",
"934 1440 CURVE SMOOTH",
"934 596 LINE",
"1274 934 LINE SMOOTH",
"1293 953 OFFCURVE",
"1316 963 OFFCURVE",
"1341 963 CURVE SMOOTH",
"1366 963 OFFCURVE",
"1388 953 OFFCURVE",
"1407 934 CURVE SMOOTH",
"1509 834 LINE SMOOTH",
"1528 815 OFFCURVE",
"1538 792 OFFCURVE",
"1538 766 CURVE SMOOTH",
"1538 740 OFFCURVE",
"1528 717 OFFCURVE",
"1509 698 CURVE SMOOTH",
"836 27 LINE SMOOTH",
"817 8 OFFCURVE",
"794 -2 OFFCURVE",
"768 -2 CURVE SMOOTH",
"742 -2 OFFCURVE",
"719 8 OFFCURVE",
"700 27 CURVE SMOOTH"
);
}
);
width = 1536;
}
);
unicode = F063;
},
{
glyphname = uniF064;
lastChange = "2012-07-06 12:25:45 +0200";
layers = (
{
layerId = "1D4A27DC-6245-4CD0-82A2-90C51343519E";
name = Regular;
paths = (
{
closed = 1;
nodes = (
"0 414 OFFCURVE",
"94 667 OFFCURVE",
"290 851 CURVE SMOOTH",
"485 1035 OFFCURVE",
"783 1150 OFFCURVE",
"1192 1153 CURVE",
"1192 1446 LINE SMOOTH",
"1192 1542 OFFCURVE",
"1246 1565 OFFCURVE",
"1317 1497 CURVE SMOOTH",
"1808 1004 LINE SMOOTH",
"1831 982 OFFCURVE",
"1843 955 OFFCURVE",
"1843 922 CURVE SMOOTH",
"1843 891 OFFCURVE",
"1831 863 OFFCURVE",
"1808 840 CURVE SMOOTH",
"1317 346 LINE SMOOTH",
"1249 278 OFFCURVE",
"1192 302 OFFCURVE",
"1192 397 CURVE SMOOTH",
"1192 727 LINE",
"843 724 OFFCURVE",
"578 647 OFFCURVE",
"395 523 CURVE SMOOTH",
"212 399 OFFCURVE",
"109 226 OFFCURVE",
"82 33 CURVE SMOOTH",
"79 11 OFFCURVE",
"67 0 OFFCURVE",
"45 0 CURVE SMOOTH",
"43 0 LINE SMOOTH",
"21 0 OFFCURVE",
"9 11 OFFCURVE",
"6 33 CURVE SMOOTH",
"2 67 OFFCURVE",
"0 101 OFFCURVE",
"0 135 CURVE SMOOTH"
);
}
);
width = 1843;
}
);
unicode = F064;
},
{
glyphname = uniF065;
lastChange = "2012-07-06 12:25:45 +0200";
layers = (
{
layerId = "1D4A27DC-6245-4CD0-82A2-90C51343519E";
name = Regular;
paths = (
{
closed = 1;
nodes = (
"0 608 LINE SMOOTH",
"0 679 OFFCURVE",
"40 696 OFFCURVE",
"92 647 CURVE SMOOTH",
"258 481 LINE",
"532 756 LINE SMOOTH",
"540 764 OFFCURVE",
"550 768 OFFCURVE",
"563 768 CURVE SMOOTH",
"576 768 OFFCURVE",
"587 764 OFFCURVE",
"596 756 CURVE",
"756 596 LINE",
"764 587 OFFCURVE",
"768 576 OFFCURVE",
"768 564 CURVE SMOOTH",
"768 551 OFFCURVE",
"764 541 OFFCURVE",
"756 532 CURVE",
"481 258 LINE",
"647 92 LINE SMOOTH",
"699 40 OFFCURVE",
"680 0 OFFCURVE",
"608 0 CURVE SMOOTH",
"88 0 LINE SMOOTH",
"39 0 OFFCURVE",
"0 41 OFFCURVE",
"0 86 CURVE SMOOTH"
);
},
{
closed = 1;
nodes = (
"780 940 LINE",
"772 949 OFFCURVE",
"768 960 OFFCURVE",
"768 973 CURVE SMOOTH",
"768 985 OFFCURVE",
"772 995 OFFCURVE",
"780 1004 CURVE",
"1055 1278 LINE",
"889 1444 LINE SMOOTH",
"837 1496 OFFCURVE",
"856 1536 OFFCURVE",
"928 1536 CURVE SMOOTH",
"1448 1536 LINE SMOOTH",
"1497 1536 OFFCURVE",
"1536 1495 OFFCURVE",
"1536 1450 CURVE SMOOTH",
"1536 928 LINE SMOOTH",
"1536 857 OFFCURVE",
"1496 840 OFFCURVE",
"1444 889 CURVE SMOOTH",
"1278 1055 LINE",
"1004 782 LINE",
"996 773 OFFCURVE",
"986 768 OFFCURVE",
"973 768 CURVE SMOOTH",
"960 768 OFFCURVE",
"949 773 OFFCURVE",
"940 782 CURVE SMOOTH"
);
}
);
width = 1536;
}
);
unicode = F065;
},
{
glyphname = uniF066;
lastChange = "2012-07-06 12:25:45 +0200";
layers = (
{
layerId = "1D4A27DC-6245-4CD0-82A2-90C51343519E";
name = Regular;
paths = (
{
closed = 1;
nodes = (
"12 172 LINE SMOOTH",
"4 180 OFFCURVE",
"0 190 OFFCURVE",
"0 203 CURVE SMOOTH",
"0 215 OFFCURVE",
"4 226 OFFCURVE",
"12 236 CURVE",
"287 508 LINE",
"121 674 LINE SMOOTH",
"69 726 OFFCURVE",
"88 766 OFFCURVE",
"160 766 CURVE SMOOTH",
"680 766 LINE SMOOTH",
"731 766 OFFCURVE",
"768 725 OFFCURVE",
"768 680 CURVE SMOOTH",
"768 158 LINE SMOOTH",
"768 87 OFFCURVE",
"728 69 OFFCURVE",
"676 121 CURVE SMOOTH",
"510 287 LINE",
"236 12 LINE",
"228 3 OFFCURVE",
"218 -2 OFFCURVE",
"205 -2 CURVE SMOOTH",
"192 -2 OFFCURVE",
"181 3 OFFCURVE",
"172 12 CURVE SMOOTH"
);
},
{
closed = 1;
nodes = (
"768 1376 LINE SMOOTH",
"768 1447 OFFCURVE",
"808 1465 OFFCURVE",
"860 1413 CURVE SMOOTH",
"1026 1247 LINE",
"1300 1522 LINE",
"1308 1531 OFFCURVE",
"1318 1536 OFFCURVE",
"1331 1536 CURVE SMOOTH",
"1344 1536 OFFCURVE",
"1355 1531 OFFCURVE",
"1364 1522 CURVE SMOOTH",
"1524 1362 LINE SMOOTH",
"1532 1354 OFFCURVE",
"1536 1344 OFFCURVE",
"1536 1332 CURVE SMOOTH",
"1536 1319 OFFCURVE",
"1532 1308 OFFCURVE",
"1524 1298 CURVE",
"1249 1026 LINE",
"1415 860 LINE SMOOTH",
"1467 808 OFFCURVE",
"1448 768 OFFCURVE",
"1376 768 CURVE SMOOTH",
"856 768 LINE SMOOTH",
"829 768 OFFCURVE",
"808 776 OFFCURVE",
"795 793 CURVE",
"777 811 OFFCURVE",
"768 831 OFFCURVE",
"768 854 CURVE SMOOTH"
);
}
);
width = 1536;
}
);
unicode = F066;
},
{
glyphname = uniF067;
lastChange = "2012-07-06 12:25:45 +0200";
layers = (
{
layerId = "1D4A27DC-6245-4CD0-82A2-90C51343519E";
name = Regular;
paths = (
{
closed = 1;
nodes = (
"0 840 LINE SMOOTH",
"0 892 OFFCURVE",
"42 934 OFFCURVE",
"94 934 CURVE SMOOTH",
"602 934 LINE",
"602 1440 LINE SMOOTH",
"602 1495 OFFCURVE",
"641 1536 OFFCURVE",
"696 1536 CURVE SMOOTH",
"840 1536 LINE SMOOTH",
"892 1536 OFFCURVE",
"934 1494 OFFCURVE",
"934 1442 CURVE SMOOTH",
"934 934 LINE",
"1442 934 LINE SMOOTH",
"1494 934 OFFCURVE",
"1536 892 OFFCURVE",
"1536 840 CURVE SMOOTH",
"1536 696 LINE SMOOTH",
"1536 644 OFFCURVE",
"1494 602 OFFCURVE",
"1442 602 CURVE SMOOTH",
"934 602 LINE",
"934 96 LINE SMOOTH",
"934 41 OFFCURVE",
"892 0 OFFCURVE",
"840 0 CURVE SMOOTH",
"696 0 LINE SMOOTH",
"644 0 OFFCURVE",
"602 42 OFFCURVE",
"602 94 CURVE SMOOTH",
"602 602 LINE",
"96 602 LINE SMOOTH",
"41 602 OFFCURVE",
"0 641 OFFCURVE",
"0 696 CURVE SMOOTH"
);
}
);
width = 1536;
}
);
unicode = F067;
},
{
glyphname = uniF068;
lastChange = "2012-07-06 12:25:45 +0200";
layers = (
{
layerId = "1D4A27DC-6245-4CD0-82A2-90C51343519E";
name = Regular;
paths = (
{
closed = 1;
nodes = (
"0 840 LINE SMOOTH",
"0 892 OFFCURVE",
"42 934 OFFCURVE",
"94 934 CURVE SMOOTH",
"1442 934 LINE SMOOTH",
"1494 934 OFFCURVE",
"1536 892 OFFCURVE",
"1536 840 CURVE SMOOTH",
"1536 696 LINE SMOOTH",
"1536 644 OFFCURVE",
"1494 602 OFFCURVE",
"1442 602 CURVE SMOOTH",
"96 602 LINE SMOOTH",
"41 602 OFFCURVE",
"0 641 OFFCURVE",
"0 696 CURVE SMOOTH"
);
}
);
width = 1536;
}
);
unicode = F068;
},
{
glyphname = uniF069;
lastChange = "2012-07-06 12:25:45 +0200";
layers = (
{
layerId = "1D4A27DC-6245-4CD0-82A2-90C51343519E";
name = Regular;
paths = (
{
closed = 1;
nodes = (
"47 961 LINE SMOOTH",
"0 988 OFFCURVE",
"-15 1043 OFFCURVE",
"12 1090 CURVE SMOOTH",
"84 1214 LINE SMOOTH",
"111 1261 OFFCURVE",
"168 1274 OFFCURVE",
"215 1249 CURVE",
"547 1057 LINE",
"547 1440 LINE SMOOTH",
"547 1495 OFFCURVE",
"588 1536 OFFCURVE",
"643 1536 CURVE SMOOTH",
"784 1536 LINE SMOOTH",
"839 1536 OFFCURVE",
"881 1494 OFFCURVE",
"881 1442 CURVE SMOOTH",
"881 1057 LINE",
"1212 1249 LINE",
"1259 1273 OFFCURVE",
"1316 1261 OFFCURVE",
"1343 1214 CURVE SMOOTH",
"1413 1090 LINE SMOOTH",
"1440 1043 OFFCURVE",
"1427 988 OFFCURVE",
"1380 961 CURVE SMOOTH",
"1047 768 LINE",
"1380 575 LINE SMOOTH",
"1427 548 OFFCURVE",
"1440 493 OFFCURVE",
"1415 446 CURVE",
"1343 322 LINE SMOOTH",
"1316 275 OFFCURVE",
"1259 262 OFFCURVE",
"1212 287 CURVE",
"881 479 LINE",
"881 96 LINE SMOOTH",
"881 41 OFFCURVE",
"839 0 OFFCURVE",
"784 0 CURVE SMOOTH",
"643 0 LINE SMOOTH",
"588 0 OFFCURVE",
"547 42 OFFCURVE",
"547 94 CURVE SMOOTH",
"547 479 LINE",
"215 287 LINE SMOOTH",
"168 260 OFFCURVE",
"111 275 OFFCURVE",
"84 322 CURVE SMOOTH",
"12 446 LINE",
"-12 493 OFFCURVE",
"0 548 OFFCURVE",
"47 575 CURVE SMOOTH",
"381 768 LINE"
);
}
);
width = 1427;
}
);
unicode = F069;
},
{
glyphname = uniF06A;
lastChange = "2012-07-06 12:25:45 +0200";
layers = (
{
layerId = "1D4A27DC-6245-4CD0-82A2-90C51343519E";
name = Regular;
paths = (
{
closed = 1;
nodes = (
"0 989 OFFCURVE",
"89 1189 OFFCURVE",
"234 1334 CURVE SMOOTH",
"378 1478 OFFCURVE",
"578 1567 OFFCURVE",
"799 1567 CURVE SMOOTH",
"1020 1567 OFFCURVE",
"1219 1478 OFFCURVE",
"1364 1334 CURVE SMOOTH",
"1509 1189 OFFCURVE",
"1597 989 OFFCURVE",
"1597 768 CURVE SMOOTH",
"1597 547 OFFCURVE",
"1509 347 OFFCURVE",
"1364 203 CURVE SMOOTH",
"1219 58 OFFCURVE",
"1020 -31 OFFCURVE",
"799 -31 CURVE SMOOTH",
"578 -31 OFFCURVE",
"378 58 OFFCURVE",
"234 203 CURVE SMOOTH",
"89 347 OFFCURVE",
"0 547 OFFCURVE",
"0 768 CURVE SMOOTH"
);
},
{
closed = 1;
nodes = (
"686 535 LINE",
"689 516 OFFCURVE",
"699 506 OFFCURVE",
"717 506 CURVE SMOOTH",
"879 506 LINE SMOOTH",
"895 506 OFFCURVE",
"909 518 OFFCURVE",
"909 535 CURVE SMOOTH",
"926 1274 LINE SMOOTH",
"926 1281 OFFCURVE",
"923 1288 OFFCURVE",
"918 1296 CURVE",
"913 1301 OFFCURVE",
"905 1304 OFFCURVE",
"895 1305 CURVE",
"702 1305 LINE SMOOTH",
"683 1305 OFFCURVE",
"672 1287 OFFCURVE",
"672 1274 CURVE SMOOTH"
);
},
{
closed = 1;
nodes = (
"680 236 LINE SMOOTH",
"680 220 OFFCURVE",
"692 205 OFFCURVE",
"709 205 CURVE SMOOTH",
"889 205 LINE SMOOTH",
"905 205 OFFCURVE",
"920 219 OFFCURVE",
"920 236 CURVE SMOOTH",
"920 410 LINE SMOOTH",
"920 426 OFFCURVE",
"905 440 OFFCURVE",
"889 440 CURVE SMOOTH",
"709 440 LINE SMOOTH",
"693 440 OFFCURVE",
"680 426 OFFCURVE",
"680 410 CURVE SMOOTH"
);
}
);
width = 1597;
}
);
unicode = F06A;
},
{
glyphname = uniF06B;
lastChange = "2012-07-06 12:25:45 +0200";
layers = (
{
layerId = "1D4A27DC-6245-4CD0-82A2-90C51343519E";
name = Regular;
paths = (
{
closed = 1;
nodes = (
"0 979 LINE SMOOTH",
"0 1000 OFFCURVE",
"18 1018 OFFCURVE",
"39 1018 CURVE SMOOTH",
"578 1018 LINE",
"502 1018 OFFCURVE",
"432 1049 OFFCURVE",
"383 1098 CURVE SMOOTH",
"334 1147 OFFCURVE",
"303 1216 OFFCURVE",
"303 1292 CURVE SMOOTH",
"303 1368 OFFCURVE",
"334 1438 OFFCURVE",
"383 1487 CURVE SMOOTH",
"432 1536 OFFCURVE",
"501 1567 OFFCURVE",
"578 1567 CURVE SMOOTH",
"659 1567 OFFCURVE",
"737 1533 OFFCURVE",
"782 1473 CURVE SMOOTH",
"940 1270 LINE",
"1098 1473 LINE SMOOTH",
"1145 1533 OFFCURVE",
"1220 1567 OFFCURVE",
"1303 1567 CURVE SMOOTH",
"1379 1567 OFFCURVE",
"1448 1536 OFFCURVE",
"1497 1487 CURVE SMOOTH",
"1546 1438 OFFCURVE",
"1577 1369 OFFCURVE",
"1577 1292 CURVE SMOOTH",
"1577 1216 OFFCURVE",
"1546 1147 OFFCURVE",
"1497 1098 CURVE SMOOTH",
"1448 1049 OFFCURVE",
"1379 1018 OFFCURVE",
"1303 1018 CURVE",
"1841 1018 LINE SMOOTH",
"1862 1018 OFFCURVE",
"1880 1000 OFFCURVE",
"1880 979 CURVE SMOOTH",
"1880 588 LINE SMOOTH",
"1880 567 OFFCURVE",
"1864 549 OFFCURVE",
"1841 549 CURVE SMOOTH",
"1724 549 LINE",
"1724 117 LINE SMOOTH",
"1724 54 OFFCURVE",
"1671 0 OFFCURVE",
"1606 0 CURVE SMOOTH",
"274 0 LINE SMOOTH",
"209 0 OFFCURVE",
"158 54 OFFCURVE",
"158 117 CURVE SMOOTH",
"158 549 LINE",
"39 549 LINE SMOOTH",
"18 549 OFFCURVE",
"0 565 OFFCURVE",
"0 588 CURVE SMOOTH"
);
},
{
closed = 1;
nodes = (
"461 1227 OFFCURVE",
"511 1176 OFFCURVE",
"578 1176 CURVE SMOOTH",
"815 1176 LINE",
"664 1372 LINE",
"651 1385 OFFCURVE",
"621 1411 OFFCURVE",
"578 1411 CURVE SMOOTH",
"513 1411 OFFCURVE",
"461 1357 OFFCURVE",
"461 1292 CURVE SMOOTH"
);
},
{
closed = 1;
nodes = (
"743 221 LINE SMOOTH",
"743 177 OFFCURVE",
"780 141 OFFCURVE",
"823 141 CURVE SMOOTH",
"1057 141 LINE SMOOTH",
"1101 141 OFFCURVE",
"1137 177 OFFCURVE",
"1137 221 CURVE SMOOTH",
"1137 1018 LINE",
"743 1018 LINE"
);
},
{
closed = 1;
nodes = (
"1065 1176 LINE",
"1303 1176 LINE SMOOTH",
"1368 1176 OFFCURVE",
"1419 1227 OFFCURVE",
"1419 1292 CURVE SMOOTH",
"1419 1357 OFFCURVE",
"1368 1411 OFFCURVE",
"1303 1411 CURVE SMOOTH",
"1259 1411 OFFCURVE",
"1230 1385 OFFCURVE",
"1217 1372 CURVE"
);
}
);
width = 1880;
}
);
unicode = F06B;
},
{
glyphname = uniF06C;
lastChange = "2012-07-06 12:25:45 +0200";
layers = (
{
layerId = "1D4A27DC-6245-4CD0-82A2-90C51343519E";
name = Regular;
paths = (
{
closed = 1;
nodes = (
"33 206 OFFCURVE",
"86 250 OFFCURVE",
"133 289 CURVE SMOOTH",
"172 320 OFFCURVE",
"203 344 OFFCURVE",
"211 375 CURVE SMOOTH",
"212 379 OFFCURVE",
"212 383 OFFCURVE",
"211 387 CURVE SMOOTH",
"210 391 OFFCURVE",
"206 399 OFFCURVE",
"201 412 CURVE",
"193 428 OFFCURVE",
"185 448 OFFCURVE",
"180 475 CURVE SMOOTH",
"147 688 OFFCURVE",
"204 869 OFFCURVE",
"313 1013 CURVE SMOOTH",
"422 1156 OFFCURVE",
"580 1262 OFFCURVE",
"743 1319 CURVE SMOOTH",
"852 1358 OFFCURVE",
"985 1357 OFFCURVE",
"1126 1360 CURVE SMOOTH",
"1207 1360 OFFCURVE",
"1299 1361 OFFCURVE",
"1381 1373 CURVE SMOOTH",
"1463 1385 OFFCURVE",
"1535 1409 OFFCURVE",
"1579 1456 CURVE SMOOTH",
"1592 1469 OFFCURVE",
"1605 1483 OFFCURVE",
"1618 1497 CURVE",
"1642 1525 OFFCURVE",
"1667 1545 OFFCURVE",
"1699 1558 CURVE SMOOTH",
"1714 1564 OFFCURVE",
"1734 1567 OFFCURVE",
"1757 1567 CURVE SMOOTH",
"1788 1567 OFFCURVE",
"1816 1551 OFFCURVE",
"1829 1524 CURVE SMOOTH",
"1917 1347 OFFCURVE",
"1941 1152 OFFCURVE",
"1894 920 CURVE SMOOTH",
"1834 595 OFFCURVE",
"1641 349 OFFCURVE",
"1315 180 CURVE SMOOTH",
"1161 98 OFFCURVE",
"1005 57 OFFCURVE",
"848 57 CURVE SMOOTH",
"745 57 OFFCURVE",
"643 75 OFFCURVE",
"541 111 CURVE SMOOTH",
"510 122 OFFCURVE",
"480 139 OFFCURVE",
"451 156 CURVE",
"412 177 OFFCURVE",
"372 201 OFFCURVE",
"344 201 CURVE",
"331 198 OFFCURVE",
"312 175 OFFCURVE",
"293 149 CURVE SMOOTH",
"284 136 OFFCURVE",
"275 122 OFFCURVE",
"267 108 CURVE SMOOTH",
"250 79 OFFCURVE",
"236 57 OFFCURVE",
"220 33 CURVE SMOOTH",
"211 20 OFFCURVE",
"204 9 OFFCURVE",
"197 0 CURVE SMOOTH",
"180 -21 OFFCURVE",
"159 -31 OFFCURVE",
"133 -31 CURVE SMOOTH",
"129 -31 LINE",
"90 -28 OFFCURVE",
"63 -13 OFFCURVE",
"46 6 CURVE SMOOTH",
"29 25 OFFCURVE",
"19 46 OFFCURVE",
"16 57 CURVE",
"-2 82 OFFCURVE",
"-5 108 OFFCURVE",
"6 135 CURVE SMOOTH"
);
},
{
closed = 1;
nodes = (
"391 531 OFFCURVE",
"394 482 OFFCURVE",
"430 453 CURVE",
"457 429 OFFCURVE",
"510 425 OFFCURVE",
"543 461 CURVE SMOOTH",
"663 597 OFFCURVE",
"782 694 OFFCURVE",
"916 753 CURVE SMOOTH",
"1050 812 OFFCURVE",
"1195 834 OFFCURVE",
"1370 829 CURVE",
"1414 824 OFFCURVE",
"1451 861 OFFCURVE",
"1454 905 CURVE SMOOTH",
"1457 952 OFFCURVE",
"1423 986 OFFCURVE",
"1376 989 CURVE SMOOTH",
"1180 997 OFFCURVE",
"1008 967 OFFCURVE",
"852 899 CURVE SMOOTH",
"696 831 OFFCURVE",
"555 723 OFFCURVE",
"422 567 CURVE SMOOTH"
);
}
);
width = 1916;
}
);
unicode = F06C;
},
{
glyphname = uniF06D;
lastChange = "2012-07-06 12:25:45 +0200";
layers = (
{
layerId = "1D4A27DC-6245-4CD0-82A2-90C51343519E";
name = Regular;
paths = (
{
closed = 1;
nodes = (
"0 606 OFFCURVE",
"90 791 OFFCURVE",
"238 934 CURVE",
"251 955 OFFCURVE",
"292 950 OFFCURVE",
"303 926 CURVE",
"306 915 OFFCURVE",
"306 906 OFFCURVE",
"303 897 CURVE",
"292 850 OFFCURVE",
"282 782 OFFCURVE",
"285 712 CURVE SMOOTH",
"288 642 OFFCURVE",
"300 573 OFFCURVE",
"336 526 CURVE",
"357 501 OFFCURVE",
"383 485 OFFCURVE",
"414 477 CURVE",
"349 682 OFFCURVE",
"370 869 OFFCURVE",
"423 1029 CURVE SMOOTH",
"476 1189 OFFCURVE",
"567 1320 OFFCURVE",
"643 1413 CURVE SMOOTH",
"681 1460 OFFCURVE",
"714 1495 OFFCURVE",
"741 1520 CURVE SMOOTH",
"768 1544 OFFCURVE",
"783 1557 OFFCURVE",
"784 1559 CURVE",
"801 1571 OFFCURVE",
"816 1571 OFFCURVE",
"831 1559 CURVE SMOOTH",
"844 1548 OFFCURVE",
"849 1528 OFFCURVE",
"844 1513 CURVE",
"844 1512 OFFCURVE",
"839 1498 OFFCURVE",
"829 1471 CURVE SMOOTH",
"808 1417 OFFCURVE",
"797 1331 OFFCURVE",
"814 1234 CURVE SMOOTH",
"823 1185 OFFCURVE",
"846 1140 OFFCURVE",
"885 1098 CURVE",
"934 1041 OFFCURVE",
"976 988 OFFCURVE",
"1005 920 CURVE SMOOTH",
"1033 851 OFFCURVE",
"1051 762 OFFCURVE",
"1051 637 CURVE SMOOTH",
"1051 615 OFFCURVE",
"1041 602 OFFCURVE",
"1020 598 CURVE SMOOTH",
"1004 595 OFFCURVE",
"984 604 OFFCURVE",
"979 621 CURVE",
"960 662 OFFCURVE",
"921 688 OFFCURVE",
"874 688 CURVE SMOOTH",
"811 688 OFFCURVE",
"762 637 OFFCURVE",
"762 573 CURVE SMOOTH",
"762 412 OFFCURVE",
"998 432 OFFCURVE",
"1071 516 CURVE SMOOTH",
"1120 573 OFFCURVE",
"1140 657 OFFCURVE",
"1145 732 CURVE SMOOTH",
"1150 807 OFFCURVE",
"1146 876 OFFCURVE",
"1143 897 CURVE",
"1135 913 OFFCURVE",
"1143 943 OFFCURVE",
"1175 947 CURVE SMOOTH",
"1190 949 OFFCURVE",
"1202 945 OFFCURVE",
"1210 934 CURVE",
"1358 793 OFFCURVE",
"1446 606 OFFCURVE",
"1446 442 CURVE SMOOTH",
"1446 297 OFFCURVE",
"1374 181 OFFCURVE",
"1249 99 CURVE SMOOTH",
"1124 17 OFFCURVE",
"942 -31 OFFCURVE",
"723 -31 CURVE SMOOTH",
"504 -31 OFFCURVE",
"323 17 OFFCURVE",
"197 99 CURVE SMOOTH",
"71 181 OFFCURVE",
"0 298 OFFCURVE",
"0 442 CURVE SMOOTH"
);
}
);
width = 1445;
}
);
unicode = F06D;
},
{
glyphname = uniF06E;
lastChange = "2012-07-06 12:25:45 +0200";
layers = (
{
layerId = "1D4A27DC-6245-4CD0-82A2-90C51343519E";
name = Regular;
paths = (
{
closed = 1;
nodes = (
"8 666 OFFCURVE",
"0 693 OFFCURVE",
"0 722 CURVE SMOOTH",
"0 751 OFFCURVE",
"8 779 OFFCURVE",
"25 805 CURVE SMOOTH",
"129 972 OFFCURVE",
"264 1105 OFFCURVE",
"419 1197 CURVE SMOOTH",
"574 1289 OFFCURVE",
"743 1337 OFFCURVE",
"922 1337 CURVE SMOOTH",
"1102 1337 OFFCURVE",
"1273 1289 OFFCURVE",
"1426 1198 CURVE SMOOTH",
"1578 1107 OFFCURVE",
"1714 974 OFFCURVE",
"1821 805 CURVE SMOOTH",
"1852 753 OFFCURVE",
"1850 690 OFFCURVE",
"1821 641 CURVE SMOOTH",
"1714 472 OFFCURVE",
"1578 338 OFFCURVE",
"1426 248 CURVE SMOOTH",
"1273 158 OFFCURVE",
"1102 109 OFFCURVE",
"922 109 CURVE SMOOTH",
"745 109 OFFCURVE",
"574 157 OFFCURVE",
"419 249 CURVE SMOOTH",
"264 340 OFFCURVE",
"128 474 OFFCURVE",
"25 641 CURVE"
);
},
{
closed = 1;
nodes = (
"263 875 OFFCURVE",
"204 804 OFFCURVE",
"154 723 CURVE",
"242 584 OFFCURVE",
"354 466 OFFCURVE",
"486 387 CURVE SMOOTH",
"617 308 OFFCURVE",
"763 262 OFFCURVE",
"922 262 CURVE SMOOTH",
"1081 262 OFFCURVE",
"1227 308 OFFCURVE",
"1358 387 CURVE SMOOTH",
"1489 466 OFFCURVE",
"1602 583 OFFCURVE",
"1690 723 CURVE",
"1583 895 OFFCURVE",
"1438 1027 OFFCURVE",
"1266 1106 CURVE",
"1334 1027 OFFCURVE",
"1374 928 OFFCURVE",
"1374 813 CURVE SMOOTH",
"1374 685 OFFCURVE",
"1324 572 OFFCURVE",
"1240 488 CURVE SMOOTH",
"1155 403 OFFCURVE",
"1040 352 OFFCURVE",
"913 352 CURVE SMOOTH",
"785 352 OFFCURVE",
"672 403 OFFCURVE",
"588 488 CURVE SMOOTH",
"503 572 OFFCURVE",
"453 685 OFFCURVE",
"453 813 CURVE SMOOTH",
"453 917 OFFCURVE",
"490 1013 OFFCURVE",
"547 1090 CURVE",
"469 1051 OFFCURVE",
"397 1000 OFFCURVE",
"330 938 CURVE SMOOTH"
);
},
{
closed = 1;
nodes = (
"614 782 OFFCURVE",
"639 756 OFFCURVE",
"672 756 CURVE SMOOTH",
"705 756 OFFCURVE",
"729 784 OFFCURVE",
"729 813 CURVE SMOOTH",
"729 917 OFFCURVE",
"810 997 OFFCURVE",
"913 997 CURVE SMOOTH",
"946 997 OFFCURVE",
"971 1024 OFFCURVE",
"971 1055 CURVE SMOOTH",
"971 1088 OFFCURVE",
"946 1112 OFFCURVE",
"913 1112 CURVE SMOOTH",
"832 1112 OFFCURVE",
"754 1078 OFFCURVE",
"702 1025 CURVE SMOOTH",
"649 972 OFFCURVE",
"614 894 OFFCURVE",
"614 813 CURVE SMOOTH"
);
}
);
width = 1843;
}
);
unicode = F06E;
},
{
glyphname = uniF070;
lastChange = "2012-07-06 12:25:45 +0200";
layers = (
{
layerId = "1D4A27DC-6245-4CD0-82A2-90C51343519E";
name = Regular;
paths = (
{
closed = 1;
nodes = (
"8 711 OFFCURVE",
"0 738 OFFCURVE",
"0 767 CURVE SMOOTH",
"0 796 OFFCURVE",
"8 824 OFFCURVE",
"25 850 CURVE SMOOTH",
"129 1017 OFFCURVE",
"264 1151 OFFCURVE",
"419 1243 CURVE SMOOTH",
"574 1334 OFFCURVE",
"743 1382 OFFCURVE",
"922 1382 CURVE SMOOTH",
"993 1382 OFFCURVE",
"1062 1371 OFFCURVE",
"1130 1358 CURVE",
"1219 1516 LINE SMOOTH",
"1224 1525 OFFCURVE",
"1232 1531 OFFCURVE",
"1243 1534 CURVE",
"1251 1538 OFFCURVE",
"1261 1537 OFFCURVE",
"1272 1532 CURVE",
"1405 1456 LINE SMOOTH",
"1424 1445 OFFCURVE",
"1433 1422 OFFCURVE",
"1421 1403 CURVE",
"647 20 LINE",
"643 11 OFFCURVE",
"636 5 OFFCURVE",
"625 2 CURVE",
"622 1 OFFCURVE",
"619 0 OFFCURVE",
"614 0 CURVE SMOOTH",
"610 0 OFFCURVE",
"604 1 OFFCURVE",
"596 4 CURVE",
"461 80 LINE SMOOTH",
"442 91 OFFCURVE",
"435 114 OFFCURVE",
"446 133 CURVE SMOOTH",
"512 248 LINE",
"319 339 OFFCURVE",
"150 487 OFFCURVE",
"25 686 CURVE"
);
},
{
closed = 1;
nodes = (
"263 593 OFFCURVE",
"411 460 OFFCURVE",
"586 381 CURVE",
"643 485 LINE",
"528 569 OFFCURVE",
"453 702 OFFCURVE",
"453 858 CURVE SMOOTH",
"453 962 OFFCURVE",
"490 1057 OFFCURVE",
"547 1137 CURVE",
"391 1056 OFFCURVE",
"254 932 OFFCURVE",
"154 768 CURVE"
);
},
{
closed = 1;
nodes = (
"614 827 OFFCURVE",
"639 801 OFFCURVE",
"672 801 CURVE SMOOTH",
"705 801 OFFCURVE",
"729 829 OFFCURVE",
"729 858 CURVE SMOOTH",
"729 962 OFFCURVE",
"810 1042 OFFCURVE",
"913 1042 CURVE SMOOTH",
"946 1042 OFFCURVE",
"971 1069 OFFCURVE",
"971 1100 CURVE SMOOTH",
"971 1133 OFFCURVE",
"946 1157 OFFCURVE",
"913 1157 CURVE SMOOTH",
"832 1157 OFFCURVE",
"754 1123 OFFCURVE",
"702 1070 CURVE SMOOTH",
"649 1017 OFFCURVE",
"614 939 OFFCURVE",
"614 858 CURVE SMOOTH"
);
},
{
closed = 1;
nodes = (
"1016 313 LINE",
"1295 346 OFFCURVE",
"1531 515 OFFCURVE",
"1690 768 CURVE",
"1617 881 OFFCURVE",
"1530 976 OFFCURVE",
"1427 1051 CURVE",
"1503 1188 LINE",
"1626 1100 OFFCURVE",
"1733 989 OFFCURVE",
"1821 850 CURVE SMOOTH",
"1852 798 OFFCURVE",
"1850 735 OFFCURVE",
"1821 686 CURVE SMOOTH",
"1608 347 OFFCURVE",
"1285 157 OFFCURVE",
"928 154 CURVE"
);
},
{
closed = 1;
nodes = (
"1366 940 LINE",
"1371 913 OFFCURVE",
"1374 889 OFFCURVE",
"1374 858 CURVE SMOOTH",
"1374 759 OFFCURVE",
"1344 669 OFFCURVE",
"1292 596 CURVE SMOOTH",
"1240 523 OFFCURVE",
"1166 463 OFFCURVE",
"1081 430 CURVE"
);
}
);
width = 1843;
}
);
unicode = F070;
},
{
glyphname = uniF071;
lastChange = "2012-07-06 12:25:45 +0200";
layers = (
{
layerId = "1D4A27DC-6245-4CD0-82A2-90C51343519E";
name = Regular;
paths = (
{
closed = 1;
nodes = (
"0 119 OFFCURVE",
"8 145 OFFCURVE",
"23 166 CURVE",
"791 1497 LINE SMOOTH",
"812 1533 OFFCURVE",
"843 1567 OFFCURVE",
"887 1567 CURVE SMOOTH",
"931 1567 OFFCURVE",
"962 1533 OFFCURVE",
"983 1497 CURVE SMOOTH",
"1753 166 LINE SMOOTH",
"1766 145 OFFCURVE",
"1776 120 OFFCURVE",
"1776 92 CURVE SMOOTH",
"1776 27 OFFCURVE",
"1714 0 OFFCURVE",
"1657 0 CURVE SMOOTH",
"119 0 LINE SMOOTH",
"62 0 OFFCURVE",
"0 27 OFFCURVE",
"0 92 CURVE SMOOTH"
);
},
{
closed = 1;
nodes = (
"782 481 LINE SMOOTH",
"782 462 OFFCURVE",
"798 446 OFFCURVE",
"817 446 CURVE SMOOTH",
"956 446 LINE SMOOTH",
"975 446 OFFCURVE",
"991 462 OFFCURVE",
"991 481 CURVE SMOOTH",
"1006 1114 LINE SMOOTH",
"1006 1133 OFFCURVE",
"990 1149 OFFCURVE",
"971 1149 CURVE SMOOTH",
"805 1149 LINE SMOOTH",
"784 1149 OFFCURVE",
"770 1133 OFFCURVE",
"770 1114 CURVE SMOOTH"
);
},
{
closed = 1;
nodes = (
"776 168 LINE SMOOTH",
"776 147 OFFCURVE",
"792 133 OFFCURVE",
"811 133 CURVE SMOOTH",
"965 133 LINE SMOOTH",
"988 133 OFFCURVE",
"1000 145 OFFCURVE",
"999 168 CURVE",
"999 315 LINE SMOOTH",
"999 336 OFFCURVE",
"986 352 OFFCURVE",
"965 352 CURVE SMOOTH",
"811 352 LINE SMOOTH",
"792 352 OFFCURVE",
"776 338 OFFCURVE",
"776 315 CURVE SMOOTH"
);
}
);
width = 1775;
}
);
unicode = F071;
},
{
glyphname = uniF072;
lastChange = "2012-07-06 12:25:45 +0200";
layers = (
{
layerId = "1D4A27DC-6245-4CD0-82A2-90C51343519E";
name = Regular;
paths = (
{
closed = 1;
nodes = (
"0 545 LINE SMOOTH",
"0 566 OFFCURVE",
"8 585 OFFCURVE",
"23 602 CURVE",
"53 631 LINE",
"66 648 OFFCURVE",
"85 656 OFFCURVE",
"109 655 CURVE",
"114 655 OFFCURVE",
"118 654 OFFCURVE",
"119 653 CURVE",
"399 621 LINE",
"451 705 OFFCURVE",
"523 800 OFFCURVE",
"618 907 CURVE",
"35 1364 LINE SMOOTH",
"14 1381 OFFCURVE",
"4 1400 OFFCURVE",
"4 1423 CURVE SMOOTH",
"4 1427 LINE SMOOTH",
"4 1448 OFFCURVE",
"12 1467 OFFCURVE",
"27 1485 CURVE",
"84 1542 LINE",
"102 1557 OFFCURVE",
"121 1565 OFFCURVE",
"141 1565 CURVE SMOOTH",
"145 1565 OFFCURVE",
"150 1565 OFFCURVE",
"155 1565 CURVE SMOOTH",
"160 1565 OFFCURVE",
"164 1564 OFFCURVE",
"168 1561 CURVE",
"971 1268 LINE",
"1122 1417 LINE SMOOTH",
"1215 1510 OFFCURVE",
"1349 1567 OFFCURVE",
"1450 1567 CURVE SMOOTH",
"1498 1567 OFFCURVE",
"1534 1555 OFFCURVE",
"1559 1530 CURVE",
"1586 1506 OFFCURVE",
"1595 1468 OFFCURVE",
"1595 1421 CURVE SMOOTH",
"1595 1320 OFFCURVE",
"1542 1186 OFFCURVE",
"1446 1094 CURVE SMOOTH",
"1296 942 LINE",
"1589 139 LINE",
"1593 131 OFFCURVE",
"1595 122 OFFCURVE",
"1595 113 CURVE SMOOTH",
"1595 91 OFFCURVE",
"1587 72 OFFCURVE",
"1571 55 CURVE",
"1513 -2 LINE",
"1498 -19 OFFCURVE",
"1479 -27 OFFCURVE",
"1456 -27 CURVE SMOOTH",
"1452 -27 LINE",
"1429 -24 OFFCURVE",
"1409 -14 OFFCURVE",
"1393 4 CURVE",
"938 590 LINE",
"829 494 OFFCURVE",
"734 423 OFFCURVE",
"649 371 CURVE",
"684 90 LINE",
"684 80 LINE SMOOTH",
"684 58 OFFCURVE",
"677 40 OFFCURVE",
"662 25 CURVE SMOOTH",
"631 -6 LINE SMOOTH",
"616 -21 OFFCURVE",
"596 -29 OFFCURVE",
"573 -29 CURVE SMOOTH",
"569 -29 LINE",
"543 -26 OFFCURVE",
"523 -16 OFFCURVE",
"510 2 CURVE SMOOTH",
"305 274 LINE",
"31 481 LINE",
"12 498 OFFCURVE",
"1 518 OFFCURVE",
"0 541 CURVE"
);
}
);
width = 1597;
}
);
unicode = F072;
},
{
glyphname = uniF073;
lastChange = "2012-07-06 12:25:45 +0200";
layers = (
{
layerId = "1D4A27DC-6245-4CD0-82A2-90C51343519E";
name = Regular;
paths = (
{
closed = 1;
nodes = (
"0 1264 LINE SMOOTH",
"0 1327 OFFCURVE",
"54 1380 OFFCURVE",
"117 1380 CURVE SMOOTH",
"156 1380 LINE",
"156 1393 LINE SMOOTH",
"156 1434 OFFCURVE",
"169 1479 OFFCURVE",
"199 1512 CURVE SMOOTH",
"229 1544 OFFCURVE",
"277 1567 OFFCURVE",
"348 1567 CURVE SMOOTH",
"419 1567 OFFCURVE",
"468 1544 OFFCURVE",
"498 1512 CURVE SMOOTH",
"528 1479 OFFCURVE",
"541 1433 OFFCURVE",
"541 1393 CURVE SMOOTH",
"541 1380 LINE",
"590 1380 LINE",
"590 1393 LINE SMOOTH",
"590 1434 OFFCURVE",
"603 1479 OFFCURVE",
"633 1512 CURVE SMOOTH",
"663 1544 OFFCURVE",
"711 1567 OFFCURVE",
"782 1567 CURVE SMOOTH",
"853 1567 OFFCURVE",
"901 1544 OFFCURVE",
"933 1512 CURVE SMOOTH",
"964 1479 OFFCURVE",
"977 1433 OFFCURVE",
"977 1393 CURVE SMOOTH",
"977 1380 LINE",
"1026 1380 LINE",
"1026 1393 LINE SMOOTH",
"1026 1434 OFFCURVE",
"1040 1479 OFFCURVE",
"1070 1512 CURVE SMOOTH",
"1100 1544 OFFCURVE",
"1147 1567 OFFCURVE",
"1219 1567 CURVE SMOOTH",
"1290 1567 OFFCURVE",
"1339 1544 OFFCURVE",
"1369 1512 CURVE SMOOTH",
"1399 1479 OFFCURVE",
"1411 1433 OFFCURVE",
"1411 1393 CURVE SMOOTH",
"1411 1380 LINE",
"1450 1380 LINE SMOOTH",
"1513 1380 OFFCURVE",
"1567 1327 OFFCURVE",
"1567 1264 CURVE SMOOTH",
"1567 117 LINE SMOOTH",
"1567 54 OFFCURVE",
"1513 0 OFFCURVE",
"1450 0 CURVE SMOOTH",
"117 0 LINE SMOOTH",
"54 0 OFFCURVE",
"0 54 OFFCURVE",
"0 117 CURVE SMOOTH"
);
},
{
closed = 1;
nodes = (
"158 158 LINE",
"440 158 LINE",
"440 408 LINE",
"158 408 LINE"
);
},
{
closed = 1;
nodes = (
"158 446 LINE",
"440 446 LINE",
"440 698 LINE",
"158 698 LINE"
);
},
{
closed = 1;
nodes = (
"158 737 LINE",
"440 737 LINE",
"440 989 LINE",
"158 989 LINE"
);
},
{
closed = 1;
nodes = (
"272 1165 LINE SMOOTH",
"272 1127 OFFCURVE",
"297 1108 OFFCURVE",
"348 1108 CURVE SMOOTH",
"399 1108 OFFCURVE",
"424 1127 OFFCURVE",
"424 1165 CURVE SMOOTH",
"424 1393 LINE SMOOTH",
"424 1431 OFFCURVE",
"399 1450 OFFCURVE",
"348 1450 CURVE SMOOTH",
"297 1450 OFFCURVE",
"272 1431 OFFCURVE",
"272 1393 CURVE SMOOTH"
);
},
{
closed = 1;
nodes = (
"479 158 LINE",
"764 158 LINE",
"764 408 LINE",
"479 408 LINE"
);
},
{
closed = 1;
nodes = (
"479 446 LINE",
"764 446 LINE",
"764 698 LINE",
"479 698 LINE"
);
},
{
closed = 1;
nodes = (
"479 737 LINE",
"764 737 LINE",
"764 989 LINE",
"479 989 LINE"
);
},
{
closed = 1;
nodes = (
"709 1165 LINE SMOOTH",
"709 1124 OFFCURVE",
"727 1108 OFFCURVE",
"782 1108 CURVE SMOOTH",
"837 1108 OFFCURVE",
"858 1125 OFFCURVE",
"858 1165 CURVE SMOOTH",
"858 1393 LINE SMOOTH",
"858 1432 OFFCURVE",
"837 1450 OFFCURVE",
"782 1450 CURVE SMOOTH",
"727 1450 OFFCURVE",
"709 1430 OFFCURVE",
"709 1393 CURVE SMOOTH"
);
},
{
closed = 1;
nodes = (
"803 158 LINE",
"1087 158 LINE",
"1087 408 LINE",
"803 408 LINE"
);
},
{
closed = 1;
nodes = (
"803 446 LINE",
"1087 446 LINE",
"1087 698 LINE",
"803 698 LINE"
);
},
{
closed = 1;
nodes = (
"803 737 LINE",
"1087 737 LINE",
"1087 989 LINE",
"803 989 LINE"
);
},
{
closed = 1;
nodes = (
"1126 158 LINE",
"1409 158 LINE",
"1409 408 LINE",
"1126 408 LINE"
);
},
{
closed = 1;
nodes = (
"1126 446 LINE",
"1409 446 LINE",
"1409 698 LINE",
"1126 698 LINE"
);
},
{
closed = 1;
nodes = (
"1126 737 LINE",
"1409 737 LINE",
"1409 989 LINE",
"1126 989 LINE"
);
},
{
closed = 1;
nodes = (
"1143 1165 LINE SMOOTH",
"1143 1127 OFFCURVE",
"1168 1108 OFFCURVE",
"1219 1108 CURVE SMOOTH",
"1270 1108 OFFCURVE",
"1295 1127 OFFCURVE",
"1294 1165 CURVE",
"1294 1393 LINE SMOOTH",
"1294 1431 OFFCURVE",
"1269 1450 OFFCURVE",
"1219 1450 CURVE SMOOTH",
"1168 1450 OFFCURVE",
"1143 1431 OFFCURVE",
"1143 1393 CURVE SMOOTH"
);
}
);
width = 1566;
}
);
unicode = F073;
},
